<?xml version="1.0" standalone="no"?>
<!DOCTYPE svg PUBLIC "-//W3C//DTD SVG 1.1//EN" "http://www.w3.org/Graphics/SVG/1.1/DTD/svg11.dtd" >
<svg xmlns="http://www.w3.org/2000/svg" xmlns:xlink="http://www.w3.org/1999/xlink" version="1.1">
<metadata>
Created by FontForge 20161003 at Wed Jan  9 08:02:29 2019
 By www-data
Copyright (c) 1990, 2001 Adobe Systems Incorporated.  All Rights Reserved.
</metadata>
<defs>
<font id="BookmanStdMedium" horiz-adv-x="334" >
  <font-face 
    font-family="BookmanStdMedium"
    font-weight="500"
    font-stretch="normal"
    units-per-em="1000"
    panose-1="2 5 7 4 5 5 5 2 2 4"
    ascent="690"
    descent="-310"
    x-height="490"
    cap-height="681"
    bbox="-174 -236 1138 928"
    underline-thickness="50"
    underline-position="-150"
    unicode-range="U+0020-FB02"
  />
<missing-glyph horiz-adv-x="500" 
d="M0 0v700h500v-700h-500zM250 395l170 255h-340zM280 350l170 -255v510zM80 50h340l-170 255zM50 605v-510l170 255z" />
    <glyph glyph-name="fi" unicode="fi" horiz-adv-x="667" 
d="M30 419v64h76v12q0 185 225 185q103 0 159 -29t56 -85q0 -27 -15.5 -43t-42.5 -16q-44 0 -62 37l-17 37q-19 41 -82 41q-58 0 -78.5 -26.5t-20.5 -81.5v-31h333v-359q0 -33 15.5 -49t60.5 -17v-58h-274v58q45 1 60.5 17t15.5 49v226q0 44 -15.5 56.5t-65.5 12.5h-130
v-295q0 -33 15.5 -49t60.5 -17v-58h-274v58q45 1 60.5 17t15.5 49v295h-76z" />
    <glyph glyph-name="fl" unicode="fl" horiz-adv-x="667" 
d="M30 419v64h76v12q0 185 231 185q40 0 86.5 -8t49.5 -8q24 0 38 10h50v-550q0 -33 15.5 -49t60.5 -17v-58h-274v58q45 1 60.5 17t15.5 49v410q-11 6 -23 39q-16 49 -83 49q-62 0 -83.5 -26.5t-21.5 -81.5v-31h82v-64h-82v-295q0 -33 15.5 -49t60.5 -17v-58h-274v58
q45 1 60.5 17t15.5 49v295h-76z" />
    <glyph glyph-name=".notdef" horiz-adv-x="500" 
d="M0 0v700h500v-700h-500zM250 395l170 255h-340zM280 350l170 -255v510zM80 50h340l-170 255zM50 605v-510l170 255z" />
    <glyph glyph-name=".null" horiz-adv-x="0" 
 />
    <glyph glyph-name="nonmarkingreturn" horiz-adv-x="333" 
 />
    <glyph glyph-name="space" unicode=" " horiz-adv-x="306" 
 />
    <glyph glyph-name="exclam" unicode="!" 
d="M138 194v36q0 67 -28 202t-28 158q0 104 85 104t85 -104q0 -23 -28 -158t-28 -202v-36h-58zM91 70q0 32 22.5 54t53.5 22t53.5 -22t22.5 -54t-22.5 -54t-53.5 -22t-53.5 22t-22.5 54z" />
    <glyph glyph-name="quotedbl" unicode="&#x22;" horiz-adv-x="500" 
d="M309 450l-17 133q-4 36 -4 48q0 30 10 46.5t37 16.5t37 -16.5t10 -46.5q0 -12 -4 -48l-17 -133q-4 -27 -26 -27t-26 27zM139 450l-17 133q-4 36 -4 48q0 30 10 46.5t37 16.5t37 -16.5t10 -46.5q0 -12 -4 -48l-17 -133q-4 -27 -26 -27t-26 27z" />
    <glyph glyph-name="numbersign" unicode="#" horiz-adv-x="612" 
d="M317 0l27 194h-115l-27 -194h-78l27 194h-95v76h105l19 134h-95v76h105l27 194h78l-27 -194h115l27 194h78l-27 -194h95v-76h-105l-19 -134h95v-76h-105l-27 -194h-78zM354 270l19 134h-115l-19 -134h115z" />
    <glyph glyph-name="dollar" unicode="$" horiz-adv-x="612" 
d="M275 -91v114q-98 1 -167 47.5t-69 109.5q0 40 19.5 63t51.5 23q27 0 45 -19t18 -50q0 -10 -3 -30.5t-3 -25.5q0 -33 40.5 -49.5t98.5 -16.5q82 0 122.5 32.5t40.5 77.5q0 39 -25.5 60.5t-94.5 35.5l-137 28q-87 18 -122 58t-35 98q0 73 55.5 128t164.5 57v100h58v-100
q84 -9 145.5 -49t61.5 -103q0 -25 -14.5 -44t-41.5 -19q-33 0 -49.5 16t-16.5 42q0 7 1.5 21.5t1.5 20.5q0 31 -38 50t-92 19q-55 0 -90.5 -25t-35.5 -71q0 -42 20.5 -64.5t82.5 -34.5l112 -22q103 -20 148 -58t45 -113q0 -61 -37.5 -105t-89 -63.5t-113.5 -24.5v-114h-58z
" />
    <glyph glyph-name="percent" unicode="%" horiz-adv-x="796" 
d="M519 164q0 -128 74 -128t74 128q0 127 -74 127t-74 -127zM140 -10l448 694h67l-448 -694h-67zM129 511q0 -128 74 -128t74 128q0 127 -74 127t-74 -127zM425 164q0 80 47.5 126.5t120.5 46.5t120.5 -46.5t47.5 -126.5t-47.5 -127t-120.5 -47t-120.5 47t-47.5 127zM35 511
q0 80 47.5 126.5t120.5 46.5t120.5 -46.5t47.5 -126.5t-47.5 -127t-120.5 -47t-120.5 47t-47.5 127z" />
    <glyph glyph-name="ampersand" unicode="&#x26;" horiz-adv-x="833" 
d="M513 472h256v-52q-59 -7 -76.5 -20.5t-30.5 -58.5q-22 -77 -39.5 -117t-40.5 -65q57 -95 148 -95q25 0 51 4v-58q-59 -10 -119 -10q-108 0 -166 63q-94 -76 -201 -76t-175 60.5t-68 145.5q0 69 41 120.5t126 77.5q-31 28 -48.5 66.5t-17.5 70.5q0 74 51 117t129 43
q77 0 122 -38.5t45 -101.5q0 -50 -30.5 -89.5t-80.5 -60.5q77 -71 149 -177q20 25 33.5 69.5t13.5 69.5q0 29 -18 42.5t-54 17.5v52zM192 207q0 -69 34.5 -109.5t92.5 -40.5q77 0 135 60q-100 163 -183 228q-42 -20 -60.5 -50t-18.5 -88zM281 557q0 -67 57 -112
q68 39 68 108q0 32 -19 48.5t-44 16.5q-29 0 -45.5 -18.5t-16.5 -42.5z" />
    <glyph glyph-name="quotesingle" unicode="'" horiz-adv-x="278" 
d="M113 450l-17 133q-4 36 -4 48q0 30 10 46.5t37 16.5t37 -16.5t10 -46.5q0 -12 -4 -48l-17 -133q-4 -27 -26 -27t-26 27z" />
    <glyph glyph-name="parenleft" unicode="(" horiz-adv-x="333" 
d="M83 116v295q0 78 20.5 136t52.5 87t62.5 42.5t57.5 13.5v-52q-30 -8 -51.5 -36t-31 -67t-13 -72.5t-3.5 -68.5v-233q0 -50 3.5 -88.5t13 -81t30.5 -71t52 -39.5v-55q-20 2 -42.5 10.5t-50.5 30t-49 51.5t-36 82t-15 116z" />
    <glyph glyph-name="parenright" unicode=")" horiz-adv-x="333" 
d="M250 400v-295q0 -78 -20.5 -136t-52.5 -87t-62.5 -42.5t-57.5 -13.5v52q30 8 51.5 36t31 67t13 72.5t3.5 68.5v233q0 50 -3.5 88.5t-13 81t-30.5 71t-52 39.5v55q20 -2 42.5 -10.5t50.5 -30t49 -51.5t36 -82t15 -116z" />
    <glyph glyph-name="asterisk" unicode="*" horiz-adv-x="556" 
d="M278 282q-21 0 -34 14.5t-13 34.5q0 25 32 97q-18 2 -29 16q-34 -47 -53.5 -65t-44.5 -18q-17 0 -30 14.5t-13 29.5q0 23 18.5 37t34 17.5t57.5 9.5q11 2 17 3q-3 8 -3 16q0 9 3 16q-78 12 -97 21q-30 15 -30 46q0 15 13 29.5t30 14.5q25 0 44.5 -18t53.5 -65
q11 14 29 16q-32 72 -32 97q0 20 13 34.5t34 14.5t34 -14.5t13 -34.5q0 -25 -32 -97q18 -2 29 -16q34 47 53.5 65t44.5 18q17 0 30 -14.5t13 -29.5q0 -23 -18.5 -37t-34 -17.5t-57.5 -9.5q-5 -1 -9 -1.5t-8 -1.5q3 -7 3 -16q0 -8 -3 -16q78 -12 97 -21q30 -15 30 -46
q0 -15 -13 -29.5t-30 -14.5q-25 0 -44.5 18t-53.5 65q-11 -14 -29 -16q32 -72 32 -97q0 -20 -13 -34.5t-34 -14.5z" />
    <glyph glyph-name="plus" unicode="+" horiz-adv-x="600" 
d="M256 297v209h88v-209h209v-88h-209v-209h-88v209h-209v88h209z" />
    <glyph glyph-name="comma" unicode="," horiz-adv-x="306" 
d="M124 -118l-29 32q48 44 66 92q-14 -6 -23 -6q-29 0 -45 19.5t-16 50.5q0 32 22.5 54t53.5 22q32 0 54 -24t22 -68q0 -47 -24 -87t-81 -85z" />
    <glyph glyph-name="hyphen" unicode="-" horiz-adv-x="333" 
d="M20 212l43 104h250l-43 -104h-250z" />
    <glyph glyph-name="period" unicode="." horiz-adv-x="306" 
d="M77 70q0 32 22.5 54t53.5 22t53.5 -22t22.5 -54t-22.5 -54t-53.5 -22t-53.5 22t-22.5 54z" />
    <glyph glyph-name="slash" unicode="/" horiz-adv-x="278" 
d="M-22 -13l234 707h88l-234 -707h-88z" />
    <glyph glyph-name="zero" unicode="0" horiz-adv-x="612" 
d="M173 337q0 -61 4 -103t17 -85.5t41 -66t71 -22.5q46 0 77 40t43.5 100t12.5 137q0 61 -4 103t-17 85.5t-41 66t-71 22.5t-71 -22.5t-41 -66t-17 -85.5t-4 -103zM39 337q0 159 70 253t197 94q125 0 196 -98.5t71 -248.5q0 -148 -71.5 -247.5t-195.5 -99.5
q-127 0 -197 92.5t-70 254.5z" />
    <glyph glyph-name="one" unicode="1" horiz-adv-x="612" 
d="M111 594v52q131 3 230 38h32v-554q0 -36 26 -54t99 -18h17v-58h-399v58h16q66 0 86.5 17t20.5 62v367q0 57 -19 70t-109 20z" />
    <glyph glyph-name="two" unicode="2" horiz-adv-x="612" 
d="M63 0l-11 90l136 101q195 145 195 303q0 126 -121 126q-55 0 -89.5 -23t-34.5 -52q0 -17 14 -36.5t14 -41.5q0 -30 -17 -46.5t-42 -16.5q-27 0 -45 21t-18 58q0 82 65.5 141.5t172.5 59.5q41 0 81 -10.5t77 -33t60 -64t23 -97.5q0 -143 -226 -294l-118 -79v-2h143
q67 0 103 12.5t50 33t27 63.5l58 -12l-50 -201h-447z" />
    <glyph glyph-name="three" unicode="3" horiz-adv-x="612" 
d="M244 336v61h36q59 0 91 32.5t32 90.5q0 51 -30.5 75.5t-79.5 24.5q-42 0 -76.5 -16t-34.5 -47q0 -7 6 -24t6 -34q0 -57 -64 -57q-27 0 -42.5 19t-15.5 47q0 79 62.5 127.5t159.5 48.5q111 0 171 -50t60 -121q0 -118 -153 -147v-2q78 -1 132.5 -41.5t54.5 -120.5
q0 -24 -6 -49t-24 -55t-46.5 -53.5t-79 -39t-115.5 -15.5q-114 0 -174.5 46.5t-60.5 109.5q0 37 17 59t45 23q24 1 40.5 -15.5t16.5 -44.5q0 -13 -4.5 -27t-4.5 -19q0 -33 37.5 -50.5t76.5 -17.5q80 0 114 40.5t34 94.5q0 76 -33 106t-85 35z" />
    <glyph glyph-name="four" unicode="4" horiz-adv-x="612" 
d="M51 173l-27 57q283 380 320 444h110v-431h134l-26 -70h-108v-50q0 -32 17 -46.5t67 -18.5v-58h-290v58q50 4 67 18.5t17 46.5v50h-281zM332 243v311h-2q-34 -66 -81 -132t-136 -179h219z" />
    <glyph glyph-name="five" unicode="5" horiz-adv-x="612" 
d="M79 309v365h253q61 0 80 8t36 34h52l-20 -146h-331v-165q72 57 168 57q26 0 54 -4.5t63.5 -19.5t62.5 -38.5t46 -66t19 -97.5q0 -62 -24 -111t-65 -77.5t-89.5 -43t-102.5 -14.5q-100 0 -165.5 43t-65.5 106q0 38 18.5 57t45.5 19q30 0 47 -17.5t17 -49.5q0 -8 -3 -22
t-3 -19q0 -19 24.5 -36t73.5 -17q67 0 109.5 42.5t42.5 126.5q0 88 -40 128.5t-101 40.5q-99 0 -154 -95z" />
    <glyph glyph-name="six" unicode="6" horiz-adv-x="612" 
d="M569 224q0 -91 -70.5 -162.5t-187.5 -71.5q-145 0 -206.5 88.5t-61.5 247.5q0 172 77.5 265t209.5 93q90 0 147.5 -39.5t57.5 -95.5q0 -27 -14 -43.5t-38 -16.5q-31 0 -47.5 19.5t-16.5 52.5q0 59 -84 59q-49 0 -82.5 -19t-50.5 -56.5t-24 -81t-7 -103.5h2q58 73 162 73
q42 0 82 -12t75 -36t56 -66t21 -95zM447 210q0 73 -35.5 113t-98.5 40q-64 0 -100 -39t-36 -120q0 -150 128 -150q64 0 103 41t39 115z" />
    <glyph glyph-name="seven" unicode="7" horiz-adv-x="612" 
d="M35 480l31 194h483l16 -76l-33 -43q-94 -123 -152 -270t-63 -285h-152q9 114 79 250.5t191 278.5l35 41h-237q-70 0 -99 -18t-47 -83z" />
    <glyph glyph-name="eight" unicode="8" horiz-adv-x="612" 
d="M181 524q0 -30 36 -57t70 -40t69 -22q46 17 70.5 42t24.5 68q0 51 -38 78t-99 27t-97 -25t-36 -71zM34 173q0 61 43 105t103 55v2q-48 18 -78.5 58t-30.5 91q0 92 69 146t169 54q97 0 163.5 -43.5t66.5 -121.5q0 -43 -22 -76.5t-83 -64.5q68 -21 106 -58t38 -101
q0 -98 -72.5 -163.5t-221.5 -65.5q-68 0 -119 18t-78 46.5t-40 58.5t-13 60zM138 177q0 -63 46.5 -93t104.5 -30q95 0 140 30t45 80t-49.5 79.5t-178.5 67.5q-108 -31 -108 -134z" />
    <glyph glyph-name="nine" unicode="9" horiz-adv-x="612" 
d="M43 450q0 59 25.5 110.5t85 87.5t143.5 36q64 0 113 -20.5t78.5 -53t48 -79t25.5 -92.5t7 -100q0 -165 -80 -257t-220 -92q-92 0 -142 36.5t-50 85.5q0 28 15.5 44t40.5 16q29 0 44 -16.5t22 -54.5q4 -25 18.5 -33t53.5 -8q43 0 74 13.5t49 34.5t28.5 55.5t14 68.5
t4.5 82h-2q-26 -33 -71 -53t-96 -20q-55 0 -105 20t-87 69.5t-37 119.5zM165 464q0 -74 34.5 -113.5t99.5 -39.5q62 0 98.5 40.5t36.5 112.5q0 76 -34.5 116t-100.5 40q-134 0 -134 -156z" />
    <glyph glyph-name="colon" unicode=":" horiz-adv-x="306" 
d="M77 365q0 31 22.5 53.5t53.5 22.5t53.5 -22.5t22.5 -53.5t-22.5 -53.5t-53.5 -22.5t-53.5 22.5t-22.5 53.5zM77 70q0 32 22.5 54t53.5 22t53.5 -22t22.5 -54t-22.5 -54t-53.5 -22t-53.5 22t-22.5 54z" />
    <glyph glyph-name="semicolon" unicode=";" horiz-adv-x="306" 
d="M124 -118l-29 32q48 44 66 92q-14 -6 -23 -6q-29 0 -45 19.5t-16 50.5q0 32 22.5 54t53.5 22q32 0 54 -24t22 -68q0 -47 -24 -87t-81 -85zM77 365q0 31 22.5 53.5t53.5 22.5t53.5 -22.5t22.5 -53.5t-22.5 -53.5t-53.5 -22.5t-53.5 22.5t-22.5 53.5z" />
    <glyph glyph-name="less" unicode="&#x3c;" horiz-adv-x="600" 
d="M47 215v76l506 223v-88l-390 -173l390 -173v-88z" />
    <glyph glyph-name="equal" unicode="=" horiz-adv-x="600" 
d="M47 311v88h506v-88h-506zM47 107v88h506v-88h-506z" />
    <glyph glyph-name="greater" unicode="&#x3e;" horiz-adv-x="600" 
d="M47 -8v88l390 173l-390 173v88l506 -223v-76z" />
    <glyph glyph-name="question" unicode="?" horiz-adv-x="611" 
d="M266 194v21q0 53 6.5 80.5t20 43.5t47.5 40q47 34 62 60t15 67q0 63 -35.5 93.5t-91.5 30.5q-48 0 -81 -18t-33 -46q0 -15 6 -35t6 -34q0 -29 -19 -44t-46 -15q-38 0 -56.5 25t-18.5 58q0 67 68 120t186 53q42 0 83.5 -9t83.5 -29t68 -60t26 -94q0 -25 -5 -46.5
t-19.5 -47.5t-46.5 -50t-80 -43q-41 -16 -55.5 -40.5t-20.5 -80.5h-70zM225 70q0 32 22.5 54t53.5 22t53.5 -22t22.5 -54t-22.5 -54t-53.5 -22t-53.5 22t-22.5 54z" />
    <glyph glyph-name="at" unicode="@" horiz-adv-x="800" 
d="M506 416q0 56 -41 56t-85.5 -54t-44.5 -131q0 -40 16.5 -63t39.5 -23q47 0 81 72t34 143zM631 93l12 -45q-74 -37 -123.5 -49t-119.5 -12q-146 0 -249.5 103.5t-103.5 249.5q0 148 106 251t263 103q59 0 117.5 -19.5t108.5 -55.5t80.5 -95t30.5 -132q0 -55 -21.5 -109.5
t-66.5 -94.5t-103 -40q-43 0 -67 27.5t-24 45.5h-2q-8 -19 -45.5 -45.5t-74.5 -26.5q-34 0 -65 28t-31 98q0 32 13 73t36 81t63.5 67.5t88.5 27.5q57 0 72 -51h2l9 37h75l-62 -248q-3 -12 -3 -27q0 -47 32 -47q45 0 80.5 66.5t35.5 136.5q0 94 -78 172.5t-201 78.5
q-105 0 -185 -85t-80 -243q0 -109 82.5 -189t196.5 -80q103 0 201 48z" />
    <glyph glyph-name="A" unicode="A" horiz-adv-x="722" 
d="M-17 0v58q38 10 58 31t45 79l220 522h116l220 -544q20 -49 38 -66t59 -22v-58h-308v58q88 3 88 31q0 10 -12 41l-48 122h-252l-37 -95q-15 -37 -15 -57q0 -35 77 -42v-58h-249zM334 574l-101 -258h202z" />
    <glyph glyph-name="B" unicode="B" horiz-adv-x="722" 
d="M14 0v58q45 2 65.5 19.5t20.5 55.5v415q0 38 -20.5 55.5t-65.5 19.5v58h375q55 0 97.5 -7t79 -24t56.5 -50t20 -80q0 -54 -31 -90.5t-70 -49.5l-24 -8v-2l19 -4q140 -29 140 -162q0 -204 -278 -204h-384zM234 334v-202q0 -43 21.5 -55.5t87.5 -12.5q95 0 141 40t46 106
q0 124 -143 124h-153zM234 547v-149h99q175 0 175 107q0 55 -37 83.5t-127 28.5q-73 0 -91.5 -13.5t-18.5 -56.5z" />
    <glyph glyph-name="C" unicode="C" horiz-adv-x="722" 
d="M535 644l18 37h50l64 -226l-57 -17q-42 95 -104 141.5t-127 46.5q-89 0 -140.5 -76.5t-51.5 -208.5q0 -124 56.5 -204t148.5 -80q145 0 231 146l58 -28q-44 -93 -120.5 -140.5t-171.5 -47.5q-158 0 -253 102.5t-95 251.5q0 147 91 250t233 103q92 0 170 -52v2z" />
    <glyph glyph-name="D" unicode="D" horiz-adv-x="778" 
d="M26 0v58q45 2 65.5 19.5t20.5 55.5v415q0 38 -20.5 55.5t-65.5 19.5v58h366q71 0 129 -18.5t94 -49.5t61.5 -66.5t38 -76t17.5 -71.5t5 -58q0 -38 -6.5 -77t-28.5 -88.5t-57.5 -86.5t-99.5 -63t-148 -26h-371zM246 545v-423q0 -22 5 -32.5t28 -18t71 -7.5q49 0 90 14
t76 45.5t55 90t20 139.5q0 112 -60.5 188t-184.5 76q-66 0 -83 -13t-17 -59z" />
    <glyph glyph-name="E" unicode="E" horiz-adv-x="722" 
d="M26 0v58q45 2 65.5 19.5t20.5 55.5v415q0 38 -20.5 55.5t-65.5 19.5v58h536l92 -197l-51 -26q-94 153 -276 153q-47 0 -64 -12t-17 -48v-144h59q51 0 68.5 26t22.5 97h52v-318h-52q-8 74 -29 99.5t-81 25.5h-40v-212q0 -37 18 -49t74 -12q90 0 159.5 40.5t135.5 149.5
l53 -25l-103 -229h-557z" />
    <glyph glyph-name="F" unicode="F" horiz-adv-x="611" 
d="M26 623v58h518l88 -196l-50 -24l-26 37q-79 113 -230 113q-46 0 -63 -14t-17 -56v-134h59q51 0 68.5 26t22.5 97h52v-318h-52q-8 74 -29 99.5t-81 25.5h-40v-204q0 -38 20.5 -55.5t65.5 -19.5v-58h-306v58q45 2 65.5 19.5t20.5 55.5v415q0 38 -20.5 55.5t-65.5 19.5z" />
    <glyph glyph-name="G" unicode="G" horiz-adv-x="778" 
d="M759 343v-58q-44 -6 -59.5 -23.5t-15.5 -60.5v-201h-74l-27 70q-89 -83 -218 -83q-149 0 -236.5 102.5t-87.5 251.5q0 147 91 250t233 103q92 0 170 -52l18 39h50l64 -228l-57 -17q-42 95 -104 141.5t-127 46.5q-89 0 -140.5 -76.5t-51.5 -208.5q0 -144 58 -213t144 -69
q74 0 120.5 37.5t46.5 106.5q0 38 -19.5 58t-65.5 26v58h288z" />
    <glyph glyph-name="H" unicode="H" horiz-adv-x="778" 
d="M26 0v58q45 2 65.5 19.5t20.5 55.5v415q0 38 -20.5 55.5t-65.5 19.5v58h306v-58q-45 -2 -65.5 -19.5t-20.5 -55.5v-141h286v141q0 38 -20.5 55.5t-65.5 19.5v58h306v-58q-45 -2 -65.5 -19.5t-20.5 -55.5v-415q0 -38 20.5 -55.5t65.5 -19.5v-58h-306v58q45 2 65.5 19.5
t20.5 55.5v210h-286v-210q0 -38 20.5 -55.5t65.5 -19.5v-58h-306z" />
    <glyph glyph-name="I" unicode="I" 
d="M14 0v58q45 2 65.5 19.5t20.5 55.5v415q0 38 -20.5 55.5t-65.5 19.5v58h306v-58q-45 -2 -65.5 -19.5t-20.5 -55.5v-415q0 -38 20.5 -55.5t65.5 -19.5v-58h-306z" />
    <glyph glyph-name="J" unicode="J" horiz-adv-x="611" 
d="M369 195v340q0 51 -22 68.5t-82 19.5v58h324v-58q-45 -2 -65.5 -18.5t-20.5 -49.5v-355q0 -97 -57 -151q-26 -25 -81 -43.5t-120 -18.5q-125 0 -191 59.5t-66 135.5q0 41 24 71t71 30q30 0 48 -18.5t18 -47.5q0 -26 -16.5 -48t-16.5 -34q0 -32 32 -52t76 -20
q81 0 113 34.5t32 97.5z" />
    <glyph glyph-name="K" unicode="K" horiz-adv-x="778" 
d="M26 0v58q45 2 65.5 19.5t20.5 55.5v415q0 38 -20.5 55.5t-65.5 19.5v58h320v-58q-60 -2 -80 -18t-20 -64v-178l202 179q34 31 34 49q0 27 -74 32v58h322v-58q-97 -6 -227 -121l-72 -64l150 -207q41 -57 60.5 -82t44.5 -48.5t45.5 -31.5t51.5 -11v-58h-363v58q50 2 70 10
t20 25q0 11 -12 29l-162 232l-90 -79v-128q0 -52 23 -70.5t75 -18.5v-58h-318z" />
    <glyph glyph-name="L" unicode="L" horiz-adv-x="667" 
d="M26 0v58q45 2 65.5 19.5t20.5 55.5v415q0 38 -20.5 55.5t-65.5 19.5v58h320v-58q-60 -2 -80 -18t-20 -64v-408q0 -35 13 -49t55 -14q93 0 161.5 38.5t129.5 141.5l57 -22l-106 -228h-530z" />
    <glyph glyph-name="M" unicode="M" horiz-adv-x="889" 
d="M112 133v415q0 38 -20.5 55.5t-65.5 19.5v58h275l141 -461h2l154 461h265v-58q-45 -2 -65.5 -19.5t-20.5 -55.5v-415q0 -38 20.5 -55.5t65.5 -19.5v-58h-318v58q67 8 82.5 23.5t15.5 73.5v450h-2l-200 -605h-64l-187 605h-2v-472q0 -38 20.5 -55.5t65.5 -19.5v-58h-248
v58q45 2 65.5 19.5t20.5 55.5z" />
    <glyph glyph-name="N" unicode="N" horiz-adv-x="722" 
d="M26 0v58q45 2 65.5 19.5t20.5 55.5v415q0 38 -20.5 55.5t-65.5 19.5v58h247l259 -462h2v329q0 38 -20.5 55.5t-65.5 19.5v58h248v-58q-45 -2 -65.5 -19.5t-20.5 -55.5v-548h-88l-332 576h-2v-443q0 -38 20.5 -55.5t65.5 -19.5v-58h-248z" />
    <glyph glyph-name="O" unicode="O" horiz-adv-x="778" 
d="M389 57q91 0 146.5 79.5t55.5 203.5q0 133 -54.5 208.5t-147.5 75.5t-147.5 -75.5t-54.5 -208.5q0 -124 55.5 -203.5t146.5 -79.5zM41 340q0 149 95 251.5t253 102.5t253 -102.5t95 -251.5t-95 -251t-253 -102t-253 102t-95 251z" />
    <glyph glyph-name="P" unicode="P" horiz-adv-x="667" 
d="M246 554v-194q27 -3 53 -3q111 0 151 33t40 102q0 125 -152 125q-54 0 -73 -16t-19 -47zM112 133v415q0 38 -20.5 55.5t-65.5 19.5v58h315q69 0 119 -9.5t90 -32t60 -63.5t20 -100q0 -87 -66.5 -135t-204.5 -48h-113v-160q0 -38 20.5 -55.5t65.5 -19.5v-58h-306v58
q45 2 65.5 19.5t20.5 55.5z" />
    <glyph glyph-name="Q" unicode="Q" horiz-adv-x="778" 
d="M187 340q0 -82 25.5 -147t71.5 -101l2 2q-8 22 -8 33q0 47 40 71.5t107 24.5q74 0 141 -26q25 64 25 143q0 133 -54.5 208.5t-147.5 75.5t-147.5 -75.5t-54.5 -208.5zM402 135q-66 0 -66 -39t53 -39q26 0 60.5 13t57.5 35q-50 30 -105 30zM41 340q0 149 95 251.5
t253 102.5t253 -102.5t95 -251.5q0 -124 -65 -213q47 -50 47 -115q0 -86 -96.5 -155t-259.5 -69q-75 0 -144 16t-118.5 52.5t-49.5 86.5q0 28 18 44t47 16q68 0 75 -77q6 -62 150 -62q112 0 175 35.5t63 95.5q0 20 -9 38q-79 -46 -181 -46q-158 0 -253 102t-95 251z" />
    <glyph glyph-name="R" unicode="R" horiz-adv-x="722" 
d="M26 0v58q45 2 65.5 19.5t20.5 55.5v415q0 38 -20.5 55.5t-65.5 19.5v58h372q245 0 245 -178q0 -72 -46 -119t-120 -62l146 -197q27 -35 45 -48t56 -19v-58h-182l-219 310h-77v-177q0 -38 20.5 -55.5t65.5 -19.5v-58h-306zM246 551v-177h66q102 0 143.5 28.5t41.5 95.5
q0 119 -152 119q-64 0 -81.5 -12t-17.5 -54z" />
    <glyph glyph-name="S" unicode="S" horiz-adv-x="667" 
d="M111 0l-76 246l53 21q55 -110 127 -160t144 -50q58 0 101.5 32.5t43.5 86.5q0 41 -25 62t-88 38l-158 42q-54 14 -90 35.5t-52 47.5t-21.5 47.5t-5.5 48.5q0 81 59.5 139t165.5 58q104 0 174 -47l16 34h50l63 -199l-56 -17q-39 81 -104.5 120t-128.5 39q-50 0 -80.5 -25
t-30.5 -68q0 -65 80 -85l183 -47q91 -23 134 -64.5t43 -114.5q0 -100 -72.5 -166.5t-200.5 -66.5q-54 0 -109.5 15.5t-74.5 37.5l-15 -40h-49z" />
    <glyph glyph-name="T" unicode="T" horiz-adv-x="668" 
d="M167 0v58q60 2 80 18t20 64v446q0 20 -7.5 25.5t-28.5 5.5q-41 0 -87 -31.5t-77 -88.5l-13 -24l-49 24l65 184h528l65 -184l-49 -24l-13 24q-31 57 -77 88.5t-87 31.5q-21 0 -28.5 -5.5t-7.5 -25.5v-446q0 -48 20 -64t80 -18v-58h-334z" />
    <glyph glyph-name="U" unicode="U" horiz-adv-x="722" 
d="M320 681v-58q-45 -2 -65.5 -19.5t-20.5 -55.5v-333q0 -152 154 -152q46 0 77.5 10.5t48.5 25.5t25.5 42t10.5 49t2 58v300q0 38 -20.5 55.5t-65.5 19.5v58h242v-58q-45 -2 -65.5 -19.5t-20.5 -55.5v-343q0 -218 -262 -218q-125 0 -192.5 53.5t-67.5 150.5v357
q0 38 -20.5 55.5t-65.5 19.5v58h300h6z" />
    <glyph glyph-name="V" unicode="V" horiz-adv-x="667" 
d="M-15 623v58h303v-58q-50 -2 -63.5 -10.5t-13.5 -28.5q0 -17 11 -46l149 -404l141 386q10 29 10 51q0 24 -15.5 36t-60.5 16v58h236v-58q-31 -5 -51.5 -24t-38.5 -66l-205 -539h-97l-199 531q-21 54 -40.5 72.5t-65.5 25.5z" />
    <glyph glyph-name="W" unicode="W" horiz-adv-x="944" 
d="M-5 623v58h274v-58q-61 -1 -61 -33q0 -15 13 -56l114 -371h2l103 312l-14 47q-17 57 -42.5 77t-59.5 24v58h282v-58q-67 -1 -67 -34q0 -9 14 -54l117 -365h2l104 355q9 30 9 51q0 23 -17.5 33.5t-54.5 13.5v58h236v-58q-45 -10 -64 -33.5t-41 -89.5l-164 -506h-82
l-124 391h-2l-125 -391h-82l-181 549q-15 45 -33 60t-56 20z" />
    <glyph glyph-name="X" unicode="X" horiz-adv-x="722" 
d="M711 681v-58q-92 -21 -159 -107l-117 -149l171 -230q55 -75 120 -79v-58h-332v58q75 8 75 31q0 12 -14 31l-126 176l-103 -135q-27 -35 -27 -61q0 -19 14.5 -29t55.5 -13v-58h-273v58q75 15 135 92l157 201l-160 221q-34 45 -91 51v58h308v-58q-63 -4 -63 -23
q0 -14 29 -54l86 -118l83 107q27 34 27 57q0 15 -13 21.5t-45 9.5v58h262z" />
    <glyph glyph-name="Y" unicode="Y" horiz-adv-x="667" 
d="M142 0v58q74 10 91.5 24t17.5 69v154l-147 242q-41 67 -108 76v58h301v-58q-70 0 -70 -26q0 -14 22 -50l105 -173l114 181q14 22 14 36t-12.5 20t-52.5 12v58h254v-58q-47 -5 -76 -28t-71 -86l-139 -208v-167q0 -42 18.5 -57.5t76.5 -18.5v-58h-338z" />
    <glyph glyph-name="Z" unicode="Z" horiz-adv-x="667" 
d="M33 482l90 199h480l15 -46l-423 -571h80q118 0 190 34t121 132l55 -16l-84 -214h-517l-14 49l421 568h-113q-165 0 -248 -156z" />
    <glyph glyph-name="bracketleft" unicode="[" horiz-adv-x="333" 
d="M254 681v-58h-18q-41 0 -50 -6.5t-9 -34.5v-648q0 -28 9 -34.5t50 -6.5h18v-58h-165v846h165z" />
    <glyph glyph-name="backslash" unicode="\" horiz-adv-x="278" 
d="M212 -13l-234 707h88l234 -707h-88z" />
    <glyph glyph-name="bracketright" unicode="]" horiz-adv-x="333" 
d="M79 -165v58h18q41 0 50 6.5t9 34.5v648q0 28 -9 34.5t-50 6.5h-18v58h165v-846h-165z" />
    <glyph glyph-name="asciicircum" unicode="^" horiz-adv-x="600" 
d="M170 309h-88l177 365h82l177 -365h-88l-130 271z" />
    <glyph glyph-name="underscore" unicode="_" horiz-adv-x="500" 
d="M500 -125h-500v50h500v-50z" />
    <glyph glyph-name="grave" unicode="`" 
d="M246 547h-55l-148 91q-35 22 -35 50q0 22 13 33.5t31 11.5q35 0 58 -28z" />
    <glyph glyph-name="a" unicode="a" horiz-adv-x="556" 
d="M528 79l33 -35q-41 -54 -119 -54q-76 0 -101 63q-82 -63 -167 -63q-68 0 -106.5 37t-38.5 87q0 79 76 123t228 59v65q0 44 -19 62.5t-69 18.5q-34 0 -57.5 -15t-25.5 -38q-4 -42 -16.5 -57t-39.5 -15t-40.5 17t-13.5 38q0 57 57 92.5t150 35.5q104 0 150 -36t46 -114
v-251q0 -39 32 -39q22 0 41 19zM333 106v138q-182 -18 -182 -112q0 -66 75 -66q62 0 107 40z" />
    <glyph glyph-name="b" unicode="b" horiz-adv-x="611" 
d="M228 386v-282q13 -19 41 -31.5t57 -12.5q64 0 94 51.5t30 133.5t-30 133.5t-94 51.5q-29 0 -57 -12.5t-41 -31.5zM106 0v546q0 30 -13.5 40t-62.5 13v58q82 5 148 33h50v-227q24 16 61 26.5t65 10.5q41 0 77 -12.5t69 -40t52.5 -81.5t19.5 -128q0 -106 -58.5 -177
t-156.5 -71q-101 0 -144 52l-13 -42h-94z" />
    <glyph glyph-name="c" unicode="c" horiz-adv-x="556" 
d="M482 144l53 -25q-74 -129 -245 -129q-115 0 -183 75t-68 186q0 117 74 183t186 66q86 0 145 -35.5t59 -100.5q0 -28 -16 -45t-45 -17q-28 0 -44.5 15.5t-16.5 40.5q0 6 1.5 17.5t1.5 16.5q0 22 -29 36t-67 14q-115 0 -115 -202q0 -91 38.5 -138.5t112.5 -47.5
q52 0 96.5 25.5t61.5 64.5z" />
    <glyph glyph-name="d" unicode="d" horiz-adv-x="611" 
d="M390 103v280q-9 17 -39.5 32t-58.5 15q-134 0 -134 -188q0 -30 5.5 -59t18 -58t37 -47t57.5 -18q32 0 66.5 13t47.5 30zM396 0v37q-66 -47 -143 -47q-109 0 -166 74t-57 182q0 105 56.5 179.5t166.5 74.5q81 0 137 -44v82q0 35 -17 47.5t-72 13.5v58q110 5 161 33h50
v-566q0 -33 15.5 -49t60.5 -17v-58h-192z" />
    <glyph glyph-name="e" unicode="e" horiz-adv-x="556" 
d="M515 280h-339q-3 -15 -3 -40q0 -81 34.5 -133.5t108.5 -52.5q110 0 161 97l49 -23q-63 -138 -236 -138q-115 -1 -183 74.5t-68 186.5q0 116 73 182.5t177 66.5q100 0 163 -55t63 -165zM182 338h199v15q0 37 -23 63t-69 26t-74 -28.5t-33 -75.5z" />
    <glyph glyph-name="f" unicode="f" horiz-adv-x="333" 
d="M30 419v64h76v25q0 80 50.5 126t137.5 46q47 0 76 -16.5t29 -49.5q0 -20 -12 -33.5t-32 -13.5q-26 0 -48 24.5t-39 24.5q-40 0 -40 -68v-65h80v-64h-80v-295q0 -33 15.5 -49t60.5 -17v-58h-274v58q45 1 60.5 17t15.5 49v295h-76z" />
    <glyph glyph-name="g" unicode="g" horiz-adv-x="556" 
d="M225 76l144 -10q75 -6 115.5 -36t40.5 -94q0 -47 -23 -81.5t-62.5 -53.5t-85 -28t-97.5 -9q-44 0 -84 5.5t-77.5 17.5t-60 36t-22.5 57q0 70 82 96q-37 17 -51 39.5t-14 54.5q0 44 28.5 76t72.5 41q-71 61 -71 138q0 85 62 130t137 45q25 0 60 -5q25 -5 33 -5t15 13
q37 73 112 73q26 0 41 -12.5t15 -36.5q0 -45 -45 -45q-10 0 -30 4q-18 4 -26 4q-12 0 -25 -6.5t-17 -15.5q37 -22 58.5 -60.5t21.5 -83.5q0 -72 -55 -124t-153 -52q-55 0 -92 15q-16 -2 -27 -13t-11 -28q0 -20 18.5 -31.5t72.5 -14.5zM320 -49l-112 8q-11 1 -30.5 4t-24.5 3
q-26 0 -48 -22.5t-22 -48.5q0 -37 46.5 -55t114.5 -18q177 0 177 76q0 26 -20.5 37.5t-80.5 15.5zM266 448q-90 0 -90 -124q0 -62 24.5 -93t65.5 -31t65.5 31t24.5 93q0 124 -90 124z" />
    <glyph glyph-name="h" unicode="h" horiz-adv-x="666" 
d="M112 124v422q0 30 -13.5 40t-62.5 13v58q82 5 148 33h50v-250q76 60 173 60q63 0 105 -32.5t42 -105.5v-238q0 -33 15.5 -49t60.5 -17v-58h-259v58q34 6 47.5 18t13.5 43v232q0 45 -16 62t-47 17q-70 0 -135 -58v-248q0 -33 15.5 -49t60.5 -17v-58h-274v58q45 1 60.5 17
t15.5 49z" />
    <glyph glyph-name="i" unicode="i" 
d="M30 399v58q82 5 148 33h50v-366q0 -33 15.5 -49t60.5 -17v-58h-274v58q45 1 60.5 17t15.5 49v222q0 30 -13.5 40t-62.5 13zM102 624q0 32 22 54t54 22t54 -22t22 -54t-22 -54t-54 -22t-54 22t-22 54z" />
    <glyph glyph-name="j" unicode="j" 
d="M30 399v58q82 5 148 33h50v-559q0 -43 -21.5 -77t-55.5 -52.5t-69.5 -28t-69.5 -9.5q-44 0 -74 17.5t-30 52.5q0 24 14.5 36.5t38.5 12.5q25 0 47.5 -24.5t47.5 -24.5q50 0 50 63v449q0 30 -13.5 40t-62.5 13zM102 624q0 32 22 54t54 22t54 -22t22 -54t-22 -54t-54 -22
t-54 22t-22 54z" />
    <glyph glyph-name="k" unicode="k" horiz-adv-x="667" 
d="M106 124v422q0 30 -13.5 40t-62.5 13v58q82 5 148 33h50v-401l128 92q23 17 23 29q0 9 -12.5 13.5t-47.5 8.5v58h259v-58q-38 -3 -64.5 -14t-66.5 -41l-66 -49l141 -213q17 -25 41.5 -41t44.5 -16h11v-58h-263v58q41 3 41 26q0 11 -23 46l-87 130l-59 -47v-89
q0 -33 15.5 -49t60.5 -17v-58h-274v58q45 1 60.5 17t15.5 49z" />
    <glyph glyph-name="l" unicode="l" 
d="M30 0v58q45 1 60.5 17t15.5 49v422q0 30 -13.5 40t-62.5 13v58q82 5 148 33h50v-566q0 -33 15.5 -49t60.5 -17v-58h-274z" />
    <glyph glyph-name="m" unicode="m" horiz-adv-x="944" 
d="M30 0v58q45 1 60.5 17t15.5 49v222q0 30 -13.5 40t-62.5 13v58q93 6 148 43h44v-60q63 60 158 60q51 0 82 -14.5t53 -51.5q31 27 79.5 46.5t88.5 19.5q41 0 71 -10.5t46 -25t25 -37.5t11 -41.5t2 -42.5v-219q0 -33 15.5 -49t60.5 -17v-58h-267v58q46 10 57.5 21.5
t11.5 48.5v237q0 33 -14 49t-50 16q-47 0 -97 -36l-22 -16v-254q0 -33 15.5 -49t60.5 -17v-58h-267v58q46 10 57.5 21.5t11.5 48.5v237q0 33 -14 49t-50 16q-47 0 -97 -36l-22 -16v-254q0 -33 15.5 -49t60.5 -17v-58h-274z" />
    <glyph glyph-name="n" unicode="n" horiz-adv-x="666" 
d="M112 124v222q0 30 -13.5 40t-62.5 13v58q93 6 148 43h44v-65q78 65 179 65q63 0 105 -32.5t42 -105.5v-238q0 -33 15.5 -49t60.5 -17v-58h-259v58q34 6 47.5 18t13.5 43v232q0 45 -16 62t-47 17q-70 0 -135 -58v-248q0 -33 15.5 -49t60.5 -17v-58h-274v58q45 1 60.5 17
t15.5 49z" />
    <glyph glyph-name="o" unicode="o" horiz-adv-x="612" 
d="M39 251q0 115 79 182t188 67t188 -67t79 -182q0 -110 -72.5 -185.5t-194.5 -75.5t-194.5 75.5t-72.5 185.5zM173 248q0 -97 30.5 -145.5t102.5 -48.5t102.5 48.5t30.5 145.5t-30.5 145.5t-102.5 48.5t-102.5 -48.5t-30.5 -145.5z" />
    <glyph glyph-name="p" unicode="p" horiz-adv-x="611" 
d="M30 -226v58q45 1 60.5 17t15.5 49v448q0 30 -13.5 40t-62.5 13v58q93 6 148 43h44v-55q34 32 65.5 43.5t73.5 11.5q37 0 71.5 -12t67.5 -39.5t52.5 -81.5t19.5 -129q0 -107 -59 -177.5t-155 -70.5q-63 0 -130 46v-138q0 -37 14.5 -51t61.5 -15v-58h-274zM228 386v-282
q40 -44 99 -44q63 0 93 51.5t30 133.5t-30 133.5t-93 51.5t-99 -44z" />
    <glyph glyph-name="q" unicode="q" horiz-adv-x="611" 
d="M390 -102v139q-53 -47 -137 -47q-101 0 -157.5 75t-56.5 181q0 108 56 181t158 73q95 0 143 -47l16 47h100v-602q0 -33 15.5 -49t60.5 -17v-58h-274v58q45 1 60.5 17t15.5 49zM390 104v282q-13 19 -41 31.5t-58 12.5q-64 0 -94 -51.5t-30 -133.5t30 -133.5t94 -51.5
q30 0 58 12.5t41 31.5z" />
    <glyph glyph-name="r" unicode="r" horiz-adv-x="444" 
d="M112 124v222q0 30 -13.5 40t-62.5 13v58q93 6 148 43h44v-67q67 67 140 67q82 0 82 -70q0 -25 -14 -41.5t-38 -16.5q-25 0 -49 20t-47 20q-21 0 -42 -11.5t-26 -28.5v-248q0 -33 15.5 -49t60.5 -17v-58h-274v58q45 1 60.5 17t15.5 49z" />
    <glyph glyph-name="s" unicode="s" horiz-adv-x="556" 
d="M78 0l-31 163l54 11q57 -120 187 -120q44 0 74.5 19t30.5 51q0 27 -19 42t-72 25l-82 16q-74 15 -113.5 44.5t-38.5 90.5q1 74 56.5 116t142.5 42q77 0 142 -39l13 29h35l23 -137l-53 -9q-52 98 -154 98q-37 0 -63 -17.5t-26 -43.5q0 -39 58 -51l129 -27
q68 -14 103 -44.5t35 -93.5q0 -77 -59.5 -126t-162.5 -49q-92 0 -155 43l-12 -33h-42z" />
    <glyph glyph-name="t" unicode="t" horiz-adv-x="389" 
d="M106 116v310h-76v58q60 4 93 46t51 117h54v-157h134v-64h-134v-280q0 -42 13.5 -61t45.5 -19q41 0 91 36l36 -42q-76 -70 -177 -70q-131 0 -131 126z" />
    <glyph glyph-name="u" unicode="u" horiz-adv-x="667" 
d="M112 128v218q0 30 -13.5 40t-62.5 13v58q82 5 148 33h50v-351q0 -45 16 -62t47 -17q70 0 135 58v228q0 30 -13.5 40t-62.5 13v58q82 5 148 33h50v-366q0 -33 15.5 -49t61.5 -17v-58h-193v55q-78 -65 -179 -65q-63 0 -105 32.5t-42 105.5z" />
    <glyph glyph-name="v" unicode="v" horiz-adv-x="500" 
d="M285 -6h-82l-150 378q-24 60 -63 60h-5v58h247v-52q-59 0 -59 -31q0 -20 18 -66l83 -218l78 212q12 31 12 60q0 39 -60 43v52h211v-58h-2q-6 0 -17.5 -4t-33.5 -26t-37 -59z" />
    <glyph glyph-name="w" unicode="w" horiz-adv-x="778" 
d="M300 -6h-104l-109 370q-8 29 -27 46t-29.5 19.5t-16.5 2.5h-2v58h232v-52q-28 -5 -38 -12t-10 -19q0 -14 14 -61l67 -236h2l60 210q8 30 8 48q0 55 -66 70v52h230v-52q-29 -4 -38.5 -11t-9.5 -22q0 -14 10 -48l72 -247h2l66 223q9 31 9 51q0 24 -11 34.5t-42 19.5v52h197
v-58h-2q-5 0 -17 -4t-30.5 -22t-27.5 -45l-121 -367h-104l-81 274h-2z" />
    <glyph glyph-name="x" unicode="x" horiz-adv-x="556" 
d="M0 0v58q40 12 65 34t70 75l73 86l-93 124q-21 27 -50 41t-43 14h-2v58h262v-52q-48 0 -48 -22q0 -8 16 -30l51 -71l55 64q21 25 21 40q0 16 -42 19v52h204v-58h-2q-52 0 -121 -74l-80 -86l135 -167q37 -45 85 -47v-58h-279v52q36 1 48.5 7t12.5 19q0 10 -28 47l-62 81
l-83 -100q-16 -19 -16 -31q0 -20 54 -23v-52h-203z" />
    <glyph glyph-name="y" unicode="y" horiz-adv-x="556" 
d="M243 -5l-166 373q-14 33 -32.5 46.5t-48.5 17.5v58h268v-58q-38 -2 -51.5 -8.5t-13.5 -19.5q0 -19 15 -53l92 -214l81 204q13 33 13 50q0 18 -11.5 26t-50.5 15v58h222v-58q-36 -10 -57.5 -30.5t-37.5 -56.5l-191 -429q-35 -78 -76 -115t-104 -37q-35 0 -61 18.5
t-26 54.5q0 24 15.5 42.5t40.5 18.5q24 0 42 -20t34 -20q37 0 64 56z" />
    <glyph glyph-name="z" unicode="z" horiz-adv-x="556" 
d="M484 490l21 -52l-313 -375q18 -5 45 -5q177 0 243 123l49 -16l-56 -165h-427l-19 49l318 380q-14 3 -37 3q-154 0 -207 -94l-9 -16l-48 17l56 151h384z" />
    <glyph glyph-name="braceleft" unicode="{" horiz-adv-x="333" 
d="M116 -28v174q0 49 -15.5 74t-59.5 38q44 13 59.5 38t15.5 74v174q0 83 37.5 110t126.5 27v-12q-42 -11 -59 -39.5t-17 -81.5v-164q0 -56 -16.5 -84.5t-65.5 -40.5v-2q49 -12 65.5 -40.5t16.5 -84.5v-164q0 -53 17 -81.5t59 -39.5v-12q-89 0 -126.5 27t-37.5 110z" />
    <glyph glyph-name="bar" unicode="|" horiz-adv-x="222" 
d="M67 -13v707h88v-707h-88z" />
    <glyph glyph-name="braceright" unicode="}" horiz-adv-x="333" 
d="M217 544v-174q0 -49 15.5 -74t59.5 -38q-44 -13 -59.5 -38t-15.5 -74v-174q0 -83 -37.5 -110t-126.5 -27v12q42 11 59 39.5t17 81.5v164q0 56 16.5 84.5t65.5 40.5v2q-49 12 -65.5 40.5t-16.5 84.5v164q0 53 -17 81.5t-59 39.5v12q89 0 126.5 -27t37.5 -110z" />
    <glyph glyph-name="asciitilde" unicode="~" horiz-adv-x="600" 
d="M105 174l-36 69q41 86 123 86q47 0 136 -42q57 -27 83 -27q39 0 84 72l36 -69q-33 -47 -61 -66t-64 -19q-42 0 -102 33q-67 36 -115 36q-53 0 -84 -73z" />
    <glyph glyph-name="uni00A0" unicode="&#xa0;" horiz-adv-x="306" 
 />
    <glyph glyph-name="exclamdown" unicode="&#xa1;" 
d="M196 290v-36q0 -67 28 -202t28 -158q0 -104 -85 -104t-85 104q0 23 28 158t28 202v36h58zM243 414q0 -32 -22.5 -54t-53.5 -22t-53.5 22t-22.5 54t22.5 54t53.5 22t53.5 -22t22.5 -54z" />
    <glyph glyph-name="cent" unicode="&#xa2;" horiz-adv-x="612" 
d="M293 -37v116q-109 6 -172 79t-63 181q0 100 61.5 171t173.5 78v110h58v-110q81 -6 131.5 -40.5t50.5 -93.5q0 -29 -15 -47t-39 -18q-31 0 -42 15t-14 52q-3 38 -27.5 56t-76.5 18q-50 0 -79 -27t-38.5 -68t-9.5 -103q0 -84 38 -136.5t120 -52.5q87 0 153 93l51 -25
q-69 -118 -203 -132v-116h-58z" />
    <glyph glyph-name="sterling" unicode="&#xa3;" horiz-adv-x="612" 
d="M121 48q49 0 74 23t27 45q-33 19 -88 19q-31 0 -49.5 -12t-18.5 -34q0 -15 13 -28t42 -13zM39 360l16 46h96q-14 40 -14 83q0 77 65 139t169 62q78 0 135.5 -38t57.5 -108q0 -33 -14.5 -55t-42.5 -22q-53 0 -53 54q0 11 8 33t8 28q0 8 -5.5 16.5t-16.5 18t-33.5 15.5
t-51.5 6q-54 0 -88 -35t-34 -104q0 -44 20 -93h186l-18 -46h-149q46 -94 46 -166q0 -17 -3 -56q97 -60 140 -60q27 0 42 15.5t15 31.5q0 43 -53 43q-8 0 -18 -2l-13 45q23 9 43 9q47 0 79 -26.5t32 -78.5q0 -51 -33 -88t-90 -37q-44 0 -81.5 18.5t-94.5 67.5
q-60 -86 -168 -86q-57 0 -86 27t-29 70q0 49 33.5 77.5t103.5 28.5q41 0 77 -13q0 39 -45 148l-13 32h-125z" />
    <glyph glyph-name="currency" unicode="&#xa4;" horiz-adv-x="612" 
d="M152 337q0 -72 43 -116t111 -44t111 44t43 116t-43 116t-111 44t-111 -44t-43 -116zM52 131l57 57q-51 65 -51 149t51 149l-57 57l48 48l57 -57q65 51 149 51t149 -51l57 57l48 -48l-57 -57q51 -65 51 -149t-51 -149l57 -57l-48 -48l-57 57q-65 -51 -149 -51t-149 51
l-57 -57z" />
    <glyph glyph-name="yen" unicode="&#xa5;" horiz-adv-x="612" 
d="M439 58v-58h-297v58q68 10 84 23t16 63v19h-168v64h168v69l-6 10h-162v64h127l-100 170q-40 68 -99 76v58h252v-58q-64 0 -64 -26q0 -12 20 -49l102 -186l113 199q11 19 11 30q0 14 -11.5 20t-48.5 12v58h234v-58q-43 -5 -72 -29.5t-76 -100.5l-72 -116h130v-64h-162
l-6 -10v-69h168v-64h-168v-29q0 -42 17 -57.5t70 -18.5z" />
    <glyph glyph-name="brokenbar" unicode="&#xa6;" horiz-adv-x="222" 
d="M67 -13v264h88v-264h-88zM67 430v264h88v-264h-88z" />
    <glyph glyph-name="section" unicode="&#xa7;" horiz-adv-x="556" 
d="M320 184l-126 36q-58 17 -88.5 44.5t-30.5 77.5q0 70 63 110q-51 41 -51 96q0 69 54 107.5t136 38.5q77 0 135 -37.5t58 -95.5q0 -24 -15 -38.5t-37 -14.5q-52 0 -52 62v12q0 28 -21.5 41t-71.5 13q-41 0 -66.5 -16.5t-25.5 -44.5q0 -20 15 -32.5t54 -24.5l109 -32
q62 -18 93.5 -50t31.5 -86q0 -58 -44 -104q44 -32 44 -101q0 -75 -64 -116.5t-152 -41.5q-84 0 -150 37.5t-66 102.5q0 29 14.5 47t41.5 18q26 0 40 -17.5t14 -44.5v-33q0 -22 35 -37t72 -15q45 0 83 18t38 57q0 24 -15.5 38.5t-54.5 25.5zM332 383l-135 41q-34 -15 -34 -53
q0 -29 41 -42l137 -42q29 -9 41 -9q3 0 6 4t5.5 13t2.5 20q0 26 -14 41.5t-50 26.5z" />
    <glyph glyph-name="dieresis" unicode="&#xa8;" 
d="M-2 621q0 26 19 45t45 19t45 -19t19 -45t-19 -45t-45 -19t-45 19t-19 45zM208 621q0 26 19 45t45 19t45 -19t19 -45t-19 -45t-45 -19t-45 19t-19 45z" />
    <glyph glyph-name="copyright" unicode="&#xa9;" horiz-adv-x="800" 
d="M547 260h22l-15 -73q0 -2 -1 -4l-1.5 -3t-2.5 -2.5t-3.5 -2.5t-4.5 -2.5t-4.5 -2t-5.5 -2t-6 -2.5q-68 -19 -106 -19q-99 0 -157.5 52t-58.5 152q0 34 12 67t37 63t70 48.5t105 18.5q45 0 103 -18q23 -7 23 -22v-73h-24q-19 89 -103 89q-58 0 -88 -46.5t-31 -123.5
q-1 -83 28.5 -133t93.5 -50q82 0 118 89zM47 340q0 147 103.5 250.5t249.5 103.5t249.5 -103.5t103.5 -250.5q0 -146 -103.5 -249.5t-249.5 -103.5t-249.5 103.5t-103.5 249.5zM123 340q0 -123 78.5 -203t198.5 -80t198.5 80t78.5 203q0 124 -78.5 204t-198.5 80t-198.5 -80
t-78.5 -204z" />
    <glyph glyph-name="ordfeminine" unicode="&#xaa;" horiz-adv-x="361" 
d="M300 592v-145q0 -23 21 -23q14 0 26 11l22 -30q-27 -33 -78 -33q-54 0 -69 39q-53 -39 -111 -39q-45 0 -70.5 22.5t-25.5 52.5q0 49 49 76t148 37v39q0 24 -12.5 34.5t-44.5 10.5q-20 0 -34.5 -8t-15.5 -22q-3 -25 -11 -33.5t-27 -8.5q-20 0 -29 10t-9 23q0 35 37.5 57
t100.5 22q71 0 102 -22t31 -70zM212 448v78q-109 -11 -109 -65q0 -37 44 -37t65 24z" />
    <glyph glyph-name="guillemotleft" unicode="&#xab;" horiz-adv-x="500" 
d="M458 441q0 -18 -45 -82.5t-76 -94.5q31 -30 76 -94.5t45 -82.5q0 -10 -8 -10t-19 11q-100 100 -204 176q104 76 204 176q11 11 19 11t8 -10zM273 441q0 -18 -45 -82.5t-76 -94.5q31 -30 76 -94.5t45 -82.5q0 -10 -8 -10t-19 11q-100 100 -204 176q104 76 204 176
q11 11 19 11t8 -10z" />
    <glyph glyph-name="logicalnot" unicode="&#xac;" horiz-adv-x="600" 
d="M465 108v203h-418v88h506v-291h-88z" />
    <glyph glyph-name="uni00AD" unicode="&#xad;" horiz-adv-x="333" 
d="M20 212l43 104h250l-43 -104h-250z" />
    <glyph glyph-name="registered" unicode="&#xae;" horiz-adv-x="800" 
d="M277 211v270q0 21 -6.5 27t-36.5 8v19h192q52 0 85.5 -24t33.5 -72q0 -35 -22.5 -63.5t-58.5 -40.5l77 -117q28 -42 54 -42v-18h-91q-13 0 -26 15.5t-39 56.5l-59 94h-15v-113q0 -21 6.5 -27t36.5 -8v-18h-174v18q30 2 36.5 8t6.5 27zM365 511v-163h32q31 0 45.5 25
t14.5 62q0 76 -59 76h-33zM47 340q0 147 103.5 250.5t249.5 103.5t249.5 -103.5t103.5 -250.5q0 -146 -103.5 -249.5t-249.5 -103.5t-249.5 103.5t-103.5 249.5zM123 340q0 -123 78.5 -203t198.5 -80t198.5 80t78.5 203q0 124 -78.5 204t-198.5 80t-198.5 -80t-78.5 -204z
" />
    <glyph glyph-name="macron" unicode="&#xaf;" 
d="M1 584v70h332v-70h-332z" />
    <glyph glyph-name="degree" unicode="&#xb0;" horiz-adv-x="400" 
d="M57 541q0 59 42 101t101 42t101 -42t42 -101t-42 -101t-101 -42t-101 42t-42 101zM115 541q0 -35 25 -60t60 -25t60 25t25 60t-25 60t-60 25t-60 -25t-25 -60z" />
    <glyph glyph-name="plusminus" unicode="&#xb1;" horiz-adv-x="600" 
d="M256 359v147h88v-147h209v-88h-209v-148h-88v148h-209v88h209zM47 0v88h506v-88h-506z" />
    <glyph glyph-name="twosuperior" unicode="&#xb2;" horiz-adv-x="398" 
d="M36 268l-8 62l88 61q124 85 124 177q0 35 -17.5 55.5t-52.5 20.5q-31 0 -52 -14t-21 -31q0 -10 10.5 -22t10.5 -25q0 -38 -47 -38t-47 49q0 51 43.5 86t119.5 35q39 0 74 -10.5t62 -40t27 -73.5q0 -47 -32 -84.5t-115 -88.5l-77 -47v-2h87q62 0 83.5 14t33.5 52l44 -7
l-34 -129h-304z" />
    <glyph glyph-name="threesuperior" unicode="&#xb3;" horiz-adv-x="398" 
d="M159 469v44h22q37 0 57 19t20 52q0 30 -18.5 45t-46.5 15q-26 0 -45 -9.5t-19 -28.5q0 -4 3 -14t3 -21q0 -34 -49 -34q-45 0 -45 42q0 47 42 76t111 29q77 0 117.5 -29.5t40.5 -72.5q0 -65 -105 -89v-2q53 -2 89 -27.5t36 -74.5q0 -54 -42.5 -90.5t-140.5 -36.5
q-79 0 -119.5 28t-40.5 66q0 49 49 51q20 1 32.5 -9t12.5 -27q0 -8 -3 -17.5t-3 -16.5q0 -16 19.5 -25.5t48.5 -9.5q38 0 62.5 24.5t24.5 64.5q0 68 -72 74z" />
    <glyph glyph-name="acute" unicode="&#xb4;" 
d="M143 547h-55l136 158q23 28 58 28q18 0 31 -11.5t13 -33.5q0 -28 -35 -50z" />
    <glyph glyph-name="mu" unicode="&#xb5;" horiz-adv-x="667" 
d="M112 150v196q0 30 -13.5 40t-62.5 13v58q82 5 148 33h50v-351q0 -45 16 -62t47 -17q70 0 135 58v228q0 30 -13.5 40t-62.5 13v58q82 5 148 33h50v-366q0 -33 15.5 -49t61.5 -17v-58h-193v55q-78 -65 -153 -65q-51 0 -77 32l-2 -2q-1 -31 10 -90t11 -82q0 -74 -67 -74
t-67 74q0 16 9.5 112t9.5 190z" />
    <glyph glyph-name="paragraph" unicode="&#xb6;" horiz-adv-x="620" 
d="M243 127v154q-86 0 -132.5 56t-46.5 149q0 103 48.5 149t160.5 46h283v-24q-59 -8 -68 -17q-11 -10 -10 -56v-30v-427v-24q-1 -50 8 -60t61 -18q6 0 9 -1v-24h-166v647h-59v-647h-167v24q3 1 9 1q53 9 62 18q9 12 8 60v24zM243 339v284q-49 0 -70 -31t-21 -108
q0 -69 27 -107t64 -38z" />
    <glyph glyph-name="periodcentered" unicode="&#xb7;" horiz-adv-x="306" 
d="M77 299q0 31 22.5 53.5t53.5 22.5t53.5 -22.5t22.5 -53.5t-22.5 -53.5t-53.5 -22.5t-53.5 22.5t-22.5 53.5z" />
    <glyph glyph-name="cedilla" unicode="&#xb8;" 
d="M159 0h41l-27 -66q15 5 37 5q34 0 59.5 -17.5t25.5 -52.5q0 -45 -39 -66t-97 -21q-51 0 -92 18l17 35q26 -13 60 -13q57 0 57 39q0 38 -46 38q-13 0 -29 -4l-10 9z" />
    <glyph glyph-name="onesuperior" unicode="&#xb9;" horiz-adv-x="398" 
d="M64 268v40h24q34 0 45 10.5t11 36.5v213q0 35 -12.5 42.5t-70.5 11.5v40q86 1 151 22h36v-333q0 -24 14 -33.5t64 -9.5h11v-40h-273z" />
    <glyph glyph-name="ordmasculine" unicode="&#xba;" horiz-adv-x="398" 
d="M22 532q0 70 52.5 111t125.5 41q72 0 124 -41t52 -111q0 -68 -48 -114t-128 -46q-82 0 -130 46t-48 114zM116 529q0 -58 19 -87.5t64 -29.5t64 29.5t19 87.5q0 57 -19 86t-64 29t-64 -29t-19 -86z" />
    <glyph glyph-name="guillemotright" unicode="&#xbb;" horiz-adv-x="500" 
d="M42 441q0 10 8 10t19 -11q100 -100 204 -176q-104 -76 -204 -176q-11 -11 -19 -11t-8 10q0 18 45 82.5t76 94.5q-31 30 -76 94.5t-45 82.5zM227 441q0 10 8 10t19 -11q100 -100 204 -176q-104 -76 -204 -176q-11 -11 -19 -11t-8 10q0 18 45 82.5t76 94.5q-31 30 -76 94.5
t-45 82.5z" />
    <glyph glyph-name="onequarter" unicode="&#xbc;" horiz-adv-x="916" 
d="M544 104l-19 37q191 240 215 275h73v-266h87l-19 -46h-68v-27q0 -18 11 -26t44 -11v-40h-198v40q33 3 44 12t11 31v21h-181zM725 150v162h-4q-48 -74 -129 -162h133zM226 -10l448 694h67l-448 -694h-67zM64 268v40h24q34 0 45 10.5t11 36.5v213q0 35 -12.5 42.5
t-70.5 11.5v40q86 1 151 22h36v-333q0 -24 14 -33.5t64 -9.5h11v-40h-273z" />
    <glyph glyph-name="onehalf" unicode="&#xbd;" horiz-adv-x="916" 
d="M205 -10l448 694h67l-448 -694h-67zM64 268v40h24q34 0 45 10.5t11 36.5v213q0 35 -12.5 42.5t-70.5 11.5v40q86 1 151 22h36v-333q0 -24 14 -33.5t64 -9.5h11v-40h-273zM554 0l-8 62l88 61q124 85 124 177q0 35 -17.5 55.5t-52.5 20.5q-31 0 -52 -14t-21 -31
q0 -10 10.5 -22t10.5 -25q0 -38 -47 -38t-47 49q0 51 43.5 86t119.5 35q39 0 74 -10.5t62 -40t27 -73.5q0 -47 -32 -84.5t-115 -88.5l-77 -47v-2h87q62 0 83.5 14t33.5 52l44 -7l-34 -129h-304z" />
    <glyph glyph-name="threequarters" unicode="&#xbe;" horiz-adv-x="916" 
d="M226 -10l448 694h67l-448 -694h-67zM159 469v44h22q37 0 57 19t20 52q0 30 -18.5 45t-46.5 15q-26 0 -45 -9.5t-19 -28.5q0 -4 3 -14t3 -21q0 -34 -49 -34q-45 0 -45 42q0 47 42 76t111 29q77 0 117.5 -29.5t40.5 -72.5q0 -65 -105 -89v-2q53 -2 89 -27.5t36 -74.5
q0 -54 -42.5 -90.5t-140.5 -36.5q-79 0 -119.5 28t-40.5 66q0 49 49 51q20 1 32.5 -9t12.5 -27q0 -8 -3 -17.5t-3 -16.5q0 -16 19.5 -25.5t48.5 -9.5q38 0 62.5 24.5t24.5 64.5q0 68 -72 74zM544 104l-19 37q191 240 215 275h73v-266h87l-19 -46h-68v-27q0 -18 11 -26
t44 -11v-40h-198v40q33 3 44 11t11 26v27h-181zM725 150v162h-4q-48 -74 -129 -162h133z" />
    <glyph glyph-name="questiondown" unicode="&#xbf;" horiz-adv-x="611" 
d="M345 290v-21q0 -53 -6.5 -80.5t-20 -43.5t-47.5 -40q-47 -34 -62 -60t-15 -67q0 -63 35.5 -93.5t91.5 -30.5q48 0 81 18t33 46q0 15 -6 35t-6 34q0 29 19 44t46 15q38 0 56.5 -25t18.5 -58q0 -67 -68 -120t-186 -53q-42 0 -83.5 9t-83.5 29t-68 60t-26 94q0 25 5 46.5
t19.5 47.5t46.5 50t80 43q41 16 55.5 40.5t20.5 80.5h70zM386 414q0 -32 -22 -54t-54 -22t-54 22t-22 54t22 54t54 22t54 -22t22 -54z" />
    <glyph glyph-name="Agrave" unicode="&#xc0;" horiz-adv-x="722" 
d="M-17 0v58q38 10 58 31t45 79l220 522h116l220 -544q20 -49 38 -66t59 -22v-58h-308v58q88 3 88 31q0 10 -12 41l-48 122h-252l-37 -95q-15 -37 -15 -57q0 -35 77 -42v-58h-249zM334 574l-101 -258h202zM440 718h-55l-148 91q-35 22 -35 50q0 22 13 33.5t31 11.5
q35 0 58 -28z" />
    <glyph glyph-name="Aacute" unicode="&#xc1;" horiz-adv-x="722" 
d="M-17 0v58q38 10 58 31t45 79l220 522h116l220 -544q20 -49 38 -66t59 -22v-58h-308v58q88 3 88 31q0 10 -12 41l-48 122h-252l-37 -95q-15 -37 -15 -57q0 -35 77 -42v-58h-249zM334 574l-101 -258h202zM337 718h-55l136 158q23 28 58 28q18 0 31 -11.5t13 -33.5
q0 -28 -35 -50z" />
    <glyph glyph-name="Acircumflex" unicode="&#xc2;" horiz-adv-x="722" 
d="M-17 0v58q38 10 58 31t45 79l220 522h116l220 -544q20 -49 38 -66t59 -22v-58h-308v58q88 3 88 31q0 10 -12 41l-48 122h-252l-37 -95q-15 -37 -15 -57q0 -35 77 -42v-58h-249zM334 574l-101 -258h202zM192 718l122 176h94l122 -176h-57l-112 100l-112 -100h-57z" />
    <glyph glyph-name="Atilde" unicode="&#xc3;" horiz-adv-x="722" 
d="M-17 0v58q38 10 58 31t45 79l220 522h116l220 -544q20 -49 38 -66t59 -22v-58h-308v58q88 3 88 31q0 10 -12 41l-48 122h-252l-37 -95q-15 -37 -15 -57q0 -35 77 -42v-58h-249zM334 574l-101 -258h202zM218 736h-40q9 56 39 90.5t79 34.5q38 0 73 -19l37 -20
q21 -11 42 -11q18 0 30 10t23 40h43q-29 -126 -122 -126q-30 0 -67 17l-34 16q-36 17 -55 17q-33 0 -48 -49z" />
    <glyph glyph-name="Adieresis" unicode="&#xc4;" horiz-adv-x="722" 
d="M-17 0v58q38 10 58 31t45 79l220 522h116l220 -544q20 -49 38 -66t59 -22v-58h-308v58q88 3 88 31q0 10 -12 41l-48 122h-252l-37 -95q-15 -37 -15 -57q0 -35 77 -42v-58h-249zM334 574l-101 -258h202zM192 792q0 26 19 45t45 19t45 -19t19 -45t-19 -45t-45 -19t-45 19
t-19 45zM402 792q0 26 19 45t45 19t45 -19t19 -45t-19 -45t-45 -19t-45 19t-19 45z" />
    <glyph glyph-name="Aring" unicode="&#xc5;" horiz-adv-x="722" 
d="M-17 0v58q38 10 58 31t45 79l220 522h116l220 -544q20 -49 38 -66t59 -22v-58h-308v58q88 3 88 31q0 10 -12 41l-48 122h-252l-37 -95q-15 -37 -15 -57q0 -35 77 -42v-58h-249zM334 574l-101 -258h202zM254 821q0 44 31.5 75.5t75.5 31.5t75.5 -31.5t31.5 -75.5
t-31.5 -75.5t-75.5 -31.5t-75.5 31.5t-31.5 75.5zM306 821q0 -23 16 -39t39 -16t39 16t16 39t-16 39t-39 16t-39 -16t-16 -39z" />
    <glyph glyph-name="AE" unicode="&#xc6;" horiz-adv-x="1000" 
d="M449 133v119h-206l-72 -112q-16 -24 -16 -45q0 -33 76 -37v-58h-265v58q35 11 57 29t56 68l355 526h439h2l78 -195l-49 -29q-53 94 -101.5 124t-154.5 30q-38 0 -51.5 -12t-13.5 -49v-143h31q62 0 82.5 23t25.5 95h52v-306h-52q-4 64 -31.5 91t-86.5 27h-21v-213
q0 -35 15 -47.5t58 -12.5q81 0 142 39.5t125 144.5l52 -25l-88 -223h-524v58q45 2 65.5 19.5t20.5 55.5zM285 316h164v267h-2z" />
    <glyph glyph-name="Ccedilla" unicode="&#xc7;" horiz-adv-x="722" 
d="M535 644l18 37h50l64 -226l-57 -17q-42 95 -104 141.5t-127 46.5q-89 0 -140.5 -76.5t-51.5 -208.5q0 -124 56.5 -204t148.5 -80q145 0 231 146l58 -28q-42 -88 -113 -135t-159 -52l-22 -54q15 5 37 5q34 0 59.5 -17.5t25.5 -52.5q0 -45 -39 -66t-97 -21q-51 0 -92 18
l17 35q26 -13 60 -13q57 0 57 39q0 38 -46 38q-13 0 -29 -4l-10 9l37 83q-149 7 -237.5 108.5t-88.5 245.5q0 147 91 250t233 103q92 0 170 -52v2z" />
    <glyph glyph-name="Egrave" unicode="&#xc8;" horiz-adv-x="722" 
d="M26 0v58q45 2 65.5 19.5t20.5 55.5v415q0 38 -20.5 55.5t-65.5 19.5v58h536l92 -197l-51 -26q-94 153 -276 153q-47 0 -64 -12t-17 -48v-144h59q51 0 68.5 26t22.5 97h52v-318h-52q-8 74 -29 99.5t-81 25.5h-40v-212q0 -37 18 -49t74 -12q90 0 159.5 40.5t135.5 149.5
l53 -25l-103 -229h-557zM420 718h-55l-148 91q-35 22 -35 50q0 22 13 33.5t31 11.5q35 0 58 -28z" />
    <glyph glyph-name="Eacute" unicode="&#xc9;" horiz-adv-x="722" 
d="M26 0v58q45 2 65.5 19.5t20.5 55.5v415q0 38 -20.5 55.5t-65.5 19.5v58h536l92 -197l-51 -26q-94 153 -276 153q-47 0 -64 -12t-17 -48v-144h59q51 0 68.5 26t22.5 97h52v-318h-52q-8 74 -29 99.5t-81 25.5h-40v-212q0 -37 18 -49t74 -12q90 0 159.5 40.5t135.5 149.5
l53 -25l-103 -229h-557zM317 718h-55l136 158q23 28 58 28q18 0 31 -11.5t13 -33.5q0 -28 -35 -50z" />
    <glyph glyph-name="Ecircumflex" unicode="&#xca;" horiz-adv-x="722" 
d="M26 0v58q45 2 65.5 19.5t20.5 55.5v415q0 38 -20.5 55.5t-65.5 19.5v58h536l92 -197l-51 -26q-94 153 -276 153q-47 0 -64 -12t-17 -48v-144h59q51 0 68.5 26t22.5 97h52v-318h-52q-8 74 -29 99.5t-81 25.5h-40v-212q0 -37 18 -49t74 -12q90 0 159.5 40.5t135.5 149.5
l53 -25l-103 -229h-557zM172 718l122 176h94l122 -176h-57l-112 100l-112 -100h-57z" />
    <glyph glyph-name="Edieresis" unicode="&#xcb;" horiz-adv-x="722" 
d="M26 0v58q45 2 65.5 19.5t20.5 55.5v415q0 38 -20.5 55.5t-65.5 19.5v58h536l92 -197l-51 -26q-94 153 -276 153q-47 0 -64 -12t-17 -48v-144h59q51 0 68.5 26t22.5 97h52v-318h-52q-8 74 -29 99.5t-81 25.5h-40v-212q0 -37 18 -49t74 -12q90 0 159.5 40.5t135.5 149.5
l53 -25l-103 -229h-557zM172 792q0 26 19 45t45 19t45 -19t19 -45t-19 -45t-45 -19t-45 19t-19 45zM382 792q0 26 19 45t45 19t45 -19t19 -45t-19 -45t-45 -19t-45 19t-19 45z" />
    <glyph glyph-name="Igrave" unicode="&#xcc;" 
d="M14 0v58q45 2 65.5 19.5t20.5 55.5v415q0 38 -20.5 55.5t-65.5 19.5v58h306v-58q-45 -2 -65.5 -19.5t-20.5 -55.5v-415q0 -38 20.5 -55.5t65.5 -19.5v-58h-306zM246 718h-55l-148 91q-35 22 -35 50q0 22 13 33.5t31 11.5q35 0 58 -28z" />
    <glyph glyph-name="Iacute" unicode="&#xcd;" 
d="M14 0v58q45 2 65.5 19.5t20.5 55.5v415q0 38 -20.5 55.5t-65.5 19.5v58h306v-58q-45 -2 -65.5 -19.5t-20.5 -55.5v-415q0 -38 20.5 -55.5t65.5 -19.5v-58h-306zM143 718h-55l136 158q23 28 58 28q18 0 31 -11.5t13 -33.5q0 -28 -35 -50z" />
    <glyph glyph-name="Icircumflex" unicode="&#xce;" 
d="M14 0v58q45 2 65.5 19.5t20.5 55.5v415q0 38 -20.5 55.5t-65.5 19.5v58h306v-58q-45 -2 -65.5 -19.5t-20.5 -55.5v-415q0 -38 20.5 -55.5t65.5 -19.5v-58h-306zM-2 718l122 176h94l122 -176h-57l-112 100l-112 -100h-57z" />
    <glyph glyph-name="Idieresis" unicode="&#xcf;" 
d="M14 0v58q45 2 65.5 19.5t20.5 55.5v415q0 38 -20.5 55.5t-65.5 19.5v58h306v-58q-45 -2 -65.5 -19.5t-20.5 -55.5v-415q0 -38 20.5 -55.5t65.5 -19.5v-58h-306zM-2 792q0 26 19 45t45 19t45 -19t19 -45t-19 -45t-45 -19t-45 19t-19 45zM208 792q0 26 19 45t45 19t45 -19
t19 -45t-19 -45t-45 -19t-45 19t-19 45z" />
    <glyph glyph-name="Eth" unicode="&#xd0;" horiz-adv-x="778" 
d="M26 0v58q45 2 65.5 19.5t20.5 55.5v206h-74v64h74v145q0 38 -20.5 55.5t-65.5 19.5v58h366q71 0 129 -18.5t94 -49.5t61.5 -66.5t38 -76t17.5 -71.5t5 -58q0 -38 -6.5 -77t-28.5 -88.5t-57.5 -86.5t-99.5 -63t-148 -26h-371zM450 403v-64h-204v-217q0 -22 5 -32.5t28 -18
t71 -7.5q49 0 90 14t76 45.5t55 90t20 139.5q0 112 -60.5 188t-184.5 76q-66 0 -83 -13t-17 -59v-142h204z" />
    <glyph glyph-name="Ntilde" unicode="&#xd1;" horiz-adv-x="722" 
d="M26 0v58q45 2 65.5 19.5t20.5 55.5v415q0 38 -20.5 55.5t-65.5 19.5v58h247l259 -462h2v329q0 38 -20.5 55.5t-65.5 19.5v58h248v-58q-45 -2 -65.5 -19.5t-20.5 -55.5v-548h-88l-332 576h-2v-443q0 -38 20.5 -55.5t65.5 -19.5v-58h-248zM218 736h-40q9 56 39 90.5
t79 34.5q38 0 73 -19l37 -20q21 -11 42 -11q18 0 30 10t23 40h43q-29 -126 -122 -126q-30 0 -67 17l-34 16q-36 17 -55 17q-33 0 -48 -49z" />
    <glyph glyph-name="Ograve" unicode="&#xd2;" horiz-adv-x="778" 
d="M389 57q91 0 146.5 79.5t55.5 203.5q0 133 -54.5 208.5t-147.5 75.5t-147.5 -75.5t-54.5 -208.5q0 -124 55.5 -203.5t146.5 -79.5zM41 340q0 149 95 251.5t253 102.5t253 -102.5t95 -251.5t-95 -251t-253 -102t-253 102t-95 251zM468 718h-55l-148 91q-35 22 -35 50
q0 22 13 33.5t31 11.5q35 0 58 -28z" />
    <glyph glyph-name="Oacute" unicode="&#xd3;" horiz-adv-x="778" 
d="M389 57q91 0 146.5 79.5t55.5 203.5q0 133 -54.5 208.5t-147.5 75.5t-147.5 -75.5t-54.5 -208.5q0 -124 55.5 -203.5t146.5 -79.5zM41 340q0 149 95 251.5t253 102.5t253 -102.5t95 -251.5t-95 -251t-253 -102t-253 102t-95 251zM365 718h-55l136 158q23 28 58 28
q18 0 31 -11.5t13 -33.5q0 -28 -35 -50z" />
    <glyph glyph-name="Ocircumflex" unicode="&#xd4;" horiz-adv-x="778" 
d="M389 57q91 0 146.5 79.5t55.5 203.5q0 133 -54.5 208.5t-147.5 75.5t-147.5 -75.5t-54.5 -208.5q0 -124 55.5 -203.5t146.5 -79.5zM41 340q0 149 95 251.5t253 102.5t253 -102.5t95 -251.5t-95 -251t-253 -102t-253 102t-95 251zM220 718l122 176h94l122 -176h-57
l-112 100l-112 -100h-57z" />
    <glyph glyph-name="Otilde" unicode="&#xd5;" horiz-adv-x="778" 
d="M389 57q91 0 146.5 79.5t55.5 203.5q0 133 -54.5 208.5t-147.5 75.5t-147.5 -75.5t-54.5 -208.5q0 -124 55.5 -203.5t146.5 -79.5zM41 340q0 149 95 251.5t253 102.5t253 -102.5t95 -251.5t-95 -251t-253 -102t-253 102t-95 251zM246 736h-40q9 56 39 90.5t79 34.5
q38 0 73 -19l37 -20q21 -11 42 -11q18 0 30 10t23 40h43q-29 -126 -122 -126q-30 0 -67 17l-34 16q-36 17 -55 17q-33 0 -48 -49z" />
    <glyph glyph-name="Odieresis" unicode="&#xd6;" horiz-adv-x="778" 
d="M389 57q91 0 146.5 79.5t55.5 203.5q0 133 -54.5 208.5t-147.5 75.5t-147.5 -75.5t-54.5 -208.5q0 -124 55.5 -203.5t146.5 -79.5zM41 340q0 149 95 251.5t253 102.5t253 -102.5t95 -251.5t-95 -251t-253 -102t-253 102t-95 251zM220 792q0 26 19 45t45 19t45 -19t19 -45
t-19 -45t-45 -19t-45 19t-19 45zM430 792q0 26 19 45t45 19t45 -19t19 -45t-19 -45t-45 -19t-45 19t-19 45z" />
    <glyph glyph-name="multiply" unicode="&#xd7;" horiz-adv-x="600" 
d="M131 22l-62 62l169 169l-169 169l62 62l169 -169l169 169l62 -62l-169 -169l169 -169l-62 -62l-169 169z" />
    <glyph glyph-name="Oslash" unicode="&#xd8;" horiz-adv-x="778" 
d="M225 167l295 400q-49 57 -131 57q-93 0 -147.5 -75.5t-54.5 -208.5q0 -103 38 -173zM555 516l-295 -401q52 -58 129 -58q91 0 146.5 79.5t55.5 203.5q0 107 -36 176zM58 -60l97 132q-114 99 -114 268q0 149 95 251.5t253 102.5q109 0 187 -50l70 96h74l-97 -131
q55 -48 84.5 -118.5t29.5 -150.5q0 -149 -95 -251t-253 -102q-104 0 -186 49l-71 -96h-74z" />
    <glyph glyph-name="Ugrave" unicode="&#xd9;" horiz-adv-x="722" 
d="M320 681v-58q-45 -2 -65.5 -19.5t-20.5 -55.5v-333q0 -152 154 -152q46 0 77.5 10.5t48.5 25.5t25.5 42t10.5 49t2 58v300q0 38 -20.5 55.5t-65.5 19.5v58h242v-58q-45 -2 -65.5 -19.5t-20.5 -55.5v-343q0 -218 -262 -218q-125 0 -192.5 53.5t-67.5 150.5v357
q0 38 -20.5 55.5t-65.5 19.5v58h300h6zM440 718h-55l-148 91q-35 22 -35 50q0 22 13 33.5t31 11.5q35 0 58 -28z" />
    <glyph glyph-name="Uacute" unicode="&#xda;" horiz-adv-x="722" 
d="M320 681v-58q-45 -2 -65.5 -19.5t-20.5 -55.5v-333q0 -152 154 -152q46 0 77.5 10.5t48.5 25.5t25.5 42t10.5 49t2 58v300q0 38 -20.5 55.5t-65.5 19.5v58h242v-58q-45 -2 -65.5 -19.5t-20.5 -55.5v-343q0 -218 -262 -218q-125 0 -192.5 53.5t-67.5 150.5v357
q0 38 -20.5 55.5t-65.5 19.5v58h300h6zM337 718h-55l136 158q23 28 58 28q18 0 31 -11.5t13 -33.5q0 -28 -35 -50z" />
    <glyph glyph-name="Ucircumflex" unicode="&#xdb;" horiz-adv-x="722" 
d="M320 681v-58q-45 -2 -65.5 -19.5t-20.5 -55.5v-333q0 -152 154 -152q46 0 77.5 10.5t48.5 25.5t25.5 42t10.5 49t2 58v300q0 38 -20.5 55.5t-65.5 19.5v58h242v-58q-45 -2 -65.5 -19.5t-20.5 -55.5v-343q0 -218 -262 -218q-125 0 -192.5 53.5t-67.5 150.5v357
q0 38 -20.5 55.5t-65.5 19.5v58h300h6zM192 718l122 176h94l122 -176h-57l-112 100l-112 -100h-57z" />
    <glyph glyph-name="Udieresis" unicode="&#xdc;" horiz-adv-x="722" 
d="M320 681v-58q-45 -2 -65.5 -19.5t-20.5 -55.5v-333q0 -152 154 -152q46 0 77.5 10.5t48.5 25.5t25.5 42t10.5 49t2 58v300q0 38 -20.5 55.5t-65.5 19.5v58h242v-58q-45 -2 -65.5 -19.5t-20.5 -55.5v-343q0 -218 -262 -218q-125 0 -192.5 53.5t-67.5 150.5v357
q0 38 -20.5 55.5t-65.5 19.5v58h300h6zM192 792q0 26 19 45t45 19t45 -19t19 -45t-19 -45t-45 -19t-45 19t-19 45zM402 792q0 26 19 45t45 19t45 -19t19 -45t-19 -45t-45 -19t-45 19t-19 45z" />
    <glyph glyph-name="Yacute" unicode="&#xdd;" horiz-adv-x="667" 
d="M142 0v58q74 10 91.5 24t17.5 69v154l-147 242q-41 67 -108 76v58h301v-58q-70 0 -70 -26q0 -14 22 -50l105 -173l114 181q14 22 14 36t-12.5 20t-52.5 12v58h254v-58q-47 -5 -76 -28t-71 -86l-139 -208v-167q0 -42 18.5 -57.5t76.5 -18.5v-58h-338zM310 718h-55l136 158
q23 28 58 28q18 0 31 -11.5t13 -33.5q0 -28 -35 -50z" />
    <glyph glyph-name="Thorn" unicode="&#xde;" horiz-adv-x="667" 
d="M112 133v415q0 38 -20.5 55.5t-65.5 19.5v58h306v-58q-45 -2 -65.5 -19t-20.5 -53v-4h95q69 0 119 -9.5t90 -32t60 -63.5t20 -100q0 -87 -66.5 -135t-204.5 -48h-113v-26q0 -38 20.5 -55.5t65.5 -19.5v-58h-306v58q45 2 65.5 19.5t20.5 55.5zM246 420v-194q27 -3 53 -3
q111 0 151 33t40 102q0 125 -152 125q-54 0 -73 -16t-19 -47z" />
    <glyph glyph-name="germandbls" unicode="&#xdf;" horiz-adv-x="667" 
d="M33 0v58h16q36 0 49.5 18t13.5 56v280h-69l18 52h57q13 105 84 160.5t171 55.5q193 0 193 -131q0 -35 -18 -61t-40 -37t-40 -20.5t-18 -15.5q0 -8 19 -17l42 -21q66 -33 93.5 -71t27.5 -101q0 -54 -23 -97t-60.5 -67.5t-82 -37.5t-92.5 -13q-66 0 -104 19l17 57
q31 -12 71 -12q69 0 110.5 39.5t41.5 98.5q0 44 -28 74.5t-120 67.5q-48 19 -62 33.5t-14 35.5t18 35.5t72 32.5q80 27 80 80q0 33 -22.5 52t-60.5 19q-55 0 -97 -41.5t-42 -146.5v-434h-201z" />
    <glyph glyph-name="agrave" unicode="&#xe0;" horiz-adv-x="556" 
d="M528 79l33 -35q-41 -54 -119 -54q-76 0 -101 63q-82 -63 -167 -63q-68 0 -106.5 37t-38.5 87q0 79 76 123t228 59v65q0 44 -19 62.5t-69 18.5q-34 0 -57.5 -15t-25.5 -38q-4 -42 -16.5 -57t-39.5 -15t-40.5 17t-13.5 38q0 57 57 92.5t150 35.5q104 0 150 -36t46 -114
v-251q0 -39 32 -39q22 0 41 19zM333 106v138q-182 -18 -182 -112q0 -66 75 -66q62 0 107 40zM347 547h-55l-148 91q-35 22 -35 50q0 22 13 33.5t31 11.5q35 0 58 -28z" />
    <glyph glyph-name="aacute" unicode="&#xe1;" horiz-adv-x="556" 
d="M528 79l33 -35q-41 -54 -119 -54q-76 0 -101 63q-82 -63 -167 -63q-68 0 -106.5 37t-38.5 87q0 79 76 123t228 59v65q0 44 -19 62.5t-69 18.5q-34 0 -57.5 -15t-25.5 -38q-4 -42 -16.5 -57t-39.5 -15t-40.5 17t-13.5 38q0 57 57 92.5t150 35.5q104 0 150 -36t46 -114
v-251q0 -39 32 -39q22 0 41 19zM333 106v138q-182 -18 -182 -112q0 -66 75 -66q62 0 107 40zM244 547h-55l136 158q23 28 58 28q18 0 31 -11.5t13 -33.5q0 -28 -35 -50z" />
    <glyph glyph-name="acircumflex" unicode="&#xe2;" horiz-adv-x="556" 
d="M528 79l33 -35q-41 -54 -119 -54q-76 0 -101 63q-82 -63 -167 -63q-68 0 -106.5 37t-38.5 87q0 79 76 123t228 59v65q0 44 -19 62.5t-69 18.5q-34 0 -57.5 -15t-25.5 -38q-4 -42 -16.5 -57t-39.5 -15t-40.5 17t-13.5 38q0 57 57 92.5t150 35.5q104 0 150 -36t46 -114
v-251q0 -39 32 -39q22 0 41 19zM333 106v138q-182 -18 -182 -112q0 -66 75 -66q62 0 107 40zM99 547l122 176h94l122 -176h-57l-112 100l-112 -100h-57z" />
    <glyph glyph-name="atilde" unicode="&#xe3;" horiz-adv-x="556" 
d="M528 79l33 -35q-41 -54 -119 -54q-76 0 -101 63q-82 -63 -167 -63q-68 0 -106.5 37t-38.5 87q0 79 76 123t228 59v65q0 44 -19 62.5t-69 18.5q-34 0 -57.5 -15t-25.5 -38q-4 -42 -16.5 -57t-39.5 -15t-40.5 17t-13.5 38q0 57 57 92.5t150 35.5q104 0 150 -36t46 -114
v-251q0 -39 32 -39q22 0 41 19zM333 106v138q-182 -18 -182 -112q0 -66 75 -66q62 0 107 40zM125 565h-40q9 56 39 90.5t79 34.5q38 0 73 -19l37 -20q21 -11 42 -11q18 0 30 10t23 40h43q-29 -126 -122 -126q-30 0 -67 17l-34 16q-36 17 -55 17q-33 0 -48 -49z" />
    <glyph glyph-name="adieresis" unicode="&#xe4;" horiz-adv-x="556" 
d="M528 79l33 -35q-41 -54 -119 -54q-76 0 -101 63q-82 -63 -167 -63q-68 0 -106.5 37t-38.5 87q0 79 76 123t228 59v65q0 44 -19 62.5t-69 18.5q-34 0 -57.5 -15t-25.5 -38q-4 -42 -16.5 -57t-39.5 -15t-40.5 17t-13.5 38q0 57 57 92.5t150 35.5q104 0 150 -36t46 -114
v-251q0 -39 32 -39q22 0 41 19zM333 106v138q-182 -18 -182 -112q0 -66 75 -66q62 0 107 40zM99 621q0 26 19 45t45 19t45 -19t19 -45t-19 -45t-45 -19t-45 19t-19 45zM309 621q0 26 19 45t45 19t45 -19t19 -45t-19 -45t-45 -19t-45 19t-19 45z" />
    <glyph glyph-name="aring" unicode="&#xe5;" horiz-adv-x="556" 
d="M528 79l33 -35q-41 -54 -119 -54q-76 0 -101 63q-82 -63 -167 -63q-68 0 -106.5 37t-38.5 87q0 79 76 123t228 59v65q0 44 -19 62.5t-69 18.5q-34 0 -57.5 -15t-25.5 -38q-4 -42 -16.5 -57t-39.5 -15t-40.5 17t-13.5 38q0 57 57 92.5t150 35.5q104 0 150 -36t46 -114
v-251q0 -39 32 -39q22 0 41 19zM333 106v138q-182 -18 -182 -112q0 -66 75 -66q62 0 107 40zM161 654q0 44 31.5 75.5t75.5 31.5t75.5 -31.5t31.5 -75.5t-31.5 -75.5t-75.5 -31.5t-75.5 31.5t-31.5 75.5zM213 654q0 -22 16.5 -38.5t38.5 -16.5t38.5 16.5t16.5 38.5
t-16.5 38.5t-38.5 16.5t-38.5 -16.5t-16.5 -38.5z" />
    <glyph glyph-name="ae" unicode="&#xe6;" horiz-adv-x="833" 
d="M795 240h-333v-20q0 -69 33.5 -117.5t99.5 -48.5q97 0 161 101l51 -33q-84 -132 -238 -132q-113 0 -190 92q-81 -92 -196 -92q-81 0 -119 38t-38 92q0 85 83.5 126.5t230.5 43.5v70q0 43 -21 62.5t-75 19.5q-33 0 -56.5 -15t-25.5 -38q-4 -42 -16.5 -57t-39.5 -15
t-40.5 17t-13.5 38q0 57 57 92.5t150 35.5q97 0 155 -53q58 53 153 53q228 0 228 -245v-15zM340 193v39h-16q-31 0 -60.5 -5.5t-56.5 -17.5t-43 -34t-16 -51q0 -34 18 -52t51 -18q64 0 93.5 40.5t29.5 98.5zM462 298h199q0 31 -2.5 52t-11 44.5t-29 35.5t-51.5 12
q-55 0 -80 -42.5t-25 -101.5z" />
    <glyph glyph-name="ccedilla" unicode="&#xe7;" horiz-adv-x="556" 
d="M482 144l53 -25q-70 -123 -228 -129l-23 -56q15 5 37 5q34 0 59.5 -17.5t25.5 -52.5q0 -45 -39 -66t-97 -21q-51 0 -92 18l17 35q26 -13 60 -13q57 0 57 39q0 38 -46 38q-13 0 -29 -4l-10 9l39 87q-104 8 -165.5 82t-61.5 178q0 117 74 183t186 66q86 0 145 -35.5
t59 -100.5q0 -28 -16 -45t-45 -17q-28 0 -44.5 15.5t-16.5 40.5q0 6 1.5 17.5t1.5 16.5q0 22 -29 36t-67 14q-115 0 -115 -202q0 -91 38.5 -138.5t112.5 -47.5q52 0 96.5 25.5t61.5 64.5z" />
    <glyph glyph-name="egrave" unicode="&#xe8;" horiz-adv-x="556" 
d="M515 280h-339q-3 -15 -3 -40q0 -81 34.5 -133.5t108.5 -52.5q110 0 161 97l49 -23q-63 -138 -236 -138q-115 -1 -183 74.5t-68 186.5q0 116 73 182.5t177 66.5q100 0 163 -55t63 -165zM182 338h199v15q0 37 -23 63t-69 26t-74 -28.5t-33 -75.5zM367 547h-55l-148 91
q-35 22 -35 50q0 22 13 33.5t31 11.5q35 0 58 -28z" />
    <glyph glyph-name="eacute" unicode="&#xe9;" horiz-adv-x="556" 
d="M515 280h-339q-3 -15 -3 -40q0 -81 34.5 -133.5t108.5 -52.5q110 0 161 97l49 -23q-63 -138 -236 -138q-115 -1 -183 74.5t-68 186.5q0 116 73 182.5t177 66.5q100 0 163 -55t63 -165zM182 338h199v15q0 37 -23 63t-69 26t-74 -28.5t-33 -75.5zM264 547h-55l136 158
q23 28 58 28q18 0 31 -11.5t13 -33.5q0 -28 -35 -50z" />
    <glyph glyph-name="ecircumflex" unicode="&#xea;" horiz-adv-x="556" 
d="M515 280h-339q-3 -15 -3 -40q0 -81 34.5 -133.5t108.5 -52.5q110 0 161 97l49 -23q-63 -138 -236 -138q-115 -1 -183 74.5t-68 186.5q0 116 73 182.5t177 66.5q100 0 163 -55t63 -165zM182 338h199v15q0 37 -23 63t-69 26t-74 -28.5t-33 -75.5zM119 547l122 176h94
l122 -176h-57l-112 100l-112 -100h-57z" />
    <glyph glyph-name="edieresis" unicode="&#xeb;" horiz-adv-x="556" 
d="M515 280h-339q-3 -15 -3 -40q0 -81 34.5 -133.5t108.5 -52.5q110 0 161 97l49 -23q-63 -138 -236 -138q-115 -1 -183 74.5t-68 186.5q0 116 73 182.5t177 66.5q100 0 163 -55t63 -165zM182 338h199v15q0 37 -23 63t-69 26t-74 -28.5t-33 -75.5zM119 621q0 26 19 45t45 19
t45 -19t19 -45t-19 -45t-45 -19t-45 19t-19 45zM329 621q0 26 19 45t45 19t45 -19t19 -45t-19 -45t-45 -19t-45 19t-19 45z" />
    <glyph glyph-name="igrave" unicode="&#xec;" 
d="M30 399v58q82 5 148 33h50v-366q0 -33 15.5 -49t60.5 -17v-58h-274v58q45 1 60.5 17t15.5 49v222q0 30 -13.5 40t-62.5 13zM246 547h-55l-148 91q-35 22 -35 50q0 22 13 33.5t31 11.5q35 0 58 -28z" />
    <glyph glyph-name="iacute" unicode="&#xed;" 
d="M30 399v58q82 5 148 33h50v-366q0 -33 15.5 -49t60.5 -17v-58h-274v58q45 1 60.5 17t15.5 49v222q0 30 -13.5 40t-62.5 13zM143 547h-55l136 158q23 28 58 28q18 0 31 -11.5t13 -33.5q0 -28 -35 -50z" />
    <glyph glyph-name="icircumflex" unicode="&#xee;" 
d="M30 399v58q82 5 148 33h50v-366q0 -33 15.5 -49t60.5 -17v-58h-274v58q45 1 60.5 17t15.5 49v222q0 30 -13.5 40t-62.5 13zM-2 547l122 176h94l122 -176h-57l-112 100l-112 -100h-57z" />
    <glyph glyph-name="idieresis" unicode="&#xef;" 
d="M30 399v58q82 5 148 33h50v-366q0 -33 15.5 -49t60.5 -17v-58h-274v58q45 1 60.5 17t15.5 49v222q0 30 -13.5 40t-62.5 13zM-2 621q0 26 19 45t45 19t45 -19t19 -45t-19 -45t-45 -19t-45 19t-19 45zM208 621q0 26 19 45t45 19t45 -19t19 -45t-19 -45t-45 -19t-45 19
t-19 45z" />
    <glyph glyph-name="eth" unicode="&#xf0;" horiz-adv-x="612" 
d="M306 54q72 0 102.5 49.5t30.5 150.5q0 168 -131 168q-132 0 -135 -168q-2 -100 29 -150t104 -50zM169 508l-24 45l117 60q-51 42 -117 69l30 38q96 -23 168 -66l116 60l24 -45l-92 -47q85 -60 133.5 -148.5t48.5 -199.5q0 -133 -70.5 -208.5t-202.5 -75.5
q-63 0 -114.5 23t-82.5 60t-47.5 78.5t-16.5 82.5q0 109 70 177.5t166 68.5q65 0 107 -27l3 2q-11 32 -35 66.5t-49 54.5z" />
    <glyph glyph-name="ntilde" unicode="&#xf1;" horiz-adv-x="666" 
d="M112 124v222q0 30 -13.5 40t-62.5 13v58q93 6 148 43h44v-65q78 65 179 65q63 0 105 -32.5t42 -105.5v-238q0 -33 15.5 -49t60.5 -17v-58h-259v58q34 6 47.5 18t13.5 43v232q0 45 -16 62t-47 17q-70 0 -135 -58v-248q0 -33 15.5 -49t60.5 -17v-58h-274v58q45 1 60.5 17
t15.5 49zM190 565h-40q9 56 39 90.5t79 34.5q38 0 73 -19l37 -20q21 -11 42 -11q18 0 30 10t23 40h43q-29 -126 -122 -126q-30 0 -67 17l-34 16q-36 17 -55 17q-33 0 -48 -49z" />
    <glyph glyph-name="ograve" unicode="&#xf2;" horiz-adv-x="612" 
d="M39 251q0 115 79 182t188 67t188 -67t79 -182q0 -110 -72.5 -185.5t-194.5 -75.5t-194.5 75.5t-72.5 185.5zM173 248q0 -97 30.5 -145.5t102.5 -48.5t102.5 48.5t30.5 145.5t-30.5 145.5t-102.5 48.5t-102.5 -48.5t-30.5 -145.5zM385 547h-55l-148 91q-35 22 -35 50
q0 22 13 33.5t31 11.5q35 0 58 -28z" />
    <glyph glyph-name="oacute" unicode="&#xf3;" horiz-adv-x="612" 
d="M39 251q0 115 79 182t188 67t188 -67t79 -182q0 -110 -72.5 -185.5t-194.5 -75.5t-194.5 75.5t-72.5 185.5zM173 248q0 -97 30.5 -145.5t102.5 -48.5t102.5 48.5t30.5 145.5t-30.5 145.5t-102.5 48.5t-102.5 -48.5t-30.5 -145.5zM282 547h-55l136 158q23 28 58 28
q18 0 31 -11.5t13 -33.5q0 -28 -35 -50z" />
    <glyph glyph-name="ocircumflex" unicode="&#xf4;" horiz-adv-x="612" 
d="M39 251q0 115 79 182t188 67t188 -67t79 -182q0 -110 -72.5 -185.5t-194.5 -75.5t-194.5 75.5t-72.5 185.5zM173 248q0 -97 30.5 -145.5t102.5 -48.5t102.5 48.5t30.5 145.5t-30.5 145.5t-102.5 48.5t-102.5 -48.5t-30.5 -145.5zM137 547l122 176h94l122 -176h-57
l-112 100l-112 -100h-57z" />
    <glyph glyph-name="otilde" unicode="&#xf5;" horiz-adv-x="612" 
d="M39 251q0 115 79 182t188 67t188 -67t79 -182q0 -110 -72.5 -185.5t-194.5 -75.5t-194.5 75.5t-72.5 185.5zM173 248q0 -97 30.5 -145.5t102.5 -48.5t102.5 48.5t30.5 145.5t-30.5 145.5t-102.5 48.5t-102.5 -48.5t-30.5 -145.5zM163 565h-40q9 56 39 90.5t79 34.5
q38 0 73 -19l37 -20q21 -11 42 -11q18 0 30 10t23 40h43q-29 -126 -122 -126q-30 0 -67 17l-34 16q-36 17 -55 17q-33 0 -48 -49z" />
    <glyph glyph-name="odieresis" unicode="&#xf6;" horiz-adv-x="612" 
d="M39 251q0 115 79 182t188 67t188 -67t79 -182q0 -110 -72.5 -185.5t-194.5 -75.5t-194.5 75.5t-72.5 185.5zM173 248q0 -97 30.5 -145.5t102.5 -48.5t102.5 48.5t30.5 145.5t-30.5 145.5t-102.5 48.5t-102.5 -48.5t-30.5 -145.5zM137 621q0 26 19 45t45 19t45 -19t19 -45
t-19 -45t-45 -19t-45 19t-19 45zM347 621q0 26 19 45t45 19t45 -19t19 -45t-19 -45t-45 -19t-45 19t-19 45z" />
    <glyph glyph-name="divide" unicode="&#xf7;" horiz-adv-x="600" 
d="M47 209v88h506v-88h-506zM224 45q0 31 22 53.5t54 22.5t54 -22.5t22 -53.5t-22 -53.5t-54 -22.5t-54 22.5t-22 53.5zM224 461q0 31 22 53.5t54 22.5t54 -22.5t22 -53.5t-22 -53.5t-54 -22.5t-54 22.5t-22 53.5z" />
    <glyph glyph-name="oslash" unicode="&#xf8;" horiz-adv-x="612" 
d="M196 115l178 311q-25 16 -68 16q-72 0 -102.5 -48.5t-30.5 -145.5q0 -87 23 -133zM414 383l-179 -311q27 -18 71 -18q72 0 102.5 48.5t30.5 145.5q0 91 -25 135zM139 -95h-64l75 130q-53 35 -82 92t-29 124q0 115 79 182t188 67q52 0 101 -17l66 114h64l-79 -138
q115 -69 115 -208q0 -110 -72.5 -185.5t-194.5 -75.5q-58 0 -107 19z" />
    <glyph glyph-name="ugrave" unicode="&#xf9;" horiz-adv-x="667" 
d="M112 128v218q0 30 -13.5 40t-62.5 13v58q82 5 148 33h50v-351q0 -45 16 -62t47 -17q70 0 135 58v228q0 30 -13.5 40t-62.5 13v58q82 5 148 33h50v-366q0 -33 15.5 -49t61.5 -17v-58h-193v55q-78 -65 -179 -65q-63 0 -105 32.5t-42 105.5zM413 547h-55l-148 91
q-35 22 -35 50q0 22 13 33.5t31 11.5q35 0 58 -28z" />
    <glyph glyph-name="uacute" unicode="&#xfa;" horiz-adv-x="667" 
d="M112 128v218q0 30 -13.5 40t-62.5 13v58q82 5 148 33h50v-351q0 -45 16 -62t47 -17q70 0 135 58v228q0 30 -13.5 40t-62.5 13v58q82 5 148 33h50v-366q0 -33 15.5 -49t61.5 -17v-58h-193v55q-78 -65 -179 -65q-63 0 -105 32.5t-42 105.5zM310 547h-55l136 158
q23 28 58 28q18 0 31 -11.5t13 -33.5q0 -28 -35 -50z" />
    <glyph glyph-name="ucircumflex" unicode="&#xfb;" horiz-adv-x="667" 
d="M112 128v218q0 30 -13.5 40t-62.5 13v58q82 5 148 33h50v-351q0 -45 16 -62t47 -17q70 0 135 58v228q0 30 -13.5 40t-62.5 13v58q82 5 148 33h50v-366q0 -33 15.5 -49t61.5 -17v-58h-193v55q-78 -65 -179 -65q-63 0 -105 32.5t-42 105.5zM165 547l122 176h94l122 -176
h-57l-112 100l-112 -100h-57z" />
    <glyph glyph-name="udieresis" unicode="&#xfc;" horiz-adv-x="667" 
d="M112 128v218q0 30 -13.5 40t-62.5 13v58q82 5 148 33h50v-351q0 -45 16 -62t47 -17q70 0 135 58v228q0 30 -13.5 40t-62.5 13v58q82 5 148 33h50v-366q0 -33 15.5 -49t61.5 -17v-58h-193v55q-78 -65 -179 -65q-63 0 -105 32.5t-42 105.5zM165 621q0 26 19 45t45 19
t45 -19t19 -45t-19 -45t-45 -19t-45 19t-19 45zM375 621q0 26 19 45t45 19t45 -19t19 -45t-19 -45t-45 -19t-45 19t-19 45z" />
    <glyph glyph-name="yacute" unicode="&#xfd;" horiz-adv-x="556" 
d="M243 -5l-166 373q-14 33 -32.5 46.5t-48.5 17.5v58h268v-58q-38 -2 -51.5 -8.5t-13.5 -19.5q0 -19 15 -53l92 -214l81 204q13 33 13 50q0 18 -11.5 26t-50.5 15v58h222v-58q-36 -10 -57.5 -30.5t-37.5 -56.5l-191 -429q-35 -78 -76 -115t-104 -37q-35 0 -61 18.5
t-26 54.5q0 24 15.5 42.5t40.5 18.5q24 0 42 -20t34 -20q37 0 64 56zM254 547h-55l136 158q23 28 58 28q18 0 31 -11.5t13 -33.5q0 -28 -35 -50z" />
    <glyph glyph-name="thorn" unicode="&#xfe;" horiz-adv-x="611" 
d="M30 -226v58q45 1 60.5 17t15.5 49v648q0 30 -13.5 40t-62.5 13v58q82 5 148 33h50v-240q53 50 133 50q37 0 71.5 -12t67.5 -39.5t52.5 -81.5t19.5 -129q0 -107 -59 -177.5t-155 -70.5q-63 0 -130 46v-138q0 -37 14.5 -51t61.5 -15v-58h-274zM228 386v-282q40 -44 99 -44
q63 0 93 51.5t30 133.5t-30 133.5t-93 51.5t-99 -44z" />
    <glyph glyph-name="ydieresis" unicode="&#xff;" horiz-adv-x="556" 
d="M243 -5l-166 373q-14 33 -32.5 46.5t-48.5 17.5v58h268v-58q-38 -2 -51.5 -8.5t-13.5 -19.5q0 -19 15 -53l92 -214l81 204q13 33 13 50q0 18 -11.5 26t-50.5 15v58h222v-58q-36 -10 -57.5 -30.5t-37.5 -56.5l-191 -429q-35 -78 -76 -115t-104 -37q-35 0 -61 18.5
t-26 54.5q0 24 15.5 42.5t40.5 18.5q24 0 42 -20t34 -20q37 0 64 56zM109 621q0 26 19 45t45 19t45 -19t19 -45t-19 -45t-45 -19t-45 19t-19 45zM319 621q0 26 19 45t45 19t45 -19t19 -45t-19 -45t-45 -19t-45 19t-19 45z" />
    <glyph glyph-name="dotlessi" unicode="&#x131;" 
d="M30 399v58q82 5 148 33h50v-366q0 -33 15.5 -49t60.5 -17v-58h-274v58q45 1 60.5 17t15.5 49v222q0 30 -13.5 40t-62.5 13z" />
    <glyph glyph-name="Lslash" unicode="&#x141;" horiz-adv-x="667" 
d="M26 0v58q45 2 65.5 19.5t20.5 55.5v98l-86 -45v82l86 45v235q0 38 -20.5 55.5t-65.5 19.5v58h320v-58q-60 -2 -80 -18t-20 -64v-157l200 106v-82l-200 -106v-169q0 -35 13 -49t55 -14q93 0 161.5 38.5t129.5 141.5l57 -22l-106 -228h-530z" />
    <glyph glyph-name="lslash" unicode="&#x142;" 
d="M106 124v180l-76 -48v76l76 48v166q0 30 -13.5 40t-62.5 13v58q82 5 148 33h50v-232l76 49v-76l-76 -49v-258q0 -33 15.5 -49t60.5 -17v-58h-274v58q45 1 60.5 17t15.5 49z" />
    <glyph glyph-name="OE" unicode="&#x152;" horiz-adv-x="1000" 
d="M991 225l-71 -225h-408v67q-86 -80 -195 -80q-135 0 -216.5 97.5t-81.5 267.5q0 146 81 244t217 98q132 0 202 -89h2v76h387l60 -199l-48 -25l-20 40q-34 68 -75.5 91t-100.5 23q-66 0 -82 -7t-16 -37v-160h16q57 0 79 22.5t30 95.5h52v-304h-52q-8 66 -31.5 91t-72.5 25
h-21v-212q0 -39 14.5 -50t55.5 -11q75 0 130.5 37.5t111.5 147.5zM159 340q0 -136 42.5 -212.5t124.5 -76.5q91 0 128.5 73t37.5 216q0 144 -37.5 217t-128.5 73q-82 0 -124.5 -76.5t-42.5 -213.5z" />
    <glyph glyph-name="oe" unicode="&#x153;" horiz-adv-x="889" 
d="M847 240h-321q0 -78 31.5 -132t99.5 -54q93 0 158 104l41 -39q-39 -64 -90.5 -96.5t-128.5 -32.5q-61 0 -100.5 17.5t-68.5 54.5q-90 -72 -194 -72q-121 0 -181 73t-60 181q0 111 63.5 183.5t196.5 72.5q105 0 170 -70q66 70 178 70q101 0 153.5 -62.5t52.5 -174.5v-23z
M167 244q0 -94 26.5 -142t89.5 -48q121 0 121 190q0 198 -116 198q-60 0 -90.5 -44t-30.5 -154zM526 298h199q0 31 -2.5 52t-11 44.5t-29 35.5t-51.5 12q-55 0 -80 -42.5t-25 -101.5z" />
    <glyph glyph-name="Scaron" unicode="&#x160;" horiz-adv-x="667" 
d="M111 0l-76 246l53 21q55 -110 127 -160t144 -50q58 0 101.5 32.5t43.5 86.5q0 41 -25 62t-88 38l-158 42q-54 14 -90 35.5t-52 47.5t-21.5 47.5t-5.5 48.5q0 81 59.5 139t165.5 58q104 0 174 -47l16 34h50l63 -199l-56 -17q-39 81 -104.5 120t-128.5 39q-50 0 -80.5 -25
t-30.5 -68q0 -65 80 -85l183 -47q91 -23 134 -64.5t43 -114.5q0 -100 -72.5 -166.5t-200.5 -66.5q-54 0 -109.5 15.5t-74.5 37.5l-15 -40h-49zM287 718l-122 176h57l112 -100l112 100h57l-122 -176h-94z" />
    <glyph glyph-name="scaron" unicode="&#x161;" horiz-adv-x="556" 
d="M78 0l-31 163l54 11q57 -120 187 -120q44 0 74.5 19t30.5 51q0 27 -19 42t-72 25l-82 16q-74 15 -113.5 44.5t-38.5 90.5q1 74 56.5 116t142.5 42q77 0 142 -39l13 29h35l23 -137l-53 -9q-52 98 -154 98q-37 0 -63 -17.5t-26 -43.5q0 -39 58 -51l129 -27
q68 -14 103 -44.5t35 -93.5q0 -77 -59.5 -126t-162.5 -49q-92 0 -155 43l-12 -33h-42zM231 547l-122 176h57l112 -100l112 100h57l-122 -176h-94z" />
    <glyph glyph-name="Ydieresis" unicode="&#x178;" horiz-adv-x="667" 
d="M142 0v58q74 10 91.5 24t17.5 69v154l-147 242q-41 67 -108 76v58h301v-58q-70 0 -70 -26q0 -14 22 -50l105 -173l114 181q14 22 14 36t-12.5 20t-52.5 12v58h254v-58q-47 -5 -76 -28t-71 -86l-139 -208v-167q0 -42 18.5 -57.5t76.5 -18.5v-58h-338zM165 792q0 26 19 45
t45 19t45 -19t19 -45t-19 -45t-45 -19t-45 19t-19 45zM375 792q0 26 19 45t45 19t45 -19t19 -45t-19 -45t-45 -19t-45 19t-19 45z" />
    <glyph glyph-name="Zcaron" unicode="&#x17d;" horiz-adv-x="667" 
d="M33 482l90 199h480l15 -46l-423 -571h80q118 0 190 34t121 132l55 -16l-84 -214h-517l-14 49l421 568h-113q-165 0 -248 -156zM287 718l-122 176h57l112 -100l112 100h57l-122 -176h-94z" />
    <glyph glyph-name="zcaron" unicode="&#x17e;" horiz-adv-x="556" 
d="M484 490l21 -52l-313 -375q18 -5 45 -5q177 0 243 123l49 -16l-56 -165h-427l-19 49l318 380q-14 3 -37 3q-154 0 -207 -94l-9 -16l-48 17l56 151h384zM231 547l-122 176h57l112 -100l112 100h57l-122 -176h-94z" />
    <glyph glyph-name="florin" unicode="&#x192;" horiz-adv-x="612" 
d="M145 342l9 64h106l3 24q16 128 73 196t151 68q49 0 82 -18.5t33 -52.5q0 -21 -13.5 -34.5t-38.5 -13.5q-19 0 -34.5 8.5t-23.5 19t-19.5 19t-24.5 8.5q-16 0 -27 -9.5t-21.5 -48t-14.5 -107.5l-3 -59h125l-6 -64h-122l-20 -208q-7 -77 -19.5 -132t-39 -111.5t-75 -86.5
t-117.5 -30q-50 0 -74 20.5t-24 45.5q0 22 12.5 35.5t33.5 13.5q32 0 67 -34q18 -17 36 -17q36 0 50.5 30t19.5 101l25 373h-109z" />
    <glyph glyph-name="circumflex" unicode="&#x2c6;" 
d="M-2 547l122 176h94l122 -176h-57l-112 100l-112 -100h-57z" />
    <glyph glyph-name="caron" unicode="&#x2c7;" 
d="M120 547l-122 176h57l112 -100l112 100h57l-122 -176h-94z" />
    <glyph glyph-name="uni02C9" unicode="&#x2c9;" 
d="M1 584v70h332v-70h-332z" />
    <glyph glyph-name="breve" unicode="&#x2d8;" 
d="M15 711h46q14 -88 106 -88t106 88h46q-1 -74 -42 -119t-110 -45t-110 45t-42 119z" />
    <glyph glyph-name="dotaccent" unicode="&#x2d9;" 
d="M103 621q0 26 19 45t45 19t45 -19t19 -45t-19 -45t-45 -19t-45 19t-19 45z" />
    <glyph glyph-name="ring" unicode="&#x2da;" 
d="M60 654q0 44 31.5 75.5t75.5 31.5t75.5 -31.5t31.5 -75.5t-31.5 -75.5t-75.5 -31.5t-75.5 31.5t-31.5 75.5zM112 654q0 -22 16 -38.5t39 -16.5t39 16.5t16 38.5t-16 38.5t-39 16.5t-39 -16.5t-16 -38.5z" />
    <glyph glyph-name="ogonek" unicode="&#x2db;" 
d="M192 0h74q-27 -15 -44.5 -27t-38.5 -29.5t-32 -37.5t-11 -42t18 -32t42 -10t59 13l19 -30q-44 -23 -92 -23q-140 0 -140 82q0 28 12.5 50.5t36.5 38.5t45 26t52 21z" />
    <glyph glyph-name="tilde" unicode="&#x2dc;" 
d="M24 565h-40q9 56 39 90.5t79 34.5q38 0 73 -19l37 -20q21 -11 42 -11q18 0 30 10t23 40h43q-29 -126 -122 -126q-30 0 -67 17l-34 16q-36 17 -55 17q-33 0 -48 -49z" />
    <glyph glyph-name="hungarumlaut" unicode="&#x2dd;" 
d="M39 547h-55l136 158q23 28 58 28q18 0 31 -11.5t13 -33.5q0 -28 -35 -50zM247 547h-55l136 158q23 28 58 28q18 0 31 -11.5t13 -33.5q0 -28 -35 -50z" />
    <glyph glyph-name="uni03A9" unicode="&#x3a9;" horiz-adv-x="801" 
d="M763 159l-29 -159h-270l-8 23q3 5 24.5 41t30.5 52t27 53.5t26.5 64t15.5 63.5t7 71q-1 142 -53.5 208t-135.5 66q-185 0 -185 -278q0 -48 10.5 -94t36 -98.5t37 -73.5t44.5 -75l-8 -23h-270l-26 159l30 1q18 -46 34 -60t51 -14h107q-28 20 -47.5 35.5t-47.5 44t-45 56
t-29.5 67.5t-12.5 83q0 138 91.5 222.5t232.5 84.5q143 0 231.5 -81t88.5 -218q0 -47 -16 -90.5t-47 -81.5t-57.5 -63.5t-66.5 -58.5h116q34 0 49 13.5t32 60.5z" />
    <glyph glyph-name="uni03BC" unicode="&#x3bc;" horiz-adv-x="667" 
d="M112 150v196q0 30 -13.5 40t-62.5 13v58q82 5 148 33h50v-351q0 -45 16 -62t47 -17q70 0 135 58v228q0 30 -13.5 40t-62.5 13v58q82 5 148 33h50v-366q0 -33 15.5 -49t61.5 -17v-58h-193v55q-78 -65 -153 -65q-51 0 -77 32l-2 -2q-1 -31 10 -90t11 -82q0 -74 -67 -74
t-67 74q0 16 9.5 112t9.5 190z" />
    <glyph glyph-name="pi" unicode="&#x3c0;" horiz-adv-x="619" 
d="M563 475l28 -9q-4 -31 -16.5 -63.5t-23.5 -45.5q-25 -6 -71 -6q-6 -61 -4 -207q0 -86 45 -86q21 0 48 24l14 -26q-20 -31 -53.5 -49.5t-67.5 -18.5q-48 0 -75.5 29t-27.5 100q0 95 10 237q-126 2 -151 2v-14q0 -101 -15 -181.5t-28.5 -111.5t-24.5 -44q-36 -14 -68 -17
l-8 20q51 63 75 163t24 186q-46 1 -73 -8.5t-63 -33.5l-17 27q38 49 60 66q49 37 126 36q5 0 119 -2t174 -2q24 0 38 7.5t26 27.5z" />
    <glyph glyph-name="endash" unicode="&#x2013;" horiz-adv-x="500" 
d="M500 226h-500v76h500v-76z" />
    <glyph glyph-name="emdash" unicode="&#x2014;" horiz-adv-x="1000" 
d="M0 226v76h1000v-76h-1000z" />
    <glyph glyph-name="quoteleft" unicode="&#x2018;" horiz-adv-x="278" 
d="M145 694l33 -31q-51 -52 -54 -100q12 6 27 6q28 0 47.5 -19t19.5 -54q0 -30 -20 -51.5t-52 -21.5q-46 0 -66 32t-20 71q0 95 85 168z" />
    <glyph glyph-name="quoteright" unicode="&#x2019;" horiz-adv-x="278" 
d="M133 423l-33 31q51 52 54 100q-12 -6 -27 -6q-28 0 -47.5 19t-19.5 54q0 30 20 51.5t52 21.5q46 0 66 -32t20 -71q0 -95 -85 -168z" />
    <glyph glyph-name="quotesinglbase" unicode="&#x201a;" horiz-adv-x="278" 
d="M133 -125l-33 31q51 52 54 100q-12 -6 -27 -6q-28 0 -47.5 19t-19.5 54q0 30 20 51.5t52 21.5q46 0 66 -32t20 -71q0 -95 -85 -168z" />
    <glyph glyph-name="quotedblleft" unicode="&#x201c;" horiz-adv-x="500" 
d="M361 694l33 -31q-51 -52 -54 -100q12 6 27 6q28 0 47.5 -19t19.5 -54q0 -30 -20 -51.5t-52 -21.5q-46 0 -66 32t-20 71q0 95 85 168zM151 694l33 -31q-51 -52 -54 -100q12 6 27 6q28 0 47.5 -19t19.5 -54q0 -30 -20 -51.5t-52 -21.5q-46 0 -66 32t-20 71q0 95 85 168z
" />
    <glyph glyph-name="quotedblright" unicode="&#x201d;" horiz-adv-x="500" 
d="M139 423l-33 31q51 52 54 100q-12 -6 -27 -6q-28 0 -47.5 19t-19.5 54q0 30 20 51.5t52 21.5q46 0 66 -32t20 -71q0 -95 -85 -168zM349 423l-33 31q51 52 54 100q-12 -6 -27 -6q-28 0 -47.5 19t-19.5 54q0 30 20 51.5t52 21.5q46 0 66 -32t20 -71q0 -95 -85 -168z" />
    <glyph glyph-name="quotedblbase" unicode="&#x201e;" horiz-adv-x="500" 
d="M350 -125l-33 31q51 52 54 100q-12 -6 -27 -6q-28 0 -47.5 19t-19.5 54q0 30 20 51.5t52 21.5q46 0 66 -32t20 -71q0 -95 -85 -168zM138 -125l-33 31q51 52 54 100q-12 -6 -27 -6q-28 0 -47.5 19t-19.5 54q0 30 20 51.5t52 21.5q46 0 66 -32t20 -71q0 -95 -85 -168z" />
    <glyph glyph-name="dagger" unicode="&#x2020;" horiz-adv-x="556" 
d="M304 0h-52v14q0 104 -9.5 171.5t-43.5 117.5q16 12 33 43.5t20 57.5q-16 0 -33 -8q-41 -19 -76 -19q-22 0 -37.5 14.5t-15.5 43.5q0 27 15.5 39.5t37.5 12.5q21 0 38 -6l40 -13q16 -5 31 -6v6q0 17 -10 48l-24 81q-7 25 -7 35q0 62 67 62t67 -62q0 -10 -7 -35l-24 -81
q-10 -31 -10 -48v-6q15 1 31 6l40 13q17 6 38 6q22 0 37.5 -12.5t15.5 -39.5q0 -29 -15.5 -43.5t-37.5 -14.5q-35 0 -76 19q-17 8 -33 8q3 -26 20 -57.5t33 -43.5q-34 -50 -43.5 -117.5t-9.5 -171.5v-14z" />
    <glyph glyph-name="daggerdbl" unicode="&#x2021;" horiz-adv-x="556" 
d="M304 0h-52v26q0 49 -9 96.5t-23 70.5q29 38 29 64q-78 -28 -100 -28q-20 0 -34.5 13t-14.5 39q0 58 50 58q44 0 102 -27q0 38 -23 70q17 25 20 60q-78 -28 -100 -28q-20 0 -34.5 13t-14.5 39q0 58 50 58q44 0 102 -27q0 15 -12 47l-17 45q-9 24 -9 48q0 26 18 41.5
t46 15.5t46 -15.5t18 -41.5q0 -24 -9 -48l-17 -45q-12 -32 -12 -47q58 27 102 27q50 0 50 -58q0 -26 -14.5 -39t-34.5 -13q-22 0 -100 28q3 -35 20 -60q-23 -32 -23 -70q58 27 102 27q50 0 50 -58q0 -26 -14.5 -39t-34.5 -13q-22 0 -100 28q0 -26 29 -64q-14 -23 -23 -70.5
t-9 -96.5v-26z" />
    <glyph glyph-name="bullet" unicode="&#x2022;" horiz-adv-x="500" 
d="M82 337q0 70 49 119t119 49t119 -49t49 -119t-49 -119t-119 -49t-119 49t-49 119z" />
    <glyph glyph-name="ellipsis" unicode="&#x2026;" horiz-adv-x="1000" 
d="M91 70q0 32 22.5 54t53.5 22t53.5 -22t22.5 -54t-22.5 -54t-53.5 -22t-53.5 22t-22.5 54zM424 70q0 32 22 54t54 22t54 -22t22 -54t-22 -54t-54 -22t-54 22t-22 54zM757 70q0 32 22.5 54t53.5 22t53.5 -22t22.5 -54t-22.5 -54t-53.5 -22t-53.5 22t-22.5 54z" />
    <glyph glyph-name="perthousand" unicode="&#x2030;" horiz-adv-x="1167" 
d="M896 164q0 -128 74 -128t74 128q0 127 -74 127t-74 -127zM134 -10l448 694h67l-448 -694h-67zM123 511q0 -128 74 -128t74 128q0 127 -74 127t-74 -127zM802 164q0 80 47.5 126.5t120.5 46.5t120.5 -46.5t47.5 -126.5t-47.5 -127t-120.5 -47t-120.5 47t-47.5 127zM29 511
q0 80 47.5 126.5t120.5 46.5t120.5 -46.5t47.5 -126.5t-47.5 -127t-120.5 -47t-120.5 47t-47.5 127zM419 164q0 80 47.5 126.5t120.5 46.5t120.5 -46.5t47.5 -126.5t-47.5 -127t-120.5 -47t-120.5 47t-47.5 127zM513 164q0 -128 74 -128t74 128q0 127 -74 127t-74 -127z" />
    <glyph glyph-name="guilsinglleft" unicode="&#x2039;" horiz-adv-x="333" 
d="M282 441q0 -18 -45 -82.5t-76 -94.5q31 -30 76 -94.5t45 -82.5q0 -10 -8 -10t-19 11q-100 100 -204 176q104 76 204 176q11 11 19 11t8 -10z" />
    <glyph glyph-name="guilsinglright" unicode="&#x203a;" horiz-adv-x="333" 
d="M51 441q0 10 8 10t19 -11q100 -100 204 -176q-104 -76 -204 -176q-11 -11 -19 -11t-8 10q0 18 45 82.5t76 94.5q-31 30 -76 94.5t-45 82.5z" />
    <glyph glyph-name="fraction" unicode="&#x2044;" horiz-adv-x="167" 
d="M-174 -10l448 694h67l-448 -694h-67z" />
    <glyph glyph-name="Euro" unicode="&#x20ac;" horiz-adv-x="612" 
d="M430 255h-198q13 -88 51 -141.5t99 -53.5q48 0 87 29t76 97l56 -32q-37 -86 -97.5 -125t-129.5 -39q-109 0 -182 74t-93 191h-85v60h78v22q0 15 2 43h-80v60h89q23 108 90 176t162 68q72 0 137 -52q0 3 14 39h40l46 -199l-52 -19q-65 161 -174 161q-49 0 -84 -45.5
t-48 -128.5h196v-60h-203q-1 -14 -1 -43v-22h204v-60z" />
    <glyph glyph-name="afii61289" unicode="&#x2113;" horiz-adv-x="459" 
d="M418 138l22 -21q-71 -126 -191 -126q-75 0 -115 40q-20 24 -30 56t-10 93v62l-64 -42l-13 30l77 55v127q0 113 11.5 165.5t44.5 91.5q46 56 111 56q52 0 79 -39.5t27 -96.5q0 -80 -40.5 -145.5t-121.5 -138.5v-78q0 -91 22.5 -129t70.5 -38q63 0 120 78zM205 471v-114
q93 105 93 230q0 44 -11.5 73.5t-34.5 29.5q-28 0 -37.5 -46.5t-9.5 -172.5z" />
    <glyph glyph-name="trademark" unicode="&#x2122;" horiz-adv-x="1000" 
d="M157 339v318h-45q-50 0 -65 -64h-24v88h362v-88h-24q-15 64 -66 64h-44v-318q0 -23 7.5 -29t42.5 -9v-24h-194v24q35 3 42.5 9t7.5 29zM667 276l-140 292h-2v-198q0 -40 9 -53.5t43 -15.5v-24h-134v24q34 2 43 15.5t9 53.5v239q-10 21 -29 34.5t-40 13.5v24h140l141 -289
l151 289h119v-24q-33 -1 -43.5 -11.5t-10.5 -36.5v-270q0 -23 7.5 -29t42.5 -9v-24h-194v24q35 3 42.5 9t7.5 29v231h-2l-147 -294h-13z" />
    <glyph glyph-name="Omega" unicode="&#x2126;" horiz-adv-x="801" 
d="M763 159l-29 -159h-270l-8 23q3 5 24.5 41t30.5 52t27 53.5t26.5 64t15.5 63.5t7 71q-1 142 -53.5 208t-135.5 66q-185 0 -185 -278q0 -48 10.5 -94t36 -98.5t37 -73.5t44.5 -75l-8 -23h-270l-26 159l30 1q18 -46 34 -60t51 -14h107q-28 20 -47.5 35.5t-47.5 44t-45 56
t-29.5 67.5t-12.5 83q0 138 91.5 222.5t232.5 84.5q143 0 231.5 -81t88.5 -218q0 -47 -16 -90.5t-47 -81.5t-57.5 -63.5t-66.5 -58.5h116q34 0 49 13.5t32 60.5z" />
    <glyph glyph-name="estimated" unicode="&#x212e;" horiz-adv-x="835" 
d="M802 327h-623q-5 0 -5 -4v-189q0 -11 8 -21q98 -103 236 -103q148 0 248 115h55q-53 -62 -133 -98t-171 -36q-159 0 -272 101t-113 244q0 144 113 245t272 101q160 0 272.5 -101t112.5 -245v-9zM661 351v190q0 13 -10 23q-100 98 -233 98q-136 0 -235 -102q-9 -9 -9 -23
v-186q0 -6 5 -6h478q4 0 4 6z" />
    <glyph glyph-name="partialdiff" unicode="&#x2202;" horiz-adv-x="582" 
d="M282 429h1q39 0 77.5 -17t60.5 -49q9 70 10 105q2 90 -27 151q-17 33 -50 56t-72 23q-72 0 -155 -68q-15 -1 -32 30t-8 50q72 41 156 41q149 0 231 -140q55 -94 55 -225q0 -147 -53 -245q-78 -149 -229 -149q-92 0 -147 54.5t-55 146.5q0 97 63 165q68 71 174 71z
M313 383h-1q-65 0 -106 -56q-45 -67 -45 -183q-1 -52 22.5 -84t66.5 -32q66 0 110 99q34 67 52 190q-12 24 -39 45t-60 21z" />
    <glyph glyph-name="Delta" unicode="&#x2206;" horiz-adv-x="693" 
d="M655 0h-618v32l277 633l55 13l286 -646v-32zM509 57l-205 476l-200 -476h405z" />
    <glyph glyph-name="product" unicode="&#x220f;" horiz-adv-x="753" 
d="M723 678v-31q-67 -5 -81.5 -18t-14.5 -63v-527q0 -56 14.5 -70t80.5 -19v-31h-299v31q61 4 73 17t12 72v564q0 23 -6.5 29t-30.5 6h-192q-23 0 -29 -5.5t-6 -25.5v-568q0 -57 11 -70.5t67 -18.5v-31h-291v31q64 5 79 19t15 70v527q0 51 -15 63.5t-83 17.5v31h696z" />
    <glyph glyph-name="summation" unicode="&#x2211;" horiz-adv-x="603" 
d="M577 123l-48 -210h-501v31l231 321l-225 381v32h493q1 -7 3 -35.5t5 -69.5t6 -70l-32 -8q-17 76 -40 109q-12 21 -32.5 28.5t-76.5 7.5h-181l181 -303l-233 -328h266q71 0 94 17.5t58 105.5z" />
    <glyph glyph-name="minus" unicode="&#x2212;" horiz-adv-x="600" 
d="M553 209h-506v88h506v-88z" />
    <glyph glyph-name="uni2215" unicode="&#x2215;" horiz-adv-x="167" 
d="M-174 -10l448 694h67l-448 -694h-67z" />
    <glyph glyph-name="uni2219" unicode="&#x2219;" horiz-adv-x="306" 
d="M77 299q0 31 22.5 53.5t53.5 22.5t53.5 -22.5t22.5 -53.5t-22.5 -53.5t-53.5 -22.5t-53.5 22.5t-22.5 53.5z" />
    <glyph glyph-name="radical" unicode="&#x221a;" horiz-adv-x="584" 
d="M573 854l-179 -1001l-28 -13l-228 531l-91 -44l-13 38l181 85l167 -405h2l141 820z" />
    <glyph glyph-name="infinity" unicode="&#x221e;" horiz-adv-x="777" 
d="M729 277v-1q0 -77 -47.5 -123.5t-112.5 -46.5q-92 0 -180 113q-46 -55 -88 -84t-97 -29q-64 0 -110.5 46.5t-46.5 118.5q0 74 47 121.5t118 47.5q92 0 182 -111q52 58 76 76q49 36 105 35q66 0 110 -45.5t44 -117.5zM212 172h2q20 0 39 7.5t39 26t29.5 28.5t30.5 35
q-22 29 -31.5 40.5t-29.5 31t-39.5 27t-42.5 7.5q-41 0 -67 -29.5t-26 -75.5q0 -40 27.5 -69t68.5 -29zM568 375h-1q-15 0 -30 -6t-25 -11.5t-26 -20t-21 -20t-20.5 -24t-16.5 -19.5q48 -58 77.5 -80t65.5 -22q40 0 64.5 31t24.5 68q0 46 -25.5 75t-66.5 29z" />
    <glyph glyph-name="integral" unicode="&#x222b;" horiz-adv-x="407" 
d="M168 0l-21 390q-5 102 3 180t24.5 124t42 75t50 39t52.5 10q26 0 48.5 -14.5t22.5 -38.5q0 -26 -15.5 -40t-37.5 -14q-20 0 -34 29t-24 29q-40 0 -33 -156l19 -368q6 -125 -5.5 -215.5t-38 -139.5t-59 -71.5t-72.5 -22.5q-30 0 -50.5 16t-21.5 39t19 40t44 17
q17 0 30 -31.5t23 -31.5q42 0 34 155z" />
    <glyph glyph-name="approxequal" unicode="&#x2248;" horiz-adv-x="572" 
d="M486 437l45 -44q-59 -99 -140 -99q-30 0 -53.5 9t-63.5 31q-56 33 -90 33q-31 0 -53.5 -18t-47.5 -53l-46 43q24 43 65.5 70.5t86.5 27.5q47 0 110 -36q24 -15 34 -20.5t25 -10t31 -4.5q50 0 97 71zM486 254l45 -44q-59 -99 -141 -99q-47 0 -116 40q-58 32 -89 32
q-32 0 -54 -18t-48 -53l-46 43q24 44 65 71.5t87 27.5q8 0 15.5 -0.5t15 -2.5t13 -3t13 -4t11.5 -4.5t11.5 -5.5t10 -5.5t10.5 -5.5t9 -5q4 -2 14.5 -8.5t15 -9t13.5 -7t15.5 -6.5t15 -3.5t17.5 -1.5q28 0 49.5 17t47.5 55z" />
    <glyph glyph-name="notequal" unicode="&#x2260;" horiz-adv-x="572" 
d="M418 497l-40 -88h144v-71h-173l-61 -134h234v-70h-264l-52 -116l-57 25l41 91h-141v70h171l60 134h-231v71h260l52 113z" />
    <glyph glyph-name="lessequal" unicode="&#x2264;" horiz-adv-x="572" 
d="M520 101l-466 219v76l466 218v-80l-391 -174v-3l391 -175v-81zM523 -7h-473v71h473v-71z" />
    <glyph glyph-name="greaterequal" unicode="&#x2265;" horiz-adv-x="572" 
d="M55 614l466 -218v-76l-466 -219v81l391 175v2l-391 175v80zM520 -7h-469v71h469v-71z" />
    <glyph glyph-name="lozenge" unicode="&#x25ca;" horiz-adv-x="601" 
d="M553 323l-211 -396h-84l-211 396l213 398h83zM471 323l-168 325h-4l-170 -325l170 -326h3z" />
    </font>
</defs>
</svg>
