<?xml version="1.0" standalone="no"?>
<!DOCTYPE svg PUBLIC "-//W3C//DTD SVG 1.1//EN" "http://www.w3.org/Graphics/SVG/1.1/DTD/svg11.dtd" >
<svg xmlns="http://www.w3.org/2000/svg" xmlns:xlink="http://www.w3.org/1999/xlink" version="1.1">
<metadata>
Created by FontForge 20161003 at Wed Jan  9 08:02:16 2019
 By www-data
Copyright (c) 1985, 1987, 1989, 1992, 1997, 1998, 1999, 2001 Adobe Systems Incorporated.  All Rights Reserved.
</metadata>
<defs>
<font id="BookmanStdLight" horiz-adv-x="620" >
  <font-face 
    font-family="BookmanStdLight"
    font-weight="300"
    font-stretch="normal"
    units-per-em="1000"
    panose-1="2 5 6 4 5 5 5 2 2 4"
    ascent="690"
    descent="-310"
    x-height="484"
    cap-height="681"
    bbox="-188 -251 1266 908"
    underline-thickness="50"
    underline-position="-150"
    unicode-range="U+0020-FB02"
  />
<missing-glyph horiz-adv-x="500" 
d="M0 0v700h500v-700h-500zM250 395l170 255h-340zM280 350l170 -255v510zM80 50h340l-170 255zM50 605v-510l170 255z" />
    <glyph glyph-name="fi" unicode="fi" 
d="M201 484h325v-353q0 -56 14 -77.5t68 -23.5v-30h-265v30h9q42 0 61 24q17 20 17 70v215q0 72 -17.5 92.5t-88.5 20.5h-123v-321q0 -57 13.5 -78.5t68.5 -22.5v-30h-263v30q48 2 66.5 18.5t18.5 60.5v343h-85v32h85v36q0 50 7.5 83.5t35.5 60.5q34 33 85 51.5t102 18.5
q79 0 137 -42q55 -39 55 -85q0 -24 -14 -38t-38 -14q-23 0 -38 17q-15 15 -15 47q-1 15 -1.5 21t-5 14t-13.5 17q-28 28 -78 28q-82 0 -111 -57q-13 -25 -13 -74q0 -9 0.5 -26t0.5 -24v-34z" />
    <glyph glyph-name="fl" unicode="fl" 
d="M524 717v-585q0 -57 14 -78.5t68 -23.5v-30h-262v30q54 3 69 25.5t15 76.5v417q0 69 -8 97q-9 27 -36.5 40.5t-59.5 13.5q-35 0 -65.5 -15t-45.5 -43q-13 -24 -13 -74q0 -9 0.5 -26t0.5 -24v-34h100v-32h-100v-320q0 -56 14.5 -78.5t68.5 -23.5v-30h-264v30q53 0 69 24
t16 78v320h-85v32h85v36q0 49 7.5 82t34.5 61q69 71 173 71h15l74 -4l107 -13h8z" />
    <glyph glyph-name=".notdef" horiz-adv-x="500" 
d="M0 0v700h500v-700h-500zM250 395l170 255h-340zM280 350l170 -255v510zM80 50h340l-170 255zM50 605v-510l170 255z" />
    <glyph glyph-name=".null" horiz-adv-x="0" 
 />
    <glyph glyph-name="nonmarkingreturn" horiz-adv-x="333" 
 />
    <glyph glyph-name="space" unicode=" " horiz-adv-x="320" 
 />
    <glyph glyph-name="exclam" unicode="!" horiz-adv-x="300" 
d="M211 58q0 -27 -18.5 -46.5t-45.5 -19.5q-26 0 -45 19t-19 45q0 27 18.5 47t45.5 20q26 0 45 -19t19 -46zM166 164h-38v25q0 95 -18 190l-23 113q-12 60 -12 108q0 98 72 98t72 -98q0 -53 -11 -108l-23 -113q-19 -100 -19 -190v-25z" />
    <glyph glyph-name="quotedbl" unicode="&#x22;" horiz-adv-x="380" 
d="M109 458h-20l-33 196v5q0 14 13.5 26.5t29.5 12.5t29.5 -12.5t13.5 -26.5v-5zM290 458h-20l-33 196v5q0 14 13.5 26.5t29.5 12.5t29.5 -12.5t13.5 -26.5v-5z" />
    <glyph glyph-name="numbersign" unicode="#" 
d="M531 280v-58h-109l-31 -222h-58l31 222h-134l-33 -222h-58l33 222h-107v58h116l21 135h-110v59h118l31 207h58l-31 -207h133l30 207h58l-30 -207h97v-59h-105l-20 -135h100zM393 415h-133l-21 -135h134z" />
    <glyph glyph-name="dollar" unicode="$" 
d="M293 791h41v-122q44 -1 93.5 -17.5t89 -52.5t39.5 -81q0 -26 -17.5 -43.5t-43.5 -17.5q-24 0 -40 16.5t-16 40.5v32q0 44 -44 67q-34 16 -80 16q-88 0 -128 -31.5t-40 -69.5q0 -20 5.5 -37t13.5 -28.5t22 -21.5t24.5 -15t28 -10t26.5 -6.5t26 -4t20 -3.5q11 -2 41 -7
l42 -7t38 -7.5t38 -10t32.5 -12.5t30.5 -16.5t23.5 -21t19.5 -26.5t10.5 -33t4.5 -41q0 -47 -24.5 -85.5t-63.5 -62t-82.5 -37.5t-88.5 -18v-126h-40v126q-42 4 -81 12.5t-82.5 25.5t-70 48.5t-26.5 73.5q0 33 20 54t53 21q26 0 43 -17.5t17 -43.5q0 -11 -3.5 -32t-3.5 -31
q0 -25 27 -42t60.5 -23t66.5 -6q90 0 136.5 35.5t46.5 91.5q0 51 -41 75.5t-142 41.5q-55 9 -86 16t-70.5 20.5t-60 30.5t-35 45t-14.5 66q0 60 39 105t93.5 65t112.5 20v122z" />
    <glyph glyph-name="percent" unicode="%" horiz-adv-x="900" 
d="M188 698q56 0 95.5 -34t56 -81.5t16.5 -101.5q0 -80 -34 -134q-22 -35 -57 -56t-75 -21q-82 0 -125 63.5t-43 149.5q0 85 43 150t123 65zM188 305q96 0 96 175q0 183 -97 183q-29 0 -49 -20t-28.5 -52.5t-12 -60t-3.5 -55.5q0 -170 94 -170zM706 420q83 0 125 -65
t42 -152q0 -78 -33 -134q-22 -35 -57 -56t-75 -21q-56 0 -95.5 32.5t-56.5 79.5t-17 102q0 84 43.5 149t123.5 65zM706 27q95 0 95 181q0 177 -96 177q-29 0 -49 -19.5t-29 -50.5t-12.5 -58t-3.5 -55t3.5 -54t12.5 -55.5t29 -47.5t50 -18zM711 681l-464 -681h-58l464 681h58
z" />
    <glyph glyph-name="ampersand" unicode="&#x26;" horiz-adv-x="800" 
d="M767 458v-30q-59 -10 -77.5 -29t-33.5 -77q-29 -118 -69 -174q28 -40 46 -59.5t50 -35.5t73 -16h31v-37h-84q-38 0 -56 1.5t-43 8t-42.5 23t-34.5 44.5q-96 -94 -219 -94q-105 0 -177 51q-39 28 -62.5 73t-23.5 92q0 77 56.5 134t135.5 76q-69 56 -69 138q0 70 54 110.5
t127 40.5q61 0 105 -36t44 -95q0 -54 -41.5 -98t-97.5 -60q106 -83 200 -211q48 78 48 166q0 10 -2 18t-4 14t-8.5 10.5t-9 7t-13 5.5t-12.5 3.5t-15.5 3t-15.5 2.5v30h240zM324 439q45 14 72.5 50.5t27.5 82.5q0 39 -23 63.5t-62 24.5q-37 0 -59.5 -28t-22.5 -65
q0 -59 67 -128zM267 376q-57 -13 -86.5 -56t-29.5 -104q0 -82 47.5 -134.5t128.5 -52.5q106 0 179 89q-120 174 -239 258z" />
    <glyph glyph-name="quotesingle" unicode="'" horiz-adv-x="220" 
d="M120 458h-20l-33 196v5q0 14 13.5 26.5t29.5 12.5t29.5 -12.5t13.5 -26.5v-5z" />
    <glyph glyph-name="parenleft" unicode="(" horiz-adv-x="300" 
d="M278 727v-38q-68 -20 -90 -143q-14 -76 -14 -255q0 -180 14 -256q22 -123 90 -142v-38q-68 6 -114 49t-66 117q-22 80 -22 270q0 189 22 269q20 74 66 117t114 50z" />
    <glyph glyph-name="parenright" unicode=")" horiz-adv-x="300" 
d="M17 -146v38q69 21 91 143q13 72 13 258q0 181 -13 253q-22 122 -91 143v38q66 -7 113 -53t66 -114q23 -83 23 -269q0 -187 -23 -270q-19 -68 -66 -114t-113 -53z" />
    <glyph glyph-name="asterisk" unicode="*" horiz-adv-x="440" 
d="M192 485l-36 -52q-29 -45 -59 -45q-18 0 -30.5 11t-12.5 29q0 27 16.5 39.5t47.5 18.5l68 13v23l-70 9q-62 6 -62 49q0 19 12 31t31 12q27 0 56 -35l39 -49l19 12l-22 63q-9 22 -9 39q0 45 43 45t43 -45q0 -12 -9 -39l-23 -63l20 -12l39 49q27 35 55 35q19 0 31 -12
t12 -31q0 -44 -61 -50l-69 -8v-23l67 -14q19 -4 30.5 -8t22 -15t10.5 -29t-12 -31.5t-30 -13.5q-29 0 -60 45l-35 52l-20 -12l19 -59q8 -24 8 -41q0 -48 -41 -48q-18 0 -27.5 13t-9.5 32q0 12 9 44l19 59z" />
    <glyph glyph-name="plus" unicode="+" horiz-adv-x="600" 
d="M265 300v213h76v-213h214v-76h-214v-216h-76v216h-214v76h214z" />
    <glyph glyph-name="comma" unicode="," horiz-adv-x="320" 
d="M115 -114l-11 20q63 33 75 100q-19 -14 -36 -14q-24 0 -38.5 15.5t-14.5 40.5q0 27 17.5 46.5t43.5 19.5q35 0 53.5 -25t18.5 -61q0 -48 -30.5 -86.5t-77.5 -55.5z" />
    <glyph glyph-name="hyphen" unicode="-" horiz-adv-x="400" 
d="M350 292l-30 -60h-270l30 60h270z" />
    <glyph glyph-name="period" unicode="." horiz-adv-x="320" 
d="M220 60q0 -27 -18 -47t-46 -21q-27 2 -45.5 20.5t-18.5 45.5q0 26 18.5 45.5t44.5 19.5q27 0 46 -18t19 -45z" />
    <glyph glyph-name="slash" unicode="/" horiz-adv-x="600" 
d="M532 717l-372 -866h-86l372 866h86z" />
    <glyph glyph-name="zero" unicode="0" 
d="M308 698q71 0 126.5 -32t87.5 -84.5t48 -115t16 -129.5q0 -137 -59 -230q-35 -57 -92 -90.5t-123 -33.5q-63 0 -116.5 29.5t-89.5 82.5q-66 98 -66 244q0 49 9.5 98.5t31 97t52 83.5t76 58t99.5 22zM314 33q35 0 63 15t44.5 42t28.5 57.5t17 68.5t7 67t2 60
q0 305 -165 305q-55 0 -95 -42q-25 -28 -44 -87q-22 -79 -22 -181q0 -305 164 -305z" />
    <glyph glyph-name="one" unicode="1" 
d="M382 681v-530q0 -78 18.5 -96.5t100.5 -24.5v-30h-341v30q6 1 23.5 3.5t27.5 4t24 5.5t23 9q17 8 21 29q3 12 3 49v382q0 70 -16.5 89t-85.5 19h-20v30l185 31h37z" />
    <glyph glyph-name="two" unicode="2" 
d="M576 187l-49 -187h-485v70q147 86 233 173q145 145 145 267q0 63 -38 100.5t-101 37.5q-46 0 -94.5 -26.5t-48.5 -68.5q0 -21 15 -39q18 -22 18 -40q0 -21 -18 -36.5t-39 -15.5q-31 0 -49 25t-18 57q0 82 76 141q68 53 170 53q97 0 164 -44q36 -25 59 -66.5t23 -84.5
q0 -52 -28 -106.5t-68.5 -98t-98 -87.5t-102.5 -72.5t-96 -56.5v-2h220q78 0 106.5 17t58.5 86l6 14z" />
    <glyph glyph-name="three" unicode="3" 
d="M287 355l-65 -5v46l46 -2q71 0 117.5 31.5t46.5 98.5q0 60 -36 95t-97 35q-44 0 -85 -20t-41 -59q0 -6 8 -27q9 -16 9 -29q0 -22 -16 -36t-39 -14q-27 0 -42.5 19.5t-15.5 46.5q0 66 70 117q64 46 158 46q89 0 151 -35q38 -21 62 -56t24 -76q0 -64 -56 -108
q-36 -28 -107 -44v-2q86 -13 141.5 -57.5t55.5 -125.5q0 -48 -26 -91t-68 -70q-78 -50 -193 -50q-93 0 -160 37q-89 51 -89 122q0 27 17.5 47.5t44.5 20.5q25 0 40 -16.5t15 -41.5q0 -9 -5 -24q-4 -12 -4 -19q0 -18 14.5 -34.5t33.5 -25.5q40 -20 99 -20q78 0 122.5 43.5
t44.5 120.5q0 162 -175 162z" />
    <glyph glyph-name="four" unicode="4" 
d="M451 681v-437h149l-22 -58h-127v-47q0 -50 7 -70q9 -22 27.5 -29.5t48.5 -9.5h18v-30h-293v30h13q20 1 30.5 3t25 9.5t20.5 21.5q9 20 9 73v49h-316l-16 42l166 218l166 235h94zM357 244v352h-2l-236 -320l-23 -32h261z" />
    <glyph glyph-name="five" unicode="5" 
d="M519 717l-18 -118h-341v-200q75 63 170 63q106 0 180 -60.5t74 -164.5q0 -117 -81.5 -185.5t-200.5 -68.5q-78 0 -148 31q-39 18 -66.5 49t-27.5 70q0 26 17 45.5t43 19.5q25 0 41.5 -17t16.5 -41q0 -7 -5 -22.5t-5 -23.5q0 -32 40.5 -49t77.5 -17q83 0 133.5 54
t50.5 137q0 80 -40 128q-48 58 -130 58q-102 0 -159 -93l-42 10v359h320q13 0 20.5 1t17 4t15 10.5t8.5 20.5h39z" />
    <glyph glyph-name="six" unicode="6" 
d="M157 384v-43h2q62 93 189 93q101 0 171.5 -60t70.5 -159q0 -104 -80.5 -168t-187.5 -64q-61 0 -117 25t-93 71q-67 83 -67 236q0 164 67 260q41 59 104.5 91t135.5 32q73 0 142 -36q73 -41 73 -96q0 -22 -14.5 -36t-37.5 -14q-31 0 -48 22.5t-17 54.5q0 30 -33 43.5
t-69 13.5q-103 0 -152 -93q-39 -76 -39 -173zM330 382q-81 0 -123.5 -50.5t-42.5 -132.5q0 -73 41 -120t113 -47q78 0 120 49.5t42 128.5q0 72 -39.5 122t-110.5 50z" />
    <glyph glyph-name="seven" unicode="7" 
d="M578 681l8 -63q-104 -113 -186 -278l-65 -158q-22 -73 -31 -182h-131q26 151 125 321q93 158 213 276h-256q-37 0 -56.5 -2t-43 -10.5t-38 -28.5t-25.5 -53h-32l32 178h486z" />
    <glyph glyph-name="eight" unicode="8" 
d="M406 386v-1q81 -26 129 -67.5t48 -114.5q0 -48 -23.5 -91t-62.5 -72q-75 -57 -194 -57q-92 0 -163 42q-43 25 -69.5 63t-26.5 84q0 71 46.5 116.5t119.5 62.5v2q-129 43 -129 156q0 90 71 139.5t164 49.5q40 0 80 -9t76.5 -27t59.5 -51.5t23 -76.5q0 -59 -43 -97
t-106 -51zM290 423l64 -20q53 11 86.5 45t33.5 86q0 57 -43 90.5t-101 33.5q-63 0 -111.5 -33t-48.5 -93q0 -74 120 -109zM365 302l-105 32q-128 -47 -128 -160q0 -73 53 -111t129 -38q71 0 126 37.5t55 105.5q0 95 -130 134z" />
    <glyph glyph-name="nine" unicode="9" 
d="M469 303v48h-2q-27 -52 -78 -78.5t-114 -26.5q-93 0 -159 51q-36 28 -57.5 72.5t-21.5 90.5q0 106 80 172t188 66q62 0 117 -25t92 -73q62 -81 62 -239q0 -170 -64 -262q-40 -57 -102.5 -86.5t-135.5 -29.5q-72 0 -132 33q-29 15 -52 40t-23 52q0 21 13.5 36.5t34.5 15.5
q36 0 56 -36q6 -13 8 -36q0 -2 0.5 -5.5t0.5 -5t0.5 -4t1 -4t1.5 -3.5t2 -3.5t2.5 -3.5t3 -3.5t4.5 -3.5q31 -24 87 -24q53 0 91.5 25t58.5 67.5t28.5 87.5t8.5 95zM305 653q-78 0 -119.5 -50.5t-41.5 -130.5q0 -74 39.5 -124t111.5 -50q78 0 121 50t43 129t-37 124
q-44 52 -117 52z" />
    <glyph glyph-name="colon" unicode=":" horiz-adv-x="320" 
d="M220 58q0 -27 -18.5 -46.5t-45.5 -19.5q-26 0 -45 18.5t-19 45.5t18.5 47t44.5 20t45.5 -19t19.5 -46zM220 431q0 -28 -18.5 -48t-45.5 -20q-26 0 -45 19.5t-19 46.5q0 26 18.5 45.5t44.5 19.5q27 0 46 -18t19 -45z" />
    <glyph glyph-name="semicolon" unicode=";" horiz-adv-x="320" 
d="M115 -114l-11 20q63 33 75 100q-19 -14 -36 -14q-24 0 -38.5 15.5t-14.5 40.5q0 27 17.5 46.5t43.5 19.5q35 0 53.5 -25t18.5 -61q0 -48 -30.5 -86.5t-77.5 -55.5zM218 431q0 -28 -18.5 -48t-45.5 -20q-26 0 -45 19.5t-19 46.5q0 26 18.5 45.5t44.5 19.5t45.5 -18.5
t19.5 -44.5z" />
    <glyph glyph-name="less" unicode="&#x3c;" horiz-adv-x="600" 
d="M144 262l414 -191v-73l-509 232v64l509 232v-73z" />
    <glyph glyph-name="equal" unicode="=" horiz-adv-x="600" 
d="M555 398v-76h-504v76h504zM555 202v-76h-504v76h504z" />
    <glyph glyph-name="greater" unicode="&#x3e;" horiz-adv-x="600" 
d="M48 71l414 191l-414 191v73l509 -232v-64l-509 -232v73z" />
    <glyph glyph-name="question" unicode="?" horiz-adv-x="540" 
d="M257 164h-47v56q0 55 16 80.5t64 58.5l36 25q41 28 60 59.5t19 78.5q0 65 -36.5 100.5t-101.5 35.5q-75 0 -118 -35q-27 -22 -27 -49q0 -17 10.5 -37t10.5 -32q0 -22 -16.5 -35.5t-38.5 -13.5q-28 0 -44.5 21.5t-16.5 49.5q0 37 23 71t56 56q67 44 166 44q62 0 115 -18.5
t90 -62t37 -106.5q0 -58 -39 -109q-29 -36 -111 -66q-25 -9 -36.5 -14t-28.5 -18t-26 -29q-16 -31 -16 -94v-17zM299 58q0 -27 -18.5 -46.5t-45.5 -19.5q-26 0 -45 18.5t-19 45.5q0 26 18.5 46.5t44.5 20.5t45.5 -19.5t19.5 -45.5z" />
    <glyph glyph-name="at" unicode="@" horiz-adv-x="820" 
d="M703 185h42q-37 -92 -128.5 -147t-196.5 -55q-153 0 -259 105t-106 253q0 145 106.5 251t256.5 106q139 0 238 -83.5t99 -216.5q0 -99 -64 -177q-33 -40 -81 -67t-96 -27q-29 0 -53.5 15t-28.5 40q-56 -54 -121 -54q-55 0 -87.5 39.5t-32.5 94.5q0 63 27 128.5
t81.5 112.5t122.5 47q34 0 63 -15t37 -44h2l12 44h85l-94 -264q-25 -68 -25 -90q0 -20 25 -20q50 0 107 51q75 74 75 189q0 108 -86 179.5t-200 71.5q-135 0 -228.5 -88.5t-93.5 -218.5q0 -133 91.5 -224.5t228.5 -91.5q88 0 164.5 42t117.5 114zM445 282l50 141q8 22 8 31
q0 28 -15.5 48.5t-44.5 20.5q-48 0 -90.5 -61.5t-63 -131.5t-20.5 -116q0 -25 15.5 -40.5t41.5 -15.5q75 0 119 124z" />
    <glyph glyph-name="A" unicode="A" horiz-adv-x="680" 
d="M389 681l206 -525l9 -22.5t9.5 -23t9.5 -20t11.5 -19.5l13.5 -15t18 -14t21.5 -7.5t26.5 -4.5v-30h-281v30q78 9 78 50q0 18 -15 55l-45 118h-257l-28 -75q-23 -60 -23 -83q0 -34 22.5 -47.5t65.5 -17.5v-30h-268v30l11 2q36 8 53.5 21t36.5 46q22 39 65 153l167 429h93z
M208 298h225l-114 297z" />
    <glyph glyph-name="B" unicode="B" horiz-adv-x="740" 
d="M384 0h-353v30l10 1q56 4 71 32q10 20 10 71v419q0 47 -13.5 70t-61.5 26l-16 2v30h343q125 0 181 -20q50 -17 80.5 -54t30.5 -88q0 -60 -40.5 -95t-103.5 -47v-2q75 -12 127.5 -55.5t52.5 -115.5q0 -116 -106 -170q-68 -34 -212 -34zM222 390h110q31 0 49.5 1t50 4
t51 11.5t39.5 21.5t30 36t10 53q0 128 -205 128q-91 0 -116 -21q-19 -17 -19 -72v-162zM222 350v-191q0 -71 18 -91q24 -26 116 -26q106 0 161 31q35 20 54 55t19 77q0 49 -23 86t-69 48q-47 11 -148 11h-128z" />
    <glyph glyph-name="C" unicode="C" horiz-adv-x="740" 
d="M633 672l48 -241h-32l-4 8q-55 105 -87 140q-65 69 -166 69q-115 0 -177 -98q-51 -82 -51 -216q0 -131 56 -207q33 -45 84 -69.5t108 -24.5q75 0 142 41.5t105 108.5l43 -24q-49 -86 -128 -131t-178 -45q-155 0 -253.5 100.5t-98.5 255.5q0 147 95.5 253t240.5 106
q120 0 199 -72l22 46h32z" />
    <glyph glyph-name="D" unicode="D" horiz-adv-x="800" 
d="M31 0v30l9 1q54 6 69 32q11 20 11 72v417q0 47 -13.5 70.5t-61.5 27.5l-14 1v30h296q198 0 293 -67q62 -45 97 -121.5t35 -156.5t-33 -152t-94 -117q-41 -30 -96 -46t-95 -18.5t-107 -2.5h-296zM220 536v-395q0 -61 20 -79q24 -20 105 -20q140 0 213.5 80t73.5 223
q0 148 -77 224q-73 73 -211 73q-91 0 -110 -27q-14 -20 -14 -79z" />
    <glyph glyph-name="E" unicode="E" horiz-adv-x="720" 
d="M604 681l69 -179l-32 -13q-62 78 -130.5 114t-165.5 36q-74 0 -98 -19q-26 -20 -26 -77v-154h67q74 0 98.5 23.5t33.5 99.5h34v-299h-34q-6 57 -26 87q-18 27 -42.5 34.5t-65.5 7.5h-65v-199q0 -50 15 -70q22 -30 102 -30q111 0 187.5 44.5t147.5 139.5l32 -14l-91 -213
h-583v30l10 1q1 0 8 1t8.5 1t7.5 1t8 1.5t7.5 2t8 3t6.5 4t6 5t5 6t5 7.5q10 19 10 71v419q0 47 -13.5 70.5t-61.5 26.5l-15 1v30h573z" />
    <glyph glyph-name="F" unicode="F" horiz-adv-x="640" 
d="M582 681l72 -170l-32 -16q-111 144 -284 144q-81 0 -101 -21q-16 -17 -16 -68v-164h59q78 0 103.5 23t32.5 101h30v-296h-30q-8 74 -35.5 101t-100.5 27h-59v-214q0 -49 14 -71.5t64 -25.5l20 -1v-30h-288v30l10 1q55 2 69 32q11 20 11 72v418q0 47 -13.5 70.5
t-61.5 26.5l-15 1v30h551z" />
    <glyph glyph-name="G" unicode="G" horiz-adv-x="800" 
d="M623 681l61 -213l-38 -11q-121 191 -263 191q-76 0 -127.5 -50t-71.5 -116.5t-20 -139.5q0 -121 50 -202q31 -50 80 -78.5t106 -28.5q81 0 141 43.5t60 121.5q0 49 -23 69.5t-74 26.5v30h274v-30l-8 -1q-52 -4 -66 -32q-10 -20 -10 -71v-190h-48l-31 69q-99 -86 -224 -86
q-152 0 -249.5 103.5t-97.5 255.5q0 146 86 243q46 52 112 82.5t134 30.5q111 0 197 -65l19 48h31z" />
    <glyph glyph-name="H" unicode="H" horiz-adv-x="800" 
d="M120 156v397q0 31 -3.5 48.5t-20.5 32t-50 16.5l-15 1v30h282v-30h-11q-57 -4 -71 -33q-11 -23 -11 -82v-149h359v165q0 32 -3.5 49t-21 32t-50.5 17l-15 1v30h280v-30h-10q-56 -6 -69 -33q-11 -20 -11 -72v-418q0 -47 13.5 -70.5t61.5 -26.5l15 -1v-30h-280v30h10
q54 4 69 33q11 23 11 81v201h-359v-214q0 -25 2 -39t9 -29t23 -22.5t42 -9.5l17 -1v-30h-282v30h10q55 6 69 33q10 20 10 71v22z" />
    <glyph glyph-name="I" unicode="I" horiz-adv-x="340" 
d="M116 156v388q0 26 -1.5 40.5t-8.5 31t-22.5 25t-40.5 10.5h-12v30h270v-30h-12q-25 -2 -40.5 -10.5t-22.5 -25t-8.5 -31t-1.5 -40.5v-417q0 -31 3.5 -48t19.5 -31t47 -17l15 -1v-30h-270v30l15 1q44 4 57 27t13 69v29z" />
    <glyph glyph-name="J" unicode="J" horiz-adv-x="600" 
d="M479 525v-253q0 -101 -7 -137q-17 -75 -88 -113.5t-155 -38.5q-102 0 -169 49q-37 28 -60 69.5t-23 85.5q0 38 21 63t57 25q24 0 39 -14t15 -38q0 -25 -21 -45.5t-21 -41.5q0 -37 36 -65q47 -38 115 -38q113 0 146 103q15 46 15 188v226q0 33 -3.5 50.5t-20.5 32.5
t-51 17l-14 1v30h277v-30l-9 -1q-53 -2 -69 -32q-10 -19 -10 -71v-22z" />
    <glyph glyph-name="K" unicode="K" horiz-adv-x="720" 
d="M422 451l181 -300q35 -57 64.5 -84.5t82.5 -36.5v-30h-304v30l18 1q18 2 28.5 4.5t21 12t10.5 25.5q0 19 -29 66l-152 247l-122 -110v-143q0 -48 9 -68q14 -32 75 -34l20 -1v-30h-294v30l10 1q54 2 70 32q10 19 10 71v419q0 47 -13.5 70.5t-61.5 26.5l-15 1v30h294v-30
l-20 -1q-59 -2 -74 -32q-10 -20 -10 -72v-206l241 219q28 24 28 48q0 25 -17 33t-51 11v30h281v-30l-16 -5q-70 -21 -156 -98z" />
    <glyph glyph-name="L" unicode="L" horiz-adv-x="600" 
d="M629 213l-80 -213h-518v30l9 1q52 2 68 32q10 19 10 71v418q0 31 -3.5 48.5t-20.5 32t-50 17.5l-13 1v30h284v-30l-13 -1q-14 -1 -21.5 -2t-19 -4t-19.5 -9.5t-13 -16.5q-11 -20 -11 -73v-410q0 -53 10 -69q16 -28 76 -28q174 0 297 188z" />
    <glyph glyph-name="M" unicode="M" horiz-adv-x="920" 
d="M453 0h-43l-232 628h-2v-472q0 -65 11 -90q15 -33 74 -35l18 -1v-30h-253v30h11q58 4 72 33q11 20 11 72v415q0 25 -2 39t-9 29.5t-23.5 23t-42.5 8.5l-17 1v30h239l191 -513l211 513h227v-30h-10q-55 -6 -69 -33q-11 -20 -11 -72v-418q0 -47 13.5 -70.5t61.5 -26.5
l15 -1v-30h-277v30h9q54 6 67 33q11 20 11 72v475h-2z" />
    <glyph glyph-name="N" unicode="N" horiz-adv-x="740" 
d="M171 606v-475q0 -50 14 -73.5t64 -26.5l20 -1v-30h-243v30h10q54 4 69 33q10 20 10 71v419q0 31 -3.5 48.5t-20.5 32t-50 16.5l-15 1v30h221l326 -542h2v413q0 49 -14 72t-64 26l-20 1v30h245v-30l-11 -1q-56 -4 -70 -32q-10 -20 -10 -71v-547h-86l-372 606h-2z" />
    <glyph glyph-name="O" unicode="O" horiz-adv-x="800" 
d="M404 698q156 0 255 -103t99 -260q0 -151 -103.5 -251.5t-254.5 -100.5q-150 0 -253 103t-103 253q0 153 103.5 256t256.5 103zM400 648q-114 -3 -175 -86t-61 -227q0 -78 23.5 -144t79 -112t135.5 -46q79 0 134.5 45t78.5 110t23 143q0 139 -59.5 228t-171.5 89h-7z" />
    <glyph glyph-name="P" unicode="P" 
d="M219 298v-165q0 -47 9 -67q5 -11 13 -18t19.5 -10.5t19.5 -4.5t23 -2l20 -1v-30h-292v30l9 1q54 4 68 32q11 23 11 82v408q0 31 -3.5 48.5t-20.5 32t-50 16.5l-14 1v30h327q107 0 168 -36q41 -25 64 -65t23 -88q0 -95 -73 -149q-59 -45 -183 -45h-138zM219 335h123
q46 0 76 8t54 34q40 43 40 114q0 72 -47 115q-41 36 -120 36q-87 0 -112 -19q-14 -10 -14 -48v-240z" />
    <glyph glyph-name="Q" unicode="Q" horiz-adv-x="820" 
d="M672 91q45 -51 45 -94q0 -94 -116 -149q-82 -37 -202 -37q-107 0 -192 33q-103 41 -103 99q0 23 16 34.5t40 11.5q27 0 43 -16t16 -43q1 -19 5 -26.5t21 -18.5q50 -30 152 -30q77 0 139 26q39 16 65 44t26 65q0 28 -17 52q-87 -59 -207 -59q-147 0 -253 101.5t-106 248.5
q0 155 105.5 260t260.5 105q157 0 258 -102t101 -259q0 -150 -97 -246zM603 142l6 -2q40 75 40 203q0 78 -22.5 144.5t-77.5 113.5t-135 47q-82 0 -140.5 -48t-84 -117t-25.5 -149q0 -114 50 -198.5t153 -102.5l2 2q-36 20 -36 52q0 30 26.5 49.5t55.5 25.5t59 6
q57 0 129 -26zM568 85q-46 25 -103 25q-28 0 -56 -10t-28 -33q0 -17 20.5 -24t41.5 -7q32 0 68.5 13.5t56.5 35.5z" />
    <glyph glyph-name="R" unicode="R" horiz-adv-x="720" 
d="M484 331l160 -226q24 -34 49.5 -51t63.5 -24v-30h-167l-223 322h-140v-190q0 -50 14 -74.5t64 -27.5h21v-30h-295v30l13 1q14 1 21.5 2t19 4t19.5 9.5t13 16.5q10 20 10 71v419q0 24 -2 38.5t-9.5 28.5t-23.5 21.5t-42 8.5l-19 1v30h398q47 0 86.5 -8t75.5 -26.5
t56.5 -54.5t20.5 -86q0 -74 -53.5 -121t-130.5 -54zM227 364h150q89 0 129 28q57 39 57 115q0 136 -193 136q-87 0 -118 -18q-16 -10 -20.5 -22t-4.5 -34v-205z" />
    <glyph glyph-name="S" unicode="S" horiz-adv-x="660" 
d="M525 681l61 -181l-32 -12q-101 160 -250 160q-54 0 -100 -28t-46 -78q0 -23 11 -41.5t23.5 -29t38 -20.5t38 -13.5t40.5 -10.5l102 -24q41 -10 66 -17.5t58.5 -23t52.5 -34.5t32.5 -49.5t13.5 -70.5q0 -103 -82.5 -164t-188.5 -61q-132 0 -214 68l-19 -51h-37l-65 229
l37 12q42 -89 118.5 -148.5t168.5 -59.5q72 0 127.5 39.5t55.5 108.5q0 30 -9.5 50.5t-36 34.5t-39 18.5t-52.5 14.5l-3 1.5t-3 1t-4 0.5l-111 27q-102 27 -143 54q-34 21 -54.5 56t-20.5 73q0 86 73 141q62 45 161 45q111 0 184 -53l12 36h36z" />
    <glyph glyph-name="T" unicode="T" 
d="M600 681l56 -176l-36 -12q-34 66 -92 108t-129 42q-25 0 -32 -10.5t-7 -34.5v-456q0 -53 9 -76q6 -15 20.5 -23t24.5 -9.5t31 -2.5h21v-31h-310v30l19 1q16 1 22.5 2t19 4t20 9.5t12.5 16.5q11 23 11 81v447q0 20 -2 29t-11 15.5t-29 6.5q-73 0 -129.5 -40t-92.5 -109
l-33 12l56 176h581z" />
    <glyph glyph-name="U" unicode="U" horiz-adv-x="780" 
d="M510 681h244v-30h-9q-54 -4 -69 -33q-11 -22 -11 -81v-321q0 -67 -13 -107t-57 -75q-66 -51 -196 -51q-128 0 -198 46q-52 34 -68 75t-16 110v336q0 25 -2 39t-9 29t-23 22.5t-42 9.5l-16 1v30h291v-30l-14 -1q-19 -1 -29.5 -2t-24.5 -8.5t-21 -21.5q-10 -19 -10 -71
v-265q0 -8 -0.5 -27.5t-0.5 -29.5q0 -85 25 -123q46 -69 172 -69q121 0 166 67q30 44 30 157v293q0 50 -14 73.5t-65 26.5l-20 1v30z" />
    <glyph glyph-name="V" unicode="V" horiz-adv-x="700" 
d="M367 106l169 429q14 34 14 53q0 25 -15.5 39t-31.5 17.5t-44 6.5v30h266v-30q-42 -4 -66 -17q-5 -3 -10.5 -7.5t-10.5 -10.5t-9 -12t-8.5 -14.5t-7.5 -14t-7.5 -15.5t-6.5 -14t-6 -14t-5 -12l-213 -520h-65l-219 535q-27 65 -43 83q-27 29 -78 33v30h296v-30q-3 0 -14 -1
l-16.5 -1.5t-15.5 -2.5t-15.5 -5t-11.5 -7.5t-9 -11.5t-3 -16q0 -21 14 -53z" />
    <glyph glyph-name="W" unicode="W" horiz-adv-x="960" 
d="M678 0h-63l-145 437h-2l-144 -437h-61l-183 528q-22 68 -41 91q-4 5 -9.5 9t-10.5 7t-12.5 5.5t-11.5 3.5t-13 3.5t-12 3.5v30h275v-30q-21 -1 -33.5 -3.5t-25 -13.5t-12.5 -30q0 -10 9 -42l141 -425h2l115 378q-19 65 -40.5 93.5t-75.5 42.5v30h276v-30q-4 -1 -16 -2.5
t-17.5 -3t-14.5 -4.5t-13.5 -7.5t-8 -12.5t-3.5 -18t8 -34l141 -432h2l128 404q9 29 9 47q0 55 -82 63v30h250v-30q-35 -1 -58.5 -18.5t-31.5 -34t-22 -56.5q-2 -4 -3 -7l-2 -6z" />
    <glyph glyph-name="X" unicode="X" horiz-adv-x="720" 
d="M419 370l186 -238q39 -52 67.5 -73t82.5 -29v-30h-328v30q3 1 18 3t23 4t19 6t16.5 11.5t5.5 18.5q0 22 -32 63l-134 178l-145 -181q-22 -29 -22 -49q0 -26 18 -36.5t51 -16.5q5 -1 7 -1v-30h-282v30l14 8q15 7 37.5 20t47.5 29t51 37.5t43 42.5l150 187l-164 209
q-20 26 -29 36t-26 24t-35 20t-44 8v30h310v-30q-2 0 -11 -0.5t-12.5 -1t-12 -1.5t-12.5 -3t-10 -4.5t-9 -6.5t-5.5 -9.5t-2.5 -12.5q0 -21 24 -49l116 -152l111 140q27 37 27 59q0 41 -70 41v30h271v-30q-2 0 -17.5 -3.5t-38 -11.5t-34.5 -16q-32 -22 -96 -98z" />
    <glyph glyph-name="Y" unicode="Y" horiz-adv-x="640" 
d="M354 281v-133q0 -25 1 -38.5t5 -31t12.5 -26.5t24.5 -15.5t40 -6.5h21v-30h-311v30h21q15 1 22.5 2t19.5 4t20 10t13 17q11 20 11 72v149l-159 256q-37 61 -54 77q-27 25 -71 34v30h284v-30q-2 0 -12 -1.5t-14.5 -2.5t-14 -3t-14.5 -5t-11 -7t-8.5 -10t-2.5 -13
q0 -15 20 -47l137 -217l133 208q21 34 21 53q0 8 -4 15t-8.5 11t-14 7.5t-15 5t-16 3.5t-13.5 3v30h249v-30q-29 -4 -49.5 -12.5t-38.5 -25.5t-27.5 -29t-29.5 -42q-6 -8 -9 -13z" />
    <glyph glyph-name="Z" unicode="Z" horiz-adv-x="640" 
d="M656 205l-73 -205h-554l-19 31l475 596q-55 12 -114 12q-103 0 -171 -34t-125 -117l-34 12l73 181h501l10 -37l-472 -593l129 -11q61 0 108 7.5t93 26t81.5 54.5t60.5 89z" />
    <glyph glyph-name="bracketleft" unicode="[" horiz-adv-x="300" 
d="M92 -136v853h166v-42q-54 -5 -65 -18t-11 -55v-610q0 -52 11 -66.5t65 -19.5v-42h-166z" />
    <glyph glyph-name="backslash" unicode="\" horiz-adv-x="600" 
d="M74 717h86l372 -717h-86z" />
    <glyph glyph-name="bracketright" unicode="]" horiz-adv-x="300" 
d="M207 717v-853h-166v42q54 6 65 20t11 65v599q0 52 -11 66.5t-65 18.5v42h166z" />
    <glyph glyph-name="asciicircum" unicode="^" horiz-adv-x="600" 
d="M134 276h-82l212 405h78l212 -405h-82l-169 310z" />
    <glyph glyph-name="underscore" unicode="_" horiz-adv-x="500" 
d="M500 -125h-500v50h500v-50z" />
    <glyph glyph-name="grave" unicode="`" horiz-adv-x="340" 
d="M268 571l-125 27q-50 11 -63 24q-12 12 -12 31q0 15 10 25.5t25 10.5q29 0 88 -42l83 -59z" />
    <glyph glyph-name="a" unicode="a" horiz-adv-x="580" 
d="M568 52l19 -26q-35 -34 -98 -34h-4q-39 1 -68.5 19t-40.5 53q-92 -72 -188 -72q-59 0 -106 31t-47 87q0 47 25.5 75.5t73.5 49.5q67 30 168 41l74 8v72q-4 55 -35 76q-32 21 -90 21q-31 0 -63.5 -14t-32.5 -39v-13q0 -60 -51 -60q-18 0 -32.5 13t-14.5 31q0 29 25 55
t56 39q64 27 141 29h4q67 0 130 -33q37 -20 48 -47.5t11 -75.5v-196q0 -105 55 -105q19 0 41 15zM376 108v141q-240 -22 -240 -127q0 -37 26.5 -59t64.5 -22q71 0 149 67z" />
    <glyph glyph-name="b" unicode="b" 
d="M167 58l-25 -58h-55v556q0 47 -13.5 70.5t-61.5 26.5l-14 1v30q91 11 145 33h40v-296q73 73 176 73t163 -71.5t60 -175.5q0 -108 -64 -181.5t-170 -73.5t-181 66zM183 368v-273q51 -56 133 -56q83 0 122.5 58t39.5 144q0 53 -11.5 96.5t-46 77t-88.5 33.5
q-47 0 -80 -19.5t-69 -60.5z" />
    <glyph glyph-name="c" unicode="c" horiz-adv-x="520" 
d="M469 122l29 -19q-71 -111 -214 -111q-112 0 -179.5 67.5t-67.5 179.5q0 115 66 185t180 70q79 0 134 -35q68 -43 68 -98q0 -23 -14 -39t-37 -16q-21 0 -36 13.5t-15 34.5q0 6 2 19t2 19q0 30 -33.5 47t-65.5 17q-135 0 -137 -215v-3q0 -85 40.5 -146t121.5 -61
q49 0 85 23.5t71 67.5z" />
    <glyph glyph-name="d" unicode="d" 
d="M427 444v112q0 47 -13.5 70.5t-61.5 26.5l-14 1v30q91 11 145 33h40v-590q0 -30 3 -47t19 -32.5t46 -17.5v-30h-164v68q-71 -76 -168 -76q-102 0 -162 71.5t-60 175.5q0 109 62.5 182t170.5 73q69 0 157 -50zM427 115v278q-59 54 -132 54q-42 0 -73 -17.5t-48 -47
t-25 -64.5t-8 -75q0 -39 7 -72.5t23 -64.5t46 -49t71 -18q78 0 139 76z" />
    <glyph glyph-name="e" unicode="e" horiz-adv-x="520" 
d="M491 289h-348l-2 -51q0 -74 43 -139q20 -30 54.5 -46t72.5 -16q97 0 147 92l33 -17q-26 -57 -82 -88.5t-122 -31.5q-107 0 -175 65q-75 75 -75 187q0 110 64.5 179.5t174.5 70.5h2q91 0 152 -55.5t61 -145.5v-4zM145 330h240q0 55 -32 89t-83 34t-85 -36t-40 -87z" />
    <glyph glyph-name="f" unicode="f" horiz-adv-x="320" 
d="M300 484v-32h-99v-325q0 -47 13.5 -70t56.5 -26l14 -1v-30h-265v30h9q46 3 61 25.5t15 71.5v325h-85v32h85v41q0 49 7.5 81t35.5 60q32 32 82 50t99 18q30 0 57.5 -14.5t27.5 -42.5q0 -18 -14.5 -31t-32.5 -13q-23 0 -46.5 29t-48.5 29q-26 0 -49 -23q-22 -22 -22 -77
v-107h99z" />
    <glyph glyph-name="g" unicode="g" horiz-adv-x="540" 
d="M206 69l171 -23q28 -4 46.5 -7.5t42.5 -12t38 -20.5t24 -33t10 -49q0 -49 -26 -83.5t-69 -51.5t-86 -24.5t-88 -7.5q-37 0 -75 5t-80.5 18t-69.5 40t-27 65q0 39 30.5 65t73.5 40v2q-32 8 -52.5 29t-20.5 52q0 39 29 67t69 35q-37 22 -58 58t-21 79v6q3 80 61.5 128
t139.5 48q45 0 91 -16q20 38 53 63.5t71 25.5q24 0 41.5 -10.5t17.5 -32.5q0 -15 -10.5 -26.5t-26.5 -11.5q-12 0 -32.5 9t-30.5 9q-20 0 -53 -38q83 -60 83 -150q0 -35 -16.5 -69.5t-44.5 -56.5q-51 -42 -146 -42q-46 0 -90 16q-17 -7 -32.5 -22t-15.5 -31q0 -33 74 -41
q3 -1 5 -1zM272 458q-57 0 -82.5 -39.5t-25.5 -99.5q0 -64 23.5 -101t84.5 -37q27 0 51 12.5t36 34.5q16 31 16 94t-22 99.5t-81 36.5zM355 -43l-197 24q-32 -10 -56.5 -34.5t-24.5 -54.5q0 -31 21 -53t55 -32t63.5 -14t58.5 -4t57.5 4t61.5 13.5t53.5 31t20.5 52.5
q0 13 -4.5 23.5t-16.5 17.5t-19 11.5t-26 7.5t-23.5 4t-23.5 3z" />
    <glyph glyph-name="h" unicode="h" horiz-adv-x="660" 
d="M561 338v-211q0 -47 13.5 -70.5t56.5 -26.5h12v-30h-268v30h12q48 2 63 23.5t15 73.5v215q0 50 -16 72q-24 28 -67 28q-42 0 -93.5 -24t-82.5 -55v-236q0 -48 13 -71t55 -26h13v-30h-267v30h11q48 2 63.5 24t15.5 73v429q0 47 -13.5 70.5t-61.5 26.5l-14 1v30
q91 11 145 33h40v-307q96 84 203 84q68 0 112 -34q18 -14 27.5 -34.5t11 -36.5t1.5 -44v-7z" />
    <glyph glyph-name="i" unicode="i" horiz-adv-x="300" 
d="M205 484v-357q0 -47 14 -70.5t57 -26.5h12v-30h-264v30h9q47 3 61.5 25t14.5 72v208q0 47 -14.5 70.5t-58.5 26.5h-16v30l153 22h32zM218 592q0 -24 -18.5 -41t-42.5 -17q-26 0 -42.5 18t-16.5 44q0 23 18.5 40.5t41.5 17.5q26 0 43 -18t17 -44z" />
    <glyph glyph-name="j" unicode="j" horiz-adv-x="300" 
d="M202 484v-530q0 -36 -2 -55t-12 -43.5t-31 -44.5q-64 -62 -165 -62q-35 0 -68 14.5t-33 45.5q0 18 13 29t32 11q14 0 25.5 -8.5t19 -19t20.5 -19t30 -8.5q32 0 49 17t23 51q3 19 3 79v394q0 47 -14.5 70.5t-58.5 26.5h-16v30l153 22h32zM214 594q0 -24 -17 -43t-41 -19
q-27 0 -45 16.5t-18 43.5q0 26 18 44t44 18q24 0 41.5 -18t17.5 -42z" />
    <glyph glyph-name="k" unicode="k" 
d="M205 717v-466l142 125q2 2 8 7t10 9t8.5 9t7 10.5t2.5 10.5q0 29 -56 32v30h268v-30q-63 -6 -113 -32t-101 -73l-24 -22l139 -202q59 -85 132 -95v-30h-271v30h10h3q36 2 41 19q1 4 1 8q0 19 -32 68l-94 137l-81 -71v-64q0 -51 12.5 -73t57.5 -24h18v-30h-271v30h10
q47 3 62 24.5t15 72.5v429q0 47 -13.5 70.5t-61.5 26.5l-14 1v30q91 11 145 33h40z" />
    <glyph glyph-name="l" unicode="l" horiz-adv-x="300" 
d="M205 717v-590q0 -47 13.5 -70t55.5 -26l12 -1v-30h-262v30h9q46 4 61 26t15 71v429q0 47 -13.5 70.5t-61.5 26.5l-14 1v30q91 11 145 33h40z" />
    <glyph glyph-name="m" unicode="m" horiz-adv-x="940" 
d="M202 376v-249q0 -47 14 -70.5t57 -26.5h11v-30h-255v30q47 4 62 26.5t15 70.5v208q0 47 -14.5 70.5t-58.5 26.5h-16v30l153 22h32v-69q74 79 188 79q51 0 84 -17.5t54 -61.5q39 34 88 56t95 23h4q76 0 113 -50q24 -32 24 -97v-220q0 -47 14.5 -70t61.5 -27v-30h-254v30h8
q45 4 59.5 26t14.5 71v198q0 46 -8 68q-20 49 -71 49q-65 0 -150 -66v-249q0 -49 14.5 -71t59.5 -26h8v-30h-260v30h8q45 4 59.5 26t14.5 71v201q0 26 -2 42t-8.5 34.5t-23 28t-41.5 9.5q-78 0 -154 -66z" />
    <glyph glyph-name="n" unicode="n" horiz-adv-x="660" 
d="M565 350v-224q0 -46 14 -69.5t57 -26.5h13v-30h-266v30h14q44 3 58 26t14 71v206q0 46 -16 73q-22 36 -70 36q-87 0 -178 -80v-235q0 -48 14 -71t58 -26h14v-30h-271v30h11q47 2 62.5 24t15.5 73v208q0 47 -14.5 70.5t-58.5 26.5h-16v30l153 22h32v-79q95 89 213 89
q63 0 108 -40q39 -33 39 -104z" />
    <glyph glyph-name="o" unicode="o" horiz-adv-x="560" 
d="M278 494q111 0 175 -63q35 -35 54 -86t19 -104q0 -114 -66 -181.5t-179 -67.5q-111 0 -177.5 67t-66.5 178q0 115 64 186t177 71zM285 454h-3q-40 0 -69 -20t-44 -53.5t-21.5 -68t-6.5 -72.5q0 -40 6.5 -74t22 -65.5t45.5 -50t73 -18.5q39 0 66.5 18.5t41.5 49.5t20 63.5
t6 69.5q0 96 -25 146q-16 33 -46 54t-66 21z" />
    <glyph glyph-name="p" unicode="p" 
d="M205 41v-142q0 -50 14.5 -72t60.5 -24l20 -1v-30h-276v30h9q46 3 61 25.5t15 71.5v436q0 47 -14.5 70.5t-58.5 26.5h-16v30l153 22h32v-64q63 74 158 74q104 0 162 -71t58 -178q0 -108 -61 -180.5t-167 -72.5q-86 0 -150 49zM205 369v-278q53 -51 121 -51q81 0 117 56.5
t36 142.5q0 39 -6 72.5t-21 65.5t-44.5 50t-71.5 18q-40 0 -74.5 -21t-56.5 -55z" />
    <glyph glyph-name="q" unicode="q" horiz-adv-x="580" 
d="M500 484v-585q0 -47 14.5 -70.5t58.5 -25.5l16 -1v-30h-278v30l12 1q49 2 65 23.5t16 72.5v163q-64 -70 -155 -70q-103 0 -157.5 71.5t-54.5 177.5q0 107 59.5 180t163.5 73q89 0 160 -66l30 56h50zM404 115v276q-46 54 -121 54q-54 0 -87.5 -33t-44 -75.5t-10.5 -96.5
q0 -37 5.5 -69t19 -63.5t40.5 -50t65 -18.5q80 0 133 76z" />
    <glyph glyph-name="r" unicode="r" horiz-adv-x="440" 
d="M205 365v-238q2 -49 16 -71.5t58 -24.5l17 -1v-30h-275v30h11q47 3 62 25t15 72v208q0 47 -14.5 70.5t-58.5 26.5h-16v30l153 22h32v-75q83 85 168 85q29 0 51.5 -13t22.5 -40q0 -24 -15.5 -39t-39.5 -15q-26 0 -51 16.5t-38 16.5q-23 0 -51 -17t-47 -38z" />
    <glyph glyph-name="s" unicode="s" horiz-adv-x="520" 
d="M419 484l32 -153h-32q-20 51 -70.5 86.5t-104.5 35.5q-40 0 -71.5 -18t-31.5 -54q0 -13 6 -23.5t13 -16.5t22 -12t21.5 -8t23.5 -6q6 -1 8 -2l113 -27q67 -16 103 -44.5t36 -88.5q0 -78 -63.5 -119.5t-145.5 -41.5q-93 0 -160 50l-11 -42h-32l-35 178h35
q21 -67 76.5 -105.5t126.5 -38.5q45 0 85 23t40 65q0 17 -6.5 29.5t-21.5 20.5t-25.5 11.5t-30.5 8.5l-102 27q-32 8 -46.5 12.5t-41.5 16t-39.5 23.5t-23.5 33.5t-11 48.5q0 65 58 103t126 38q84 0 141 -45l11 35h28z" />
    <glyph glyph-name="t" unicode="t" horiz-adv-x="380" 
d="M342 484v-32h-142v-281q0 -29 1.5 -46t8 -41.5t23 -36.5t43.5 -12q43 0 87 44l25 -22q-48 -65 -141 -65q-59 0 -99 24q-27 18 -35.5 43.5t-8.5 65.5v327h-84v32q79 3 108 50.5t29 132.5h43v-183h142z" />
    <glyph glyph-name="u" unicode="u" horiz-adv-x="680" 
d="M571 484v-358q0 -48 11.5 -72.5t48.5 -24.5h7l15 1v-30h-178v83q-94 -91 -215 -91q-81 0 -120 43q-14 16 -21 36t-8.5 35.5t-1.5 41.5v187q0 47 -14.5 70.5t-58.5 26.5h-16v30l153 22h32v-334q0 -52 11 -72q21 -37 76 -37q96 0 183 85v209q0 47 -14.5 70.5t-58.5 26.5
h-16v30l153 22h32z" />
    <glyph glyph-name="v" unicode="v" horiz-adv-x="520" 
d="M277 86l99 265q13 39 13 52q0 28 -16 38t-47 13v30h208v-30q-43 -8 -66.5 -35.5t-45.5 -76.5l-145 -342h-58l-152 374q-18 43 -34 60t-56 20v30h243v-30h-17q-47 -4 -47 -34q0 -7 12 -46z" />
    <glyph glyph-name="w" unicode="w" horiz-adv-x="780" 
d="M548 96l97 247q11 31 11 53q0 58 -73 58v30h221v-30q-44 -7 -65.5 -33.5t-42.5 -77.5l-135 -343h-65l-100 288l-123 -288h-67l-132 376q-11 25 -19 39t-27 26t-47 13v30h239v-30q-20 -1 -29.5 -2t-20.5 -8.5t-11 -22.5q0 -17 10 -45l100 -285l106 254l-8 18
q-8 21 -14.5 36t-15 26t-24 18t-40.5 11v30h226v-30q-14 -1 -20 -1.5t-17 -3.5t-15.5 -10t-4.5 -18q0 -13 9 -45z" />
    <glyph glyph-name="x" unicode="x" horiz-adv-x="560" 
d="M312 279l132 -164q22 -30 35 -44t38 -26.5t59 -14.5v-30h-276v30h8q54 0 54 34q0 7 -15 37l-92 114l-88 -101q-26 -31 -26 -46q0 -32 66 -38v-30h-223v30q28 3 52 17t36 26t38 41l118 135l-109 134q-27 37 -49 52.5t-60 18.5v30h250v-30l-11 -1q-51 0 -51 -23
q0 -11 20 -34l70 -87l87 87q19 19 19 33q0 11 -9.5 17t-15.5 6.5t-21 1.5v30h212v-30q-56 -8 -86.5 -25.5t-74.5 -62.5z" />
    <glyph glyph-name="y" unicode="y" horiz-adv-x="540" 
d="M286 94l86 224q23 64 23 88q0 18 -12.5 28.5t-24 13.5t-31.5 6v30h222v-30q-47 -8 -68.5 -30.5t-41.5 -71.5l-160 -385q-44 -105 -74 -140q-25 -28 -61 -45.5t-72 -17.5q-33 0 -61.5 16t-28.5 46q0 21 15.5 35.5t36.5 14.5q23 0 46 -26t46 -26q14 0 28 9.5t23.5 21t20 32
t15 30.5t11.5 27l13 29l-170 407q-11 26 -15 34t-14.5 19.5t-23.5 15t-37 5.5v30h238v-30q-55 -2 -55 -35q0 -10 9 -32z" />
    <glyph glyph-name="z" unicode="z" horiz-adv-x="480" 
d="M476 158l-54 -158h-399l-16 29l324 418q-33 11 -66 11q-160 0 -211 -131l-31 11l56 146h370l12 -24l-331 -416q35 -13 92 -13q82 0 131.5 32t94.5 105z" />
    <glyph glyph-name="braceleft" unicode="{" horiz-adv-x="280" 
d="M187 167v-162q0 -49 15 -74.5t58 -38.5v-28h-13q-48 0 -71 4t-44 21q-35 28 -35 108v171q0 20 -0.5 29.5t-5 22.5t-14.5 25q-22 26 -56 32v29q46 12 61 35.5t15 75.5v151q0 82 28.5 115.5t114.5 33.5h20v-28q-40 -11 -56.5 -38.5t-16.5 -74.5v-146q0 -60 -16.5 -92.5
t-66.5 -42.5v-2q48 -11 65.5 -40.5t17.5 -85.5z" />
    <glyph glyph-name="bar" unicode="|" horiz-adv-x="600" 
d="M264 -250v1000h78v-1000h-78z" />
    <glyph glyph-name="braceright" unicode="}" horiz-adv-x="280" 
d="M94 414v162q0 49 -15 74.5t-58 38.5v28h13q48 0 71 -4t44 -21q35 -28 35 -108v-171q0 -20 0.5 -29.5t5 -22.5t14.5 -25q22 -26 56 -32v-29q-46 -12 -61 -35.5t-15 -75.5v-151q0 -82 -28.5 -115.5t-114.5 -33.5h-20v28q40 11 56.5 38.5t16.5 74.5v146q0 60 16.5 92.5
t66.5 42.5v2q-48 11 -65.5 40.5t-17.5 85.5z" />
    <glyph glyph-name="asciitilde" unicode="~" horiz-adv-x="600" 
d="M514 352l42 -47q-62 -111 -142 -111q-11 0 -24.5 3t-30.5 9t-27.5 10t-30 12.5t-22.5 9.5q-59 25 -84 25q-19 0 -34 -7t-29 -24.5t-19.5 -26t-19.5 -32.5l-41 48q30 54 62.5 86t80.5 32q41 0 117 -35q82 -35 103 -35q55 0 99 83z" />
    <glyph glyph-name="uni00A0" unicode="&#xa0;" horiz-adv-x="320" 
 />
    <glyph glyph-name="exclamdown" unicode="&#xa1;" horiz-adv-x="300" 
d="M83 428q0 27 18.5 46.5t45.5 19.5q26 0 45 -19t19 -45q0 -27 -18.5 -47t-45.5 -20q-26 0 -45 19t-19 46zM128 322h38v-27q0 -78 18 -188l23 -113q12 -56 12 -110q0 -40 -18 -69t-54 -29q-72 0 -72 98q0 58 10 108l23 113q20 105 20 190v27z" />
    <glyph glyph-name="cent" unicode="&#xa2;" 
d="M346 499v-291l33 -2q31 0 54 12t54 37l24 -20q-19 -42 -66.5 -67t-98.5 -28v-120h-38v120q-83 9 -137.5 67.5t-54.5 140.5q0 81 55.5 138t136.5 62v103h38v-103q52 -1 104.5 -31.5t52.5 -79.5q0 -22 -14 -37t-36 -15q-49 0 -57 61q-6 46 -50 53zM309 220v280
q-40 -10 -59 -49t-19 -85q0 -111 78 -146z" />
    <glyph glyph-name="sterling" unicode="&#xa3;" 
d="M260 401h202l-16 -45h-166l32 -73q19 -45 19 -86q0 -29 -15 -72l77 -26q63 -23 96 -23q29 0 52 15.5t23 43.5q0 23 -14.5 35.5t-37.5 12.5q-26 0 -58 -16l-16 28q38 27 88 27q44 0 74.5 -29.5t30.5 -73.5q0 -52 -40.5 -89.5t-93.5 -37.5q-24 0 -49 7t-38.5 14t-43.5 23
l-74 40q-65 -93 -168 -93q-46 0 -81 26.5t-35 71.5q0 43 36.5 67t81.5 24q43 0 121 -22q0 30 -47 138l-29 68h-129l15 45h99q-18 67 -18 91q0 94 72.5 150t169.5 56q78 0 128 -35q27 -19 44.5 -49t17.5 -61q0 -26 -16.5 -47t-41.5 -21q-17 0 -30 12.5t-13 29.5q0 12 8.5 31
t8.5 29q0 27 -33 50q-30 19 -80 19q-65 0 -105.5 -40t-40.5 -104q0 -44 26 -96zM240 99q-53 29 -103 29q-74 0 -74 -50q0 -24 20.5 -37.5t46.5 -13.5q35 0 64.5 20t45.5 52z" />
    <glyph glyph-name="currency" unicode="&#xa4;" 
d="M58 140l53 53q-48 65 -48 144q0 91 49 148l-54 54l51 52l54 -55q63 51 151 51q83 0 144 -49l53 53l51 -52l-54 -52q52 -61 52 -148q0 -86 -50 -146l53 -53l-50 -51l-53 53q-63 -52 -147 -52q-87 0 -151 52l-53 -53zM314 506q-71 0 -120.5 -48.5t-49.5 -120.5
q0 -70 49.5 -118t119.5 -48q69 0 117.5 49.5t48.5 118.5q0 68 -48.5 117.5t-116.5 49.5z" />
    <glyph glyph-name="yen" unicode="&#xa5;" 
d="M348 235v-96q0 -64 18 -86t80 -23v-30h-293v30l20 1q56 3 69.5 25.5t13.5 85.5v93h-230v41h230v10l-64 108h-166v41h140l-68 110q-3 6 -11.5 20t-11.5 19t-10.5 15.5t-12.5 15t-13.5 12t-16.5 11t-19.5 7.5t-24.5 6v30h268v-30q-22 -2 -34 -4t-27 -11.5t-15 -24.5
q0 -7 3.5 -16t7 -15.5t10 -17t8.5 -13.5l126 -203l119 192q30 52 30 70q0 7 -2.5 13t-7.5 10t-9.5 7t-12.5 5t-12.5 3t-13 2.5t-11.5 2.5v30h242v-30q-18 -3 -32.5 -6.5t-28 -12.5t-21 -13.5t-19.5 -19.5t-15.5 -20t-18 -26t-17.5 -26l-63 -92h149v-41h-176l-57 -86v-32h233
v-41h-233z" />
    <glyph glyph-name="brokenbar" unicode="&#xa6;" horiz-adv-x="600" 
d="M264 325v350h78v-350h-78zM264 -175v350h78v-350h-78z" />
    <glyph glyph-name="section" unicode="&#xa7;" horiz-adv-x="520" 
d="M130 -38l-1 -19q0 -14 0.5 -21t5.5 -15.5t15 -15.5q38 -26 108 -26q62 0 101.5 28.5t39.5 87.5q0 43 -25 61t-74 28l-83 17q-86 18 -121 45q-57 43 -57 116q0 82 97 155q-41 19 -64.5 54.5t-23.5 79.5q0 80 62.5 120.5t146.5 40.5q87 0 144 -35q67 -44 67 -102
q0 -23 -12.5 -39.5t-33.5 -16.5q-25 0 -37.5 15.5t-12.5 39.5q0 1 0.5 5t0.5 6l1 20q0 34 -34 49t-73 15q-132 0 -132 -93q0 -23 7 -39t23 -26.5t29 -16t37 -12.5l110 -32q137 -39 137 -148q0 -84 -62 -158q70 -45 70 -132q0 -39 -20 -75t-53 -59q-59 -42 -154 -42
q-89 0 -147 34q-33 19 -56 49t-23 64q0 22 13.5 39.5t34.5 17.5q24 0 36.5 -18t12.5 -43v-3zM241 176l44 -9l96 -22q23 46 23 88q0 56 -28.5 81.5t-89.5 43.5l-114 34q-54 -58 -54 -107t33.5 -73t89.5 -36z" />
    <glyph glyph-name="dieresis" unicode="&#xa8;" horiz-adv-x="420" 
d="M186 595q0 -25 -16.5 -43t-41.5 -18q-24 0 -42 17t-18 41q0 26 17 44.5t43 18.5q24 0 41 -18t17 -42zM349 593q0 -24 -16.5 -42t-40.5 -18q-26 0 -43.5 17.5t-17.5 42.5t17 42.5t42 17.5t42 -17.5t17 -42.5z" />
    <glyph glyph-name="copyright" unicode="&#xa9;" horiz-adv-x="740" 
d="M724 340q0 -148 -103 -252.5t-249 -104.5q-144 0 -246 105t-102 251q0 148 101.5 253.5t245.5 105.5q146 0 249.5 -104.5t103.5 -253.5zM678 340v14q0 125 -90.5 211.5t-216.5 86.5t-213.5 -91.5t-87.5 -221.5q0 -129 88 -219.5t214 -90.5t213 90t93 221zM523 516v-106
h-26q-1 50 -28 78t-77 28q-68 0 -105 -49.5t-37 -121.5q0 -70 38 -125t104 -55q85 0 119 76l21 -8q-18 -46 -62.5 -72t-95.5 -26q-85 0 -137.5 57t-52.5 144q0 92 55 149t146 57q62 0 138 -26z" />
    <glyph glyph-name="ordfeminine" unicode="&#xaa;" horiz-adv-x="420" 
d="M378 438l15 -21q-22 -22 -64 -22q-56 0 -72 40q-50 -40 -111 -40q-37 0 -67 19t-30 54q0 21 9.5 37t29 27t37 18t46.5 12t43 6.5t41 4.5v39q0 28 -16 41q-18 13 -55 13q-17 0 -36 -7t-19 -20v-9q0 -38 -34 -38q-12 0 -22 8.5t-10 20.5q0 25 26 44t55.5 26t53.5 7
q43 0 83 -19q19 -9 28.5 -22t11 -24.5t1.5 -35.5v-123q0 -46 31 -46q11 0 25 10zM256 469v77l-9 -1q-19 -1 -37.5 -5t-41 -11t-36.5 -21t-14 -33q0 -21 15 -32.5t36 -11.5q45 0 87 38z" />
    <glyph glyph-name="guillemotleft" unicode="&#xab;" horiz-adv-x="360" 
d="M301 107l-30 -18l-97 176l108 172l30 -17l-62 -155zM179 107l-30 -18l-98 176l109 172l29 -17l-62 -155z" />
    <glyph glyph-name="logicalnot" unicode="&#xac;" horiz-adv-x="600" 
d="M483 128v194h-432v76h504v-270h-72z" />
    <glyph glyph-name="uni00AD" unicode="&#xad;" horiz-adv-x="400" 
d="M350 292l-30 -60h-270l30 60h270z" />
    <glyph glyph-name="registered" unicode="&#xae;" horiz-adv-x="740" 
d="M374 -17q-146 0 -248.5 105t-102.5 253t103 252.5t248 104.5t247 -104.5t102 -252.5t-102 -253t-247 -105zM374 652q-127 0 -216 -90.5t-89 -220.5t88.5 -221t216.5 -91q127 0 215 90.5t88 221.5q0 130 -88 220.5t-215 90.5zM210 532v16h152q78 0 110 -20q39 -27 39 -78
q0 -44 -31 -70.5t-76 -31.5v-2q7 -1 14 -3.5t13 -7.5t11 -9.5t10 -13t8.5 -13t8.5 -14.5l7 -14t6.5 -14.5t5.5 -12.5q20 -46 31 -60q13 -12 38 -12v-16h-40q-33 0 -46 12q-15 12 -40 75q-1 2 -10 24t-16 35t-15 21q-13 14 -45 14h-34v-128q0 -20 5 -27.5t23 -8.5l20 -1v-16
h-148v16l16 1q14 1 19.5 2.5t8.5 8t3 19.5v299q-1 19 -6.5 23t-24.5 6zM311 356h27q119 0 119 89q0 42 -24.5 63.5t-66.5 21.5h-27q-18 0 -23 -8.5t-5 -25.5v-140z" />
    <glyph glyph-name="macron" unicode="&#xaf;" horiz-adv-x="440" 
d="M364 635v-48h-296v48h296z" />
    <glyph glyph-name="degree" unicode="&#xb0;" horiz-adv-x="400" 
d="M350 548q0 -62 -44 -106t-106 -44t-106 44t-44 106v2q0 61 44 104.5t106 43.5t106 -44t44 -106zM310 548q0 45 -32.5 77.5t-78.5 32.5q-44 0 -76.5 -32t-32.5 -76v-2q0 -46 32 -78t78 -32q45 0 77.5 32t32.5 78z" />
    <glyph glyph-name="plusminus" unicode="&#xb1;" horiz-adv-x="600" 
d="M265 369v144h76v-144h214v-76h-214v-144h-76v144h-214v76h214zM51 0v76h504v-76h-504z" />
    <glyph glyph-name="twosuperior" unicode="&#xb2;" horiz-adv-x="372" 
d="M367 391l-32 -112h-315v42q246 143 246 264q0 38 -25 60.5t-66 22.5q-29 0 -61 -16t-32 -41q0 -11 11 -24t11 -23q0 -13 -12 -22.5t-25 -9.5q-20 0 -32 15t-12 35q0 50 49 83t111 33q63 0 111.5 -29.5t48.5 -87.5q0 -39 -26 -78.5t-69 -72.5t-81 -56.5t-80 -44.5v-2h143
q51 0 69.5 10t38.5 52l4 8z" />
    <glyph glyph-name="threesuperior" unicode="&#xb3;" horiz-adv-x="372" 
d="M172 493l-42 -3v27q5 0 15 -0.5t15 -0.5q46 0 76.5 19t30.5 59q0 36 -24 57t-63 21q-28 0 -55 -12t-27 -36q0 -6 5.5 -16t5.5 -17q0 -14 -10.5 -22t-24.5 -8q-18 0 -28 11.5t-10 27.5q0 42 45.5 70t102.5 28q56 0 105 -25t49 -75q0 -34 -28.5 -59t-77.5 -32v-2
q56 -8 92 -34.5t36 -74.5q0 -56 -53.5 -91.5t-132.5 -35.5q-68 0 -115 28.5t-47 66.5q0 16 11.5 28.5t28.5 12.5q16 0 26 -10t10 -25q0 -7 -3 -14t-3 -11q0 -17 23.5 -32.5t72.5 -15.5q50 0 79 26t29 72q0 98 -114 98z" />
    <glyph glyph-name="acute" unicode="&#xb4;" horiz-adv-x="340" 
d="M74 571l-6 17l84 59q57 42 87 42q15 0 25 -10.5t10 -25.5q0 -36 -49 -49q-4 -1 -26 -6z" />
    <glyph glyph-name="mu" unicode="&#xb5;" horiz-adv-x="627" 
d="M627 139q-10 -57 -39.5 -100t-77.5 -43q-82 0 -82 128q0 9 1 30t1 28h-3q-25 -100 -74 -145t-103 -45q-123 0 -140 100h-2q3 -63 16 -103t29 -56t31.5 -27t26 -26t10.5 -42q0 -17 -12 -30t-30 -13q-27 0 -45 11t-31 44q-30 75 -30 285v349h96v-333q0 -52 14 -76
q21 -33 72 -33q66 0 107 68.5t41 164.5v209h96v-283q0 -72 8.5 -101.5t27.5 -29.5q36 0 58 82z" />
    <glyph glyph-name="paragraph" unicode="&#xb6;" horiz-adv-x="600" 
d="M577 0h-168v651h-59v-651h-182v30h3q66 0 82.5 24.5t16.5 88.5v156h-24q-93 0 -147 34q-41 25 -63 69t-22 94q0 49 23.5 88.5t65.5 62.5q29 16 62 24t56 9t67 1h289v-30q-58 -4 -72 -22t-16 -78v-413q0 -52 15.5 -80t67.5 -28h5v-30zM270 327v324h-5q-74 0 -120 -40.5
t-46 -113.5q0 -98 75 -142q49 -28 92 -28h4z" />
    <glyph glyph-name="periodcentered" unicode="&#xb7;" horiz-adv-x="320" 
d="M92 262q0 26 18.5 45.5t44.5 19.5q27 0 46 -19t19 -46q0 -26 -18.5 -46t-45.5 -20q-26 0 -45 19.5t-19 46.5z" />
    <glyph glyph-name="cedilla" unicode="&#xb8;" horiz-adv-x="320" 
d="M157 0l-13 -43l25 2q39 0 63.5 -18.5t24.5 -56.5q0 -39 -27 -61.5t-67 -22.5q-29 0 -62 15t-33 40q0 26 25 26q14 0 22 -8t10 -18t11 -18t25 -8q21 0 34 14.5t13 36.5q0 50 -59 50q-22 0 -48 -8l25 78h31z" />
    <glyph glyph-name="onesuperior" unicode="&#xb9;" horiz-adv-x="372" 
d="M224 688v-318q0 -47 12 -58t66 -15v-18h-222v18q52 8 64 13q10 5 13 18q2 6 2 26v232q0 42 -10.5 53.5t-55.5 11.5h-13v18l120 19h24z" />
    <glyph glyph-name="ordmasculine" unicode="&#xba;" horiz-adv-x="420" 
d="M208 394q-69 0 -110.5 40.5t-41.5 109.5t41 111.5t109 42.5q69 0 112 -42t43 -112q0 -69 -41.5 -109.5t-111.5 -40.5zM210 666q-45 0 -64.5 -36t-19.5 -86q0 -118 87 -118q42 0 60 33.5t18 79.5q0 127 -81 127z" />
    <glyph glyph-name="guillemotright" unicode="&#xbb;" horiz-adv-x="360" 
d="M61 419l31 18l97 -176l-108 -172l-30 17l62 155zM184 419l30 18l98 -176l-109 -172l-29 17l62 155z" />
    <glyph glyph-name="onequarter" unicode="&#xbc;" horiz-adv-x="930" 
d="M772 409v-263h97l-14 -34h-83v-25q0 -32 5 -46q9 -21 49 -23h12v-18h-191v18h9q40 2 49 20q6 14 6 47v27h-205l-11 25l108 131l108 141h61zM711 681l-464 -681h-59l464 681h59zM711 146v211h-2l-153 -192l-15 -19h170zM224 681v-318q0 -47 12 -58t66 -15v-18h-222v18
q52 8 64 13q10 5 13 18q2 6 2 26v232q0 42 -10.5 53.5t-55.5 11.5h-13v18l120 19h24z" />
    <glyph glyph-name="onehalf" unicode="&#xbd;" horiz-adv-x="930" 
d="M711 681l-464 -681h-59l464 681h59zM224 681v-318q0 -47 12 -58t66 -15v-18h-222v18q52 8 64 13q10 5 13 18q2 6 2 26v232q0 42 -10.5 53.5t-55.5 11.5h-13v18l120 19h24zM885 112l-32 -112h-315v42q246 143 246 264q0 38 -25 60.5t-66 22.5q-29 0 -61 -16t-32 -41
q0 -11 11 -24t11 -23q0 -13 -12 -22.5t-25 -9.5q-20 0 -32 15t-12 35q0 50 49 83t111 33q63 0 111.5 -29.5t48.5 -87.5q0 -39 -26 -78.5t-69 -72.5t-81 -56.5t-80 -44.5v-2h143q51 0 69.5 10t38.5 52l4 8z" />
    <glyph glyph-name="threequarters" unicode="&#xbe;" horiz-adv-x="930" 
d="M792 409v-263h97l-14 -34h-83v-25q0 -32 5 -46q9 -21 49 -23h12v-18h-191v18h9q40 2 49 20q6 14 6 47v27h-205l-11 25l108 131l108 141h61zM731 146v211h-2l-153 -192l-15 -19h170zM771 681l-464 -681h-59l464 681h59zM212 486l-42 -3v27q5 0 15 -0.5t15 -0.5
q46 0 76.5 19t30.5 59q0 36 -24 57t-63 21q-28 0 -55 -12t-27 -36q0 -6 5.5 -16t5.5 -17q0 -14 -10.5 -22t-24.5 -8q-18 0 -28 11.5t-10 27.5q0 42 45.5 70t102.5 28q56 0 105 -25t49 -75q0 -34 -28.5 -59t-77.5 -32v-2q56 -8 92 -34.5t36 -74.5q0 -56 -53.5 -91.5
t-132.5 -35.5q-68 0 -115 28.5t-47 66.5q0 16 11.5 28.5t28.5 12.5q16 0 26 -10t10 -25q0 -7 -3 -14t-3 -11q0 -17 23.5 -32.5t72.5 -15.5q50 0 79 26t29 72q0 98 -114 98z" />
    <glyph glyph-name="questiondown" unicode="&#xbf;" horiz-adv-x="540" 
d="M280 322h46v-61q0 -55 -16 -80.5t-64 -57.5l-36 -25q-41 -28 -59.5 -60t-18.5 -79q0 -64 36.5 -100t101.5 -36q74 0 117 36q27 22 27 49q0 16 -10.5 36.5t-10.5 32.5q0 22 17 35.5t39 13.5q27 0 44 -21.5t17 -49.5q0 -37 -23 -71t-57 -57q-68 -44 -166 -44q-97 0 -169 48
t-72 140q0 60 39 109q28 35 110 66q25 9 37 14.5t29 18t25 28.5q17 33 17 94v21zM238 428q0 27 18.5 46.5t45.5 19.5q26 0 45 -19t19 -45q0 -27 -18.5 -47t-44.5 -20t-45.5 19t-19.5 46z" />
    <glyph glyph-name="Agrave" unicode="&#xc0;" horiz-adv-x="680" 
d="M389 681l206 -525l9 -22.5t9.5 -23t9.5 -20t11.5 -19.5l13.5 -15t18 -14t21.5 -7.5t26.5 -4.5v-30h-281v30q78 9 78 50q0 18 -15 55l-45 118h-257l-28 -75q-23 -60 -23 -83q0 -34 22.5 -47.5t65.5 -17.5v-30h-268v30l11 2q36 8 53.5 21t36.5 46q22 39 65 153l167 429h93z
M208 298h225l-114 297zM408 748l-125 27q-50 11 -63 24q-12 13 -12 31q0 15 10 25.5t25 10.5q29 0 88 -42l83 -59z" />
    <glyph glyph-name="Aacute" unicode="&#xc1;" horiz-adv-x="680" 
d="M389 681l206 -525l9 -22.5t9.5 -23t9.5 -20t11.5 -19.5l13.5 -15t18 -14t21.5 -7.5t26.5 -4.5v-30h-281v30q78 9 78 50q0 18 -15 55l-45 118h-257l-28 -75q-23 -60 -23 -83q0 -34 22.5 -47.5t65.5 -17.5v-30h-268v30l11 2q36 8 53.5 21t36.5 46q22 39 65 153l167 429h93z
M208 298h225l-114 297zM274 748l-6 17l84 59q57 42 87 42q15 0 25 -10.5t10 -25.5q0 -36 -49 -49q-4 -1 -26 -6z" />
    <glyph glyph-name="Acircumflex" unicode="&#xc2;" horiz-adv-x="680" 
d="M389 681l206 -525l9 -22.5t9.5 -23t9.5 -20t11.5 -19.5l13.5 -15t18 -14t21.5 -7.5t26.5 -4.5v-30h-281v30q78 9 78 50q0 18 -15 55l-45 118h-257l-28 -75q-23 -60 -23 -83q0 -34 22.5 -47.5t65.5 -17.5v-30h-268v30l11 2q36 8 53.5 21t36.5 46q22 39 65 153l167 429h93z
M208 298h225l-114 297zM340 862l142 -93l-14 -25l-128 46l-129 -46l-13 25z" />
    <glyph glyph-name="Atilde" unicode="&#xc3;" horiz-adv-x="680" 
d="M389 681l206 -525l9 -22.5t9.5 -23t9.5 -20t11.5 -19.5l13.5 -15t18 -14t21.5 -7.5t26.5 -4.5v-30h-281v30q78 9 78 50q0 18 -15 55l-45 118h-257l-28 -75q-23 -60 -23 -83q0 -34 22.5 -47.5t65.5 -17.5v-30h-268v30l11 2q36 8 53.5 21t36.5 46q22 39 65 153l167 429h93z
M208 298h225l-114 297zM217 760l-29 9q8 30 32.5 49.5t54.5 19.5q27 0 76 -15t67 -15q32 0 48 25l29 -9q-7 -33 -36 -54t-64 -21q-20 0 -68 15t-70 15q-24 0 -40 -19z" />
    <glyph glyph-name="Adieresis" unicode="&#xc4;" horiz-adv-x="680" 
d="M389 681l206 -525l9 -22.5t9.5 -23t9.5 -20t11.5 -19.5l13.5 -15t18 -14t21.5 -7.5t26.5 -4.5v-30h-281v30q78 9 78 50q0 18 -15 55l-45 118h-257l-28 -75q-23 -60 -23 -83q0 -34 22.5 -47.5t65.5 -17.5v-30h-268v30l11 2q36 8 53.5 21t36.5 46q22 39 65 153l167 429h93z
M208 298h225l-114 297zM316 791q0 -25 -16.5 -43t-41.5 -18q-24 0 -42 17t-18 41q0 26 17 44.5t43 18.5q24 0 41 -18t17 -42zM479 789q0 -24 -16.5 -42t-40.5 -18q-26 0 -43.5 17.5t-17.5 42.5t17 42.5t42 17.5t42 -17.5t17 -42.5z" />
    <glyph glyph-name="Aring" unicode="&#xc5;" horiz-adv-x="680" 
d="M389 681l206 -525l9 -22.5t9.5 -23t9.5 -20t11.5 -19.5l13.5 -15t18 -14t21.5 -7.5t26.5 -4.5v-30h-281v30q78 9 78 50q0 18 -15 55l-45 118h-257l-28 -75q-23 -60 -23 -83q0 -34 22.5 -47.5t65.5 -17.5v-30h-268v30l11 2q36 8 53.5 21t36.5 46q22 39 65 153l167 429h93z
M208 298h225l-114 297zM340 873q-24 0 -40.5 -17t-16.5 -40t16.5 -40.5t39.5 -17.5q24 0 41 16.5t17 40.5q0 25 -16.5 41.5t-40.5 16.5zM340 908q38 0 65 -27t27 -65t-27 -65.5t-65 -27.5t-65 27.5t-27 66.5q0 38 27 64.5t65 26.5z" />
    <glyph glyph-name="AE" unicode="&#xc6;" horiz-adv-x="1260" 
d="M1140 681l75 -177l-35 -10q-96 153 -307 153q-71 0 -93 -21q-20 -18 -20 -77v-163h80q61 0 82 29t27 97h35v-304h-35q-5 72 -29 102q-25 31 -106 31h-54v-225q0 -47 27 -62q28 -16 102 -16q111 0 183.5 47t142.5 147l35 -12l-85 -220h-596v30l11 1q56 2 71 31
q11 20 11 73v205h-252l-156 -176q-53 -61 -53 -91q0 -35 74 -41l18 -2v-30h-329v30q75 14 122.5 45.5t104.5 96.5l456 509h493zM451 385h211v242z" />
    <glyph glyph-name="Ccedilla" unicode="&#xc7;" horiz-adv-x="740" 
d="M633 672l48 -241h-32l-4 8q-55 105 -87 140q-65 69 -166 69q-115 0 -177 -98q-51 -82 -51 -216q0 -131 56 -207q33 -45 84 -69.5t108 -24.5q75 0 142 41.5t105 108.5l43 -24q-49 -86 -128 -131t-178 -45q-12 0 -34 2l-8 -28l25 2q39 0 63.5 -18.5t24.5 -56.5
q0 -39 -27 -61.5t-67 -22.5q-29 0 -62 15t-33 40q0 26 25 26q14 0 22 -8t10 -18t11 -18t25 -8q21 0 34 14.5t13 36.5q0 50 -59 50q-22 0 -48 -8l21 67q-130 20 -209 116t-79 234q0 147 95.5 253t240.5 106q120 0 199 -72l22 46h32z" />
    <glyph glyph-name="Egrave" unicode="&#xc8;" horiz-adv-x="720" 
d="M604 681l69 -179l-32 -13q-62 78 -130.5 114t-165.5 36q-74 0 -98 -19q-26 -20 -26 -77v-154h67q74 0 98.5 23.5t33.5 99.5h34v-299h-34q-6 57 -26 87q-18 27 -42.5 34.5t-65.5 7.5h-65v-199q0 -50 15 -70q22 -30 102 -30q111 0 187.5 44.5t147.5 139.5l32 -14l-91 -213
h-583v30l10 1q1 0 8 1t8.5 1t7.5 1t8 1.5t7.5 2t8 3t6.5 4t6 5t5 6t5 7.5q10 19 10 71v419q0 47 -13.5 70.5t-61.5 26.5l-15 1v30h573zM428 748l-125 27q-50 11 -63 24q-12 13 -12 31q0 15 10 25.5t25 10.5q29 0 88 -42l83 -59z" />
    <glyph glyph-name="Eacute" unicode="&#xc9;" horiz-adv-x="720" 
d="M604 681l69 -179l-32 -13q-62 78 -130.5 114t-165.5 36q-74 0 -98 -19q-26 -20 -26 -77v-154h67q74 0 98.5 23.5t33.5 99.5h34v-299h-34q-6 57 -26 87q-18 27 -42.5 34.5t-65.5 7.5h-65v-199q0 -50 15 -70q22 -30 102 -30q111 0 187.5 44.5t147.5 139.5l32 -14l-91 -213
h-583v30l10 1q1 0 8 1t8.5 1t7.5 1t8 1.5t7.5 2t8 3t6.5 4t6 5t5 6t5 7.5q10 19 10 71v419q0 47 -13.5 70.5t-61.5 26.5l-15 1v30h573zM294 748l-6 17l84 59q57 42 87 42q15 0 25 -10.5t10 -25.5q0 -36 -49 -49q-4 -1 -26 -6z" />
    <glyph glyph-name="Ecircumflex" unicode="&#xca;" horiz-adv-x="720" 
d="M604 681l69 -179l-32 -13q-62 78 -130.5 114t-165.5 36q-74 0 -98 -19q-26 -20 -26 -77v-154h67q74 0 98.5 23.5t33.5 99.5h34v-299h-34q-6 57 -26 87q-18 27 -42.5 34.5t-65.5 7.5h-65v-199q0 -50 15 -70q22 -30 102 -30q111 0 187.5 44.5t147.5 139.5l32 -14l-91 -213
h-583v30l10 1q1 0 8 1t8.5 1t7.5 1t8 1.5t7.5 2t8 3t6.5 4t6 5t5 6t5 7.5q10 19 10 71v419q0 47 -13.5 70.5t-61.5 26.5l-15 1v30h573zM360 862l142 -93l-14 -25l-128 46l-129 -46l-13 25z" />
    <glyph glyph-name="Edieresis" unicode="&#xcb;" horiz-adv-x="720" 
d="M604 681l69 -179l-32 -13q-62 78 -130.5 114t-165.5 36q-74 0 -98 -19q-26 -20 -26 -77v-154h67q74 0 98.5 23.5t33.5 99.5h34v-299h-34q-6 57 -26 87q-18 27 -42.5 34.5t-65.5 7.5h-65v-199q0 -50 15 -70q22 -30 102 -30q111 0 187.5 44.5t147.5 139.5l32 -14l-91 -213
h-583v30l10 1q1 0 8 1t8.5 1t7.5 1t8 1.5t7.5 2t8 3t6.5 4t6 5t5 6t5 7.5q10 19 10 71v419q0 47 -13.5 70.5t-61.5 26.5l-15 1v30h573zM336 791q0 -25 -16.5 -43t-41.5 -18q-24 0 -42 17t-18 41q0 26 17 44.5t43 18.5q24 0 41 -18t17 -42zM499 789q0 -24 -16.5 -42
t-40.5 -18q-26 0 -43.5 17.5t-17.5 42.5t17 42.5t42 17.5t42 -17.5t17 -42.5z" />
    <glyph glyph-name="Igrave" unicode="&#xcc;" horiz-adv-x="340" 
d="M116 156v388q0 26 -1.5 40.5t-8.5 31t-22.5 25t-40.5 10.5h-12v30h270v-30h-12q-25 -2 -40.5 -10.5t-22.5 -25t-8.5 -31t-1.5 -40.5v-417q0 -31 3.5 -48t19.5 -31t47 -17l15 -1v-30h-270v30l15 1q44 4 57 27t13 69v29zM248 748l-125 27q-50 11 -63 24q-12 13 -12 31
q0 15 10 25.5t25 10.5q29 0 88 -42l83 -59z" />
    <glyph glyph-name="Iacute" unicode="&#xcd;" horiz-adv-x="340" 
d="M116 156v388q0 26 -1.5 40.5t-8.5 31t-22.5 25t-40.5 10.5h-12v30h270v-30h-12q-25 -2 -40.5 -10.5t-22.5 -25t-8.5 -31t-1.5 -40.5v-417q0 -31 3.5 -48t19.5 -31t47 -17l15 -1v-30h-270v30l15 1q44 4 57 27t13 69v29zM94 748l-6 17l84 59q57 42 87 42q15 0 25 -10.5
t10 -25.5q0 -36 -49 -49q-4 -1 -26 -6z" />
    <glyph glyph-name="Icircumflex" unicode="&#xce;" horiz-adv-x="340" 
d="M116 156v388q0 26 -1.5 40.5t-8.5 31t-22.5 25t-40.5 10.5h-12v30h270v-30h-12q-25 -2 -40.5 -10.5t-22.5 -25t-8.5 -31t-1.5 -40.5v-417q0 -31 3.5 -48t19.5 -31t47 -17l15 -1v-30h-270v30l15 1q44 4 57 27t13 69v29zM170 862l142 -93l-14 -25l-128 46l-129 -46l-13 25z
" />
    <glyph glyph-name="Idieresis" unicode="&#xcf;" horiz-adv-x="340" 
d="M116 156v388q0 26 -1.5 40.5t-8.5 31t-22.5 25t-40.5 10.5h-12v30h270v-30h-12q-25 -2 -40.5 -10.5t-22.5 -25t-8.5 -31t-1.5 -40.5v-417q0 -31 3.5 -48t19.5 -31t47 -17l15 -1v-30h-270v30l15 1q44 4 57 27t13 69v29zM146 791q0 -25 -16.5 -43t-41.5 -18q-24 0 -42 17
t-18 41q0 26 17 44.5t43 18.5q24 0 41 -18t17 -42zM309 789q0 -24 -16.5 -42t-40.5 -18q-26 0 -43.5 17.5t-17.5 42.5t17 42.5t42 17.5t42 -17.5t17 -42.5z" />
    <glyph glyph-name="Eth" unicode="&#xd0;" horiz-adv-x="800" 
d="M436 387v-42h-216v-204q0 -61 20 -79q24 -20 105 -20q140 0 213.5 80t73.5 223q0 148 -77 224q-73 73 -211 73q-91 0 -110 -27q-14 -20 -14 -79v-149h216zM31 0v30l9 1q54 6 69 32q11 20 11 72v210h-89v42h89v165q0 47 -13.5 70.5t-61.5 27.5l-14 1v30h296q198 0 293 -67
q62 -45 97 -121.5t35 -156.5t-33 -152t-94 -117q-41 -30 -96 -46t-95 -18.5t-107 -2.5h-296z" />
    <glyph glyph-name="Ntilde" unicode="&#xd1;" horiz-adv-x="740" 
d="M171 606v-475q0 -50 14 -73.5t64 -26.5l20 -1v-30h-243v30h10q54 4 69 33q10 20 10 71v419q0 31 -3.5 48.5t-20.5 32t-50 16.5l-15 1v30h221l326 -542h2v413q0 49 -14 72t-64 26l-20 1v30h245v-30l-11 -1q-56 -4 -70 -32q-10 -20 -10 -71v-547h-86l-372 606h-2zM247 760
l-29 9q8 30 32.5 49.5t54.5 19.5q27 0 76 -15t67 -15q32 0 48 25l29 -9q-7 -33 -36 -54t-64 -21q-20 0 -68 15t-70 15q-24 0 -40 -19z" />
    <glyph glyph-name="Ograve" unicode="&#xd2;" horiz-adv-x="800" 
d="M404 698q156 0 255 -103t99 -260q0 -151 -103.5 -251.5t-254.5 -100.5q-150 0 -253 103t-103 253q0 153 103.5 256t256.5 103zM400 648q-114 -3 -175 -86t-61 -227q0 -78 23.5 -144t79 -112t135.5 -46q79 0 134.5 45t78.5 110t23 143q0 139 -59.5 228t-171.5 89h-7z
M468 748l-125 27q-50 11 -63 24q-12 13 -12 31q0 15 10 25.5t25 10.5q29 0 88 -42l83 -59z" />
    <glyph glyph-name="Oacute" unicode="&#xd3;" horiz-adv-x="800" 
d="M404 698q156 0 255 -103t99 -260q0 -151 -103.5 -251.5t-254.5 -100.5q-150 0 -253 103t-103 253q0 153 103.5 256t256.5 103zM400 648q-114 -3 -175 -86t-61 -227q0 -78 23.5 -144t79 -112t135.5 -46q79 0 134.5 45t78.5 110t23 143q0 139 -59.5 228t-171.5 89h-7z
M334 748l-6 17l84 59q57 42 87 42q15 0 25 -10.5t10 -25.5q0 -36 -49 -49q-4 -1 -26 -6z" />
    <glyph glyph-name="Ocircumflex" unicode="&#xd4;" horiz-adv-x="800" 
d="M404 698q156 0 255 -103t99 -260q0 -151 -103.5 -251.5t-254.5 -100.5q-150 0 -253 103t-103 253q0 153 103.5 256t256.5 103zM400 648q-114 -3 -175 -86t-61 -227q0 -78 23.5 -144t79 -112t135.5 -46q79 0 134.5 45t78.5 110t23 143q0 139 -59.5 228t-171.5 89h-7z
M400 862l142 -93l-14 -25l-128 46l-129 -46l-13 25z" />
    <glyph glyph-name="Otilde" unicode="&#xd5;" horiz-adv-x="800" 
d="M404 698q156 0 255 -103t99 -260q0 -151 -103.5 -251.5t-254.5 -100.5q-150 0 -253 103t-103 253q0 153 103.5 256t256.5 103zM400 648q-114 -3 -175 -86t-61 -227q0 -78 23.5 -144t79 -112t135.5 -46q79 0 134.5 45t78.5 110t23 143q0 139 -59.5 228t-171.5 89h-7z
M277 760l-29 9q8 30 32.5 49.5t54.5 19.5q27 0 76 -15t67 -15q32 0 48 25l29 -9q-7 -33 -36 -54t-64 -21q-20 0 -68 15t-70 15q-24 0 -40 -19z" />
    <glyph glyph-name="Odieresis" unicode="&#xd6;" horiz-adv-x="800" 
d="M404 698q156 0 255 -103t99 -260q0 -151 -103.5 -251.5t-254.5 -100.5q-150 0 -253 103t-103 253q0 153 103.5 256t256.5 103zM400 648q-114 -3 -175 -86t-61 -227q0 -78 23.5 -144t79 -112t135.5 -46q79 0 134.5 45t78.5 110t23 143q0 139 -59.5 228t-171.5 89h-7z
M376 791q0 -25 -16.5 -43t-41.5 -18q-24 0 -42 17t-18 41q0 26 17 44.5t43 18.5q24 0 41 -18t17 -42zM539 789q0 -24 -16.5 -42t-40.5 -18q-26 0 -43.5 17.5t-17.5 42.5t17 42.5t42 17.5t42 -17.5t17 -42.5z" />
    <glyph glyph-name="multiply" unicode="&#xd7;" horiz-adv-x="600" 
d="M303 315l198 198l54 -54l-198 -198l198 -198l-54 -54l-198 198l-198 -198l-54 54l198 198l-198 198l54 54z" />
    <glyph glyph-name="Oslash" unicode="&#xd8;" horiz-adv-x="800" 
d="M196 45l-78 -98h-63l103 129q-55 49 -84.5 117.5t-29.5 143.5q0 154 103.5 257.5t258.5 103.5q116 0 200 -59l75 94h61l-98 -123q114 -110 114 -273q0 -151 -104 -252.5t-256 -101.5q-109 0 -202 62zM212 143l349 438q-61 65 -155 67h-5q-117 0 -177 -87.5t-60 -221.5
q0 -114 48 -196zM590 541l-349 -438q61 -68 161 -70h3q73 0 128 44.5t80 110t25 138.5v5q-2 133 -48 210z" />
    <glyph glyph-name="Ugrave" unicode="&#xd9;" horiz-adv-x="780" 
d="M510 681h244v-30h-9q-54 -4 -69 -33q-11 -22 -11 -81v-321q0 -67 -13 -107t-57 -75q-66 -51 -196 -51q-128 0 -198 46q-52 34 -68 75t-16 110v336q0 25 -2 39t-9 29t-23 22.5t-42 9.5l-16 1v30h291v-30l-14 -1q-19 -1 -29.5 -2t-24.5 -8.5t-21 -21.5q-10 -19 -10 -71
v-265q0 -8 -0.5 -27.5t-0.5 -29.5q0 -85 25 -123q46 -69 172 -69q121 0 166 67q30 44 30 157v293q0 50 -14 73.5t-65 26.5l-20 1v30zM458 748l-125 27q-50 11 -63 24q-12 13 -12 31q0 15 10 25.5t25 10.5q29 0 88 -42l83 -59z" />
    <glyph glyph-name="Uacute" unicode="&#xda;" horiz-adv-x="780" 
d="M510 681h244v-30h-9q-54 -4 -69 -33q-11 -22 -11 -81v-321q0 -67 -13 -107t-57 -75q-66 -51 -196 -51q-128 0 -198 46q-52 34 -68 75t-16 110v336q0 25 -2 39t-9 29t-23 22.5t-42 9.5l-16 1v30h291v-30l-14 -1q-19 -1 -29.5 -2t-24.5 -8.5t-21 -21.5q-10 -19 -10 -71
v-265q0 -8 -0.5 -27.5t-0.5 -29.5q0 -85 25 -123q46 -69 172 -69q121 0 166 67q30 44 30 157v293q0 50 -14 73.5t-65 26.5l-20 1v30zM324 748l-6 17l84 59q57 42 87 42q15 0 25 -10.5t10 -25.5q0 -36 -49 -49q-4 -1 -26 -6z" />
    <glyph glyph-name="Ucircumflex" unicode="&#xdb;" horiz-adv-x="780" 
d="M510 681h244v-30h-9q-54 -4 -69 -33q-11 -22 -11 -81v-321q0 -67 -13 -107t-57 -75q-66 -51 -196 -51q-128 0 -198 46q-52 34 -68 75t-16 110v336q0 25 -2 39t-9 29t-23 22.5t-42 9.5l-16 1v30h291v-30l-14 -1q-19 -1 -29.5 -2t-24.5 -8.5t-21 -21.5q-10 -19 -10 -71
v-265q0 -8 -0.5 -27.5t-0.5 -29.5q0 -85 25 -123q46 -69 172 -69q121 0 166 67q30 44 30 157v293q0 50 -14 73.5t-65 26.5l-20 1v30zM390 862l142 -93l-14 -25l-128 46l-129 -46l-13 25z" />
    <glyph glyph-name="Udieresis" unicode="&#xdc;" horiz-adv-x="780" 
d="M510 681h244v-30h-9q-54 -4 -69 -33q-11 -22 -11 -81v-321q0 -67 -13 -107t-57 -75q-66 -51 -196 -51q-128 0 -198 46q-52 34 -68 75t-16 110v336q0 25 -2 39t-9 29t-23 22.5t-42 9.5l-16 1v30h291v-30l-14 -1q-19 -1 -29.5 -2t-24.5 -8.5t-21 -21.5q-10 -19 -10 -71
v-265q0 -8 -0.5 -27.5t-0.5 -29.5q0 -85 25 -123q46 -69 172 -69q121 0 166 67q30 44 30 157v293q0 50 -14 73.5t-65 26.5l-20 1v30zM366 791q0 -25 -16.5 -43t-41.5 -18q-24 0 -42 17t-18 41q0 26 17 44.5t43 18.5q24 0 41 -18t17 -42zM529 789q0 -24 -16.5 -42t-40.5 -18
q-26 0 -43.5 17.5t-17.5 42.5t17 42.5t42 17.5t42 -17.5t17 -42.5z" />
    <glyph glyph-name="Yacute" unicode="&#xdd;" horiz-adv-x="640" 
d="M354 281v-133q0 -25 1 -38.5t5 -31t12.5 -26.5t24.5 -15.5t40 -6.5h21v-30h-311v30h21q15 1 22.5 2t19.5 4t20 10t13 17q11 20 11 72v149l-159 256q-37 61 -54 77q-27 25 -71 34v30h284v-30q-2 0 -12 -1.5t-14.5 -2.5t-14 -3t-14.5 -5t-11 -7t-8.5 -10t-2.5 -13
q0 -15 20 -47l137 -217l133 208q21 34 21 53q0 8 -4 15t-8.5 11t-14 7.5t-15 5t-16 3.5t-13.5 3v30h249v-30q-29 -4 -49.5 -12.5t-38.5 -25.5t-27.5 -29t-29.5 -42q-6 -8 -9 -13zM224 748l-6 17l84 59q57 42 87 42q15 0 25 -10.5t10 -25.5q0 -36 -49 -49q-4 -1 -26 -6z" />
    <glyph glyph-name="Thorn" unicode="&#xde;" 
d="M31 0v30l9 1q54 4 68 32q11 23 11 82v408q0 31 -3.5 48.5t-20.5 32t-50 16.5l-14 1v30h292v-30l-20 -1q-15 -1 -23 -2t-19.5 -4.5t-19.5 -10.5t-13 -18q-9 -20 -9 -60v-12h139q107 0 168 -36q41 -25 64 -65t23 -88q0 -95 -73 -149q-59 -45 -183 -45h-138v-26q0 -48 9 -68
q5 -11 13 -18t19.5 -10.5t19.5 -4.5t23 -2l20 -1v-30h-292zM219 197h123q46 0 76 8t54 34q40 43 40 114q0 72 -47 115q-41 36 -120 36h-126v-307z" />
    <glyph glyph-name="germandbls" unicode="&#xdf;" horiz-adv-x="660" 
d="M121 145v288h-60l11 42h49q13 98 83.5 160.5t168.5 62.5q65 0 118 -32.5t53 -93.5q0 -74 -96 -114q-47 -17 -47 -31q0 -7 8 -14t16 -11t20.5 -9.5t14.5 -6.5q37 -16 59 -28.5t46.5 -33t36.5 -48t12 -62.5q0 -99 -79 -160.5t-181 -61.5q-77 0 -137 28l24 40q61 -23 91 -23
q69 0 123.5 49.5t54.5 117.5q0 40 -19.5 63.5t-59.5 44.5l-71 37q-3 2 -15.5 8t-19.5 10t-17 10.5t-14.5 14.5t-4.5 17q0 38 67 60q23 8 32 11.5t27.5 13t26 18.5t15 24t7.5 34q0 37 -26 61t-64 24q-83 0 -129 -79q-13 -22 -19.5 -51t-7.5 -48.5t-1 -55.5v-243
q0 -138 -48 -199q-70 -89 -177 -89q-60 0 -101 20l17 40q56 -13 79 -13q66 0 105 58q29 43 29 150z" />
    <glyph glyph-name="agrave" unicode="&#xe0;" horiz-adv-x="580" 
d="M568 52l19 -26q-35 -34 -98 -34h-4q-39 1 -68.5 19t-40.5 53q-92 -72 -188 -72q-59 0 -106 31t-47 87q0 47 25.5 75.5t73.5 49.5q67 30 168 41l74 8v72q-4 55 -35 76q-32 21 -90 21q-31 0 -63.5 -14t-32.5 -39v-13q0 -60 -51 -60q-18 0 -32.5 13t-14.5 31q0 29 25 55
t56 39q64 27 141 29h4q67 0 130 -33q37 -20 48 -47.5t11 -75.5v-196q0 -105 55 -105q19 0 41 15zM376 108v141q-240 -22 -240 -127q0 -37 26.5 -59t64.5 -22q71 0 149 67zM388 571l-125 27q-50 11 -63 24q-12 13 -12 31q0 15 10 25.5t25 10.5q29 0 88 -42l83 -59z" />
    <glyph glyph-name="aacute" unicode="&#xe1;" horiz-adv-x="580" 
d="M568 52l19 -26q-35 -34 -98 -34h-4q-39 1 -68.5 19t-40.5 53q-92 -72 -188 -72q-59 0 -106 31t-47 87q0 47 25.5 75.5t73.5 49.5q67 30 168 41l74 8v72q-4 55 -35 76q-32 21 -90 21q-31 0 -63.5 -14t-32.5 -39v-13q0 -60 -51 -60q-18 0 -32.5 13t-14.5 31q0 29 25 55
t56 39q64 27 141 29h4q67 0 130 -33q37 -20 48 -47.5t11 -75.5v-196q0 -105 55 -105q19 0 41 15zM376 108v141q-240 -22 -240 -127q0 -37 26.5 -59t64.5 -22q71 0 149 67zM194 571l-6 17l84 59q57 42 87 42q15 0 25 -10.5t10 -25.5q0 -36 -49 -49q-4 -1 -26 -6z" />
    <glyph glyph-name="acircumflex" unicode="&#xe2;" horiz-adv-x="580" 
d="M568 52l19 -26q-35 -34 -98 -34h-4q-39 1 -68.5 19t-40.5 53q-92 -72 -188 -72q-59 0 -106 31t-47 87q0 47 25.5 75.5t73.5 49.5q67 30 168 41l74 8v72q-4 55 -35 76q-32 21 -90 21q-31 0 -63.5 -14t-32.5 -39v-13q0 -60 -51 -60q-18 0 -32.5 13t-14.5 31q0 29 25 55
t56 39q64 27 141 29h4q67 0 130 -33q37 -20 48 -47.5t11 -75.5v-196q0 -105 55 -105q19 0 41 15zM376 108v141q-240 -22 -240 -127q0 -37 26.5 -59t64.5 -22q71 0 149 67zM290 685l142 -93l-14 -25l-128 46l-129 -46l-13 25z" />
    <glyph glyph-name="atilde" unicode="&#xe3;" horiz-adv-x="580" 
d="M568 52l19 -26q-35 -34 -98 -34h-4q-39 1 -68.5 19t-40.5 53q-92 -72 -188 -72q-59 0 -106 31t-47 87q0 47 25.5 75.5t73.5 49.5q67 30 168 41l74 8v72q-4 55 -35 76q-32 21 -90 21q-31 0 -63.5 -14t-32.5 -39v-13q0 -60 -51 -60q-18 0 -32.5 13t-14.5 31q0 29 25 55
t56 39q64 27 141 29h4q67 0 130 -33q37 -20 48 -47.5t11 -75.5v-196q0 -105 55 -105q19 0 41 15zM376 108v141q-240 -22 -240 -127q0 -37 26.5 -59t64.5 -22q71 0 149 67zM167 583l-29 9q8 30 32.5 49.5t54.5 19.5q27 0 76 -15t67 -15q32 0 48 25l29 -9q-7 -33 -36 -54
t-64 -21q-20 0 -68 15t-70 15q-24 0 -40 -19z" />
    <glyph glyph-name="adieresis" unicode="&#xe4;" horiz-adv-x="580" 
d="M568 52l19 -26q-35 -34 -98 -34h-4q-39 1 -68.5 19t-40.5 53q-92 -72 -188 -72q-59 0 -106 31t-47 87q0 47 25.5 75.5t73.5 49.5q67 30 168 41l74 8v72q-4 55 -35 76q-32 21 -90 21q-31 0 -63.5 -14t-32.5 -39v-13q0 -60 -51 -60q-18 0 -32.5 13t-14.5 31q0 29 25 55
t56 39q64 27 141 29h4q67 0 130 -33q37 -20 48 -47.5t11 -75.5v-196q0 -105 55 -105q19 0 41 15zM376 108v141q-240 -22 -240 -127q0 -37 26.5 -59t64.5 -22q71 0 149 67zM266 614q0 -25 -16.5 -43t-41.5 -18q-24 0 -42 17t-18 41q0 26 17 44.5t43 18.5q24 0 41 -18t17 -42z
M429 612q0 -24 -16.5 -42t-40.5 -18q-26 0 -43.5 17.5t-17.5 42.5t17 42.5t42 17.5t42 -17.5t17 -42.5z" />
    <glyph glyph-name="aring" unicode="&#xe5;" horiz-adv-x="580" 
d="M568 52l19 -26q-35 -34 -98 -34h-4q-39 1 -68.5 19t-40.5 53q-92 -72 -188 -72q-59 0 -106 31t-47 87q0 47 25.5 75.5t73.5 49.5q67 30 168 41l74 8v72q-4 55 -35 76q-32 21 -90 21q-31 0 -63.5 -14t-32.5 -39v-13q0 -60 -51 -60q-18 0 -32.5 13t-14.5 31q0 29 25 55
t56 39q64 27 141 29h4q67 0 130 -33q37 -20 48 -47.5t11 -75.5v-196q0 -105 55 -105q19 0 41 15zM376 108v141q-240 -22 -240 -127q0 -37 26.5 -59t64.5 -22q71 0 149 67zM290 696q-24 0 -40.5 -17t-16.5 -40t16.5 -40.5t39.5 -17.5q24 0 41 16.5t17 40.5q0 25 -16.5 41.5
t-40.5 16.5zM290 731q38 0 65 -27t27 -65t-27 -65.5t-65 -27.5t-65 27.5t-27 66.5q0 38 27 64.5t65 26.5z" />
    <glyph glyph-name="ae" unicode="&#xe6;" horiz-adv-x="860" 
d="M370 295v57q0 57 -26 78q-31 26 -87 26q-51 0 -78 -20q-20 -16 -20 -37v-14q0 -19 -6 -30q-13 -25 -44 -25q-20 0 -33.5 11t-13.5 30q0 38 42 74q61 49 170 49q122 0 169 -65q73 65 172 65q89 0 153 -55t64 -143v-42h-358q2 -92 20 -131q18 -41 58.5 -65t87.5 -24
q51 0 93.5 26t64.5 71l32 -17q-29 -61 -85 -91.5t-127 -30.5q-68 0 -124 31.5t-89 90.5q-27 -61 -86.5 -91.5t-131.5 -30.5q-63 0 -107.5 31.5t-44.5 91.5q0 51 37.5 88t90.5 57q81 30 207 35zM373 213l-3 41h-14q-36 0 -72 -6t-73 -19.5t-60.5 -39.5t-23.5 -62
q0 -40 29 -64t70 -24q32 0 64 15.5t52 40.5q31 40 31 118zM474 295h258q0 3 0.5 9t0.5 9q0 63 -32 103.5t-95 40.5q-37 0 -68.5 -19.5t-45.5 -52.5q-12 -28 -18 -90z" />
    <glyph glyph-name="ccedilla" unicode="&#xe7;" horiz-adv-x="520" 
d="M469 122l29 -19q-71 -111 -214 -111q-19 0 -29 1l-11 -36l25 2q39 0 63.5 -18.5t24.5 -56.5q0 -39 -27 -61.5t-67 -22.5q-29 0 -62 15t-33 40q0 26 25 26q14 0 22 -8t10 -18t11 -18t25 -8q21 0 34 14.5t13 36.5q0 50 -59 50q-22 0 -48 -8l24 76q-87 17 -137.5 81
t-50.5 160q0 115 66 185t180 70q79 0 134 -35q68 -43 68 -98q0 -23 -14 -39t-37 -16q-21 0 -36 13.5t-15 34.5q0 6 2 19t2 19q0 30 -33.5 47t-65.5 17q-135 0 -137 -215v-3q0 -85 40.5 -146t121.5 -61q49 0 85 23.5t71 67.5z" />
    <glyph glyph-name="egrave" unicode="&#xe8;" horiz-adv-x="520" 
d="M491 289h-348l-2 -51q0 -74 43 -139q20 -30 54.5 -46t72.5 -16q97 0 147 92l33 -17q-26 -57 -82 -88.5t-122 -31.5q-107 0 -175 65q-75 75 -75 187q0 110 64.5 179.5t174.5 70.5h2q91 0 152 -55.5t61 -145.5v-4zM145 330h240q0 55 -32 89t-83 34t-85 -36t-40 -87z
M358 571l-125 27q-50 11 -63 24q-12 13 -12 31q0 15 10 25.5t25 10.5q29 0 88 -42l83 -59z" />
    <glyph glyph-name="eacute" unicode="&#xe9;" horiz-adv-x="520" 
d="M491 289h-348l-2 -51q0 -74 43 -139q20 -30 54.5 -46t72.5 -16q97 0 147 92l33 -17q-26 -57 -82 -88.5t-122 -31.5q-107 0 -175 65q-75 75 -75 187q0 110 64.5 179.5t174.5 70.5h2q91 0 152 -55.5t61 -145.5v-4zM145 330h240q0 55 -32 89t-83 34t-85 -36t-40 -87z
M204 571l-6 17l84 59q57 42 87 42q15 0 25 -10.5t10 -25.5q0 -36 -49 -49q-4 -1 -26 -6z" />
    <glyph glyph-name="ecircumflex" unicode="&#xea;" horiz-adv-x="520" 
d="M491 289h-348l-2 -51q0 -74 43 -139q20 -30 54.5 -46t72.5 -16q97 0 147 92l33 -17q-26 -57 -82 -88.5t-122 -31.5q-107 0 -175 65q-75 75 -75 187q0 110 64.5 179.5t174.5 70.5h2q91 0 152 -55.5t61 -145.5v-4zM145 330h240q0 55 -32 89t-83 34t-85 -36t-40 -87z
M260 685l142 -93l-14 -25l-128 46l-129 -46l-13 25z" />
    <glyph glyph-name="edieresis" unicode="&#xeb;" horiz-adv-x="520" 
d="M491 289h-348l-2 -51q0 -74 43 -139q20 -30 54.5 -46t72.5 -16q97 0 147 92l33 -17q-26 -57 -82 -88.5t-122 -31.5q-107 0 -175 65q-75 75 -75 187q0 110 64.5 179.5t174.5 70.5h2q91 0 152 -55.5t61 -145.5v-4zM145 330h240q0 55 -32 89t-83 34t-85 -36t-40 -87z
M236 614q0 -25 -16.5 -43t-41.5 -18q-24 0 -42 17t-18 41q0 26 17 44.5t43 18.5q24 0 41 -18t17 -42zM399 612q0 -24 -16.5 -42t-40.5 -18q-26 0 -43.5 17.5t-17.5 42.5t17 42.5t42 17.5t42 -17.5t17 -42.5z" />
    <glyph glyph-name="igrave" unicode="&#xec;" horiz-adv-x="300" 
d="M205 484v-357q0 -47 14 -70t57 -26l12 -1v-30h-264v30h9q47 3 61.5 25t14.5 72v208q0 47 -14.5 70.5t-58.5 26.5h-16v30l153 22h32zM248 571l-125 27q-50 11 -63 24q-12 13 -12 31q0 15 10 25.5t25 10.5q29 0 88 -42l83 -59z" />
    <glyph glyph-name="iacute" unicode="&#xed;" horiz-adv-x="300" 
d="M205 484v-357q0 -47 14 -70t57 -26l12 -1v-30h-264v30h9q47 3 61.5 25t14.5 72v208q0 47 -14.5 70.5t-58.5 26.5h-16v30l153 22h32zM94 571l-6 17l84 59q57 42 87 42q15 0 25 -10.5t10 -25.5q0 -36 -49 -49q-4 -1 -26 -6z" />
    <glyph glyph-name="icircumflex" unicode="&#xee;" horiz-adv-x="300" 
d="M205 484v-357q0 -47 14 -70t57 -26l12 -1v-30h-264v30h9q47 3 61.5 25t14.5 72v208q0 47 -14.5 70.5t-58.5 26.5h-16v30l153 22h32zM150 685l142 -93l-14 -25l-128 46l-129 -46l-13 25z" />
    <glyph glyph-name="idieresis" unicode="&#xef;" horiz-adv-x="300" 
d="M205 484v-357q0 -47 14 -70t57 -26l12 -1v-30h-264v30h9q47 3 61.5 25t14.5 72v208q0 47 -14.5 70.5t-58.5 26.5h-16v30l153 22h32zM126 614q0 -25 -16.5 -43t-41.5 -18q-24 0 -42 17t-18 41q0 26 17 44.5t43 18.5q24 0 41 -18t17 -42zM289 612q0 -24 -16.5 -42
t-40.5 -18q-26 0 -43.5 17.5t-17.5 42.5t17 42.5t42 17.5t42 -17.5t17 -42.5z" />
    <glyph glyph-name="eth" unicode="&#xf0;" horiz-adv-x="560" 
d="M288 32q39 0 66.5 18.5t41.5 49.5t20 63.5t6 69.5q0 124 -54 205q-37 16 -83 16h-3q-40 0 -69 -20t-44 -53.5t-21.5 -68t-6.5 -72.5q0 -40 6.5 -74t22 -65.5t45.5 -50t73 -18.5zM310 648l170 69l20 -36l-156 -63q182 -171 182 -377q0 -114 -66 -181.5t-179 -67.5
q-111 0 -177.5 67t-66.5 178q0 115 64 186t177 71q31 0 70 -12q-33 55 -78 106l-190 -77l-20 36l180 73q-36 43 -99 97l59 17q56 -37 110 -86z" />
    <glyph glyph-name="ntilde" unicode="&#xf1;" horiz-adv-x="660" 
d="M565 350v-224q0 -46 14 -69.5t57 -26.5h13v-30h-266v30h14q44 3 58 26t14 71v206q0 46 -16 73q-22 36 -70 36q-87 0 -178 -80v-235q0 -48 14 -71t58 -26h14v-30h-271v30h11q47 2 62.5 24t15.5 73v208q0 47 -14.5 70.5t-58.5 26.5h-16v30l153 22h32v-79q95 89 213 89
q63 0 108 -40q39 -33 39 -104zM207 583l-29 9q8 30 32.5 49.5t54.5 19.5q27 0 76 -15t67 -15q32 0 48 25l29 -9q-7 -33 -36 -54t-64 -21q-20 0 -68 15t-70 15q-24 0 -40 -19z" />
    <glyph glyph-name="ograve" unicode="&#xf2;" horiz-adv-x="560" 
d="M278 494q111 0 175 -63q35 -35 54 -86t19 -104q0 -114 -66 -181.5t-179 -67.5q-111 0 -177.5 67t-66.5 178q0 115 64 186t177 71zM285 454h-3q-40 0 -69 -20t-44 -53.5t-21.5 -68t-6.5 -72.5q0 -40 6.5 -74t22 -65.5t45.5 -50t73 -18.5q39 0 66.5 18.5t41.5 49.5t20 63.5
t6 69.5q0 96 -25 146q-16 33 -46 54t-66 21zM378 571l-125 27q-50 11 -63 24q-12 13 -12 31q0 15 10 25.5t25 10.5q29 0 88 -42l83 -59z" />
    <glyph glyph-name="oacute" unicode="&#xf3;" horiz-adv-x="560" 
d="M278 494q111 0 175 -63q35 -35 54 -86t19 -104q0 -114 -66 -181.5t-179 -67.5q-111 0 -177.5 67t-66.5 178q0 115 64 186t177 71zM285 454h-3q-40 0 -69 -20t-44 -53.5t-21.5 -68t-6.5 -72.5q0 -40 6.5 -74t22 -65.5t45.5 -50t73 -18.5q39 0 66.5 18.5t41.5 49.5t20 63.5
t6 69.5q0 96 -25 146q-16 33 -46 54t-66 21zM224 571l-6 17l84 59q57 42 87 42q15 0 25 -10.5t10 -25.5q0 -36 -49 -49q-4 -1 -26 -6z" />
    <glyph glyph-name="ocircumflex" unicode="&#xf4;" horiz-adv-x="560" 
d="M278 494q111 0 175 -63q35 -35 54 -86t19 -104q0 -114 -66 -181.5t-179 -67.5q-111 0 -177.5 67t-66.5 178q0 115 64 186t177 71zM285 454h-3q-40 0 -69 -20t-44 -53.5t-21.5 -68t-6.5 -72.5q0 -40 6.5 -74t22 -65.5t45.5 -50t73 -18.5q39 0 66.5 18.5t41.5 49.5t20 63.5
t6 69.5q0 96 -25 146q-16 33 -46 54t-66 21zM280 685l142 -93l-14 -25l-128 46l-129 -46l-13 25z" />
    <glyph glyph-name="otilde" unicode="&#xf5;" horiz-adv-x="560" 
d="M278 494q111 0 175 -63q35 -35 54 -86t19 -104q0 -114 -66 -181.5t-179 -67.5q-111 0 -177.5 67t-66.5 178q0 115 64 186t177 71zM285 454h-3q-40 0 -69 -20t-44 -53.5t-21.5 -68t-6.5 -72.5q0 -40 6.5 -74t22 -65.5t45.5 -50t73 -18.5q39 0 66.5 18.5t41.5 49.5t20 63.5
t6 69.5q0 96 -25 146q-16 33 -46 54t-66 21zM157 583l-29 9q8 30 32.5 49.5t54.5 19.5q27 0 76 -15t67 -15q32 0 48 25l29 -9q-7 -33 -36 -54t-64 -21q-20 0 -68 15t-70 15q-24 0 -40 -19z" />
    <glyph glyph-name="odieresis" unicode="&#xf6;" horiz-adv-x="560" 
d="M278 494q111 0 175 -63q35 -35 54 -86t19 -104q0 -114 -66 -181.5t-179 -67.5q-111 0 -177.5 67t-66.5 178q0 115 64 186t177 71zM285 454h-3q-40 0 -69 -20t-44 -53.5t-21.5 -68t-6.5 -72.5q0 -40 6.5 -74t22 -65.5t45.5 -50t73 -18.5q39 0 66.5 18.5t41.5 49.5t20 63.5
t6 69.5q0 96 -25 146q-16 33 -46 54t-66 21zM256 614q0 -25 -16.5 -43t-41.5 -18q-24 0 -42 17t-18 41q0 26 17 44.5t43 18.5q24 0 41 -18t17 -42zM419 612q0 -24 -16.5 -42t-40.5 -18q-26 0 -43.5 17.5t-17.5 42.5t17 42.5t42 17.5t42 -17.5t17 -42.5z" />
    <glyph glyph-name="divide" unicode="&#xf7;" horiz-adv-x="600" 
d="M51 224v76h504v-76h-504zM367 78q0 -27 -18 -47t-46 -21q-27 2 -45.5 20.5t-18.5 45.5q0 26 18.5 45.5t44.5 19.5q27 0 46 -18t19 -45zM367 451q0 -27 -18 -47t-46 -21q-27 2 -45.5 20.5t-18.5 45.5q0 26 18.5 45.5t44.5 19.5q27 0 46 -18t19 -45z" />
    <glyph glyph-name="oslash" unicode="&#xf8;" horiz-adv-x="560" 
d="M165 19l-37 -59h-49l51 79q-93 66 -93 202q0 44 15 92.5t41 81.5q32 39 81.5 59t103.5 20q66 0 124 -27l42 67h47l-56 -87q44 -34 67.5 -91t23.5 -117q0 -111 -66.5 -179t-178.5 -68q-62 0 -116 27zM169 102l200 315q-41 37 -85 37q-41 0 -71 -20t-44.5 -54t-21 -68.5
t-6.5 -72.5q0 -80 28 -137zM395 383l-199 -316q41 -35 87 -35q41 0 70 18.5t43 50t20 64.5t6 71q0 88 -27 147z" />
    <glyph glyph-name="ugrave" unicode="&#xf9;" horiz-adv-x="680" 
d="M571 484v-358q0 -48 11.5 -72.5t48.5 -24.5h7l15 1v-30h-178v83q-94 -91 -215 -91q-81 0 -120 43q-14 16 -21 36t-8.5 35.5t-1.5 41.5v187q0 47 -14.5 70.5t-58.5 26.5h-16v30l153 22h32v-334q0 -52 11 -72q21 -37 76 -37q96 0 183 85v209q0 47 -14.5 70.5t-58.5 26.5
h-16v30l153 22h32zM438 571l-125 27q-50 11 -63 24q-12 13 -12 31q0 15 10 25.5t25 10.5q29 0 88 -42l83 -59z" />
    <glyph glyph-name="uacute" unicode="&#xfa;" horiz-adv-x="680" 
d="M571 484v-358q0 -48 11.5 -72.5t48.5 -24.5h7l15 1v-30h-178v83q-94 -91 -215 -91q-81 0 -120 43q-14 16 -21 36t-8.5 35.5t-1.5 41.5v187q0 47 -14.5 70.5t-58.5 26.5h-16v30l153 22h32v-334q0 -52 11 -72q21 -37 76 -37q96 0 183 85v209q0 47 -14.5 70.5t-58.5 26.5
h-16v30l153 22h32zM284 571l-6 17l84 59q57 42 87 42q15 0 25 -10.5t10 -25.5q0 -36 -49 -49q-4 -1 -26 -6z" />
    <glyph glyph-name="ucircumflex" unicode="&#xfb;" horiz-adv-x="680" 
d="M571 484v-358q0 -48 11.5 -72.5t48.5 -24.5h7l15 1v-30h-178v83q-94 -91 -215 -91q-81 0 -120 43q-14 16 -21 36t-8.5 35.5t-1.5 41.5v187q0 47 -14.5 70.5t-58.5 26.5h-16v30l153 22h32v-334q0 -52 11 -72q21 -37 76 -37q96 0 183 85v209q0 47 -14.5 70.5t-58.5 26.5
h-16v30l153 22h32zM340 685l142 -93l-14 -25l-128 46l-129 -46l-13 25z" />
    <glyph glyph-name="udieresis" unicode="&#xfc;" horiz-adv-x="680" 
d="M571 484v-358q0 -48 11.5 -72.5t48.5 -24.5h7l15 1v-30h-178v83q-94 -91 -215 -91q-81 0 -120 43q-14 16 -21 36t-8.5 35.5t-1.5 41.5v187q0 47 -14.5 70.5t-58.5 26.5h-16v30l153 22h32v-334q0 -52 11 -72q21 -37 76 -37q96 0 183 85v209q0 47 -14.5 70.5t-58.5 26.5
h-16v30l153 22h32zM316 614q0 -25 -16.5 -43t-41.5 -18q-24 0 -42 17t-18 41q0 26 17 44.5t43 18.5q24 0 41 -18t17 -42zM479 612q0 -24 -16.5 -42t-40.5 -18q-26 0 -43.5 17.5t-17.5 42.5t17 42.5t42 17.5t42 -17.5t17 -42.5z" />
    <glyph glyph-name="yacute" unicode="&#xfd;" horiz-adv-x="540" 
d="M286 94l86 224q23 64 23 88q0 18 -12.5 28.5t-24 13.5t-31.5 6v30h222v-30q-47 -8 -68.5 -30.5t-41.5 -71.5l-160 -385q-44 -105 -74 -140q-25 -28 -61 -45.5t-72 -17.5q-33 0 -61.5 16t-28.5 46q0 21 15.5 35.5t36.5 14.5q23 0 46 -26t46 -26q14 0 28 9.5t23.5 21t20 32
t15 30.5t11.5 27l13 29l-170 407q-11 26 -15 34t-14.5 19.5t-23.5 15t-37 5.5v30h238v-30q-55 -2 -55 -35q0 -10 9 -32zM214 571l-6 17l84 59q57 42 87 42q15 0 25 -10.5t10 -25.5q0 -36 -49 -49q-4 -1 -26 -6z" />
    <glyph glyph-name="thorn" unicode="&#xfe;" 
d="M205 369v-278q53 -51 121 -51q81 0 117 56.5t36 142.5q0 39 -6 72.5t-21 65.5t-44.5 50t-71.5 18q-40 0 -74.5 -21t-56.5 -55zM205 717v-297q63 74 158 74q104 0 162 -71t58 -178q0 -108 -61 -180.5t-167 -72.5q-86 0 -150 49v-142q0 -50 14.5 -72t60.5 -24l20 -1v-30
h-276v30h9q46 3 61 25.5t15 71.5v657q0 47 -13.5 70.5t-61.5 26.5l-14 1v30q91 11 145 33h40z" />
    <glyph glyph-name="ydieresis" unicode="&#xff;" horiz-adv-x="540" 
d="M286 94l86 224q23 64 23 88q0 18 -12.5 28.5t-24 13.5t-31.5 6v30h222v-30q-47 -8 -68.5 -30.5t-41.5 -71.5l-160 -385q-44 -105 -74 -140q-25 -28 -61 -45.5t-72 -17.5q-33 0 -61.5 16t-28.5 46q0 21 15.5 35.5t36.5 14.5q23 0 46 -26t46 -26q14 0 28 9.5t23.5 21t20 32
t15 30.5t11.5 27l13 29l-170 407q-11 26 -15 34t-14.5 19.5t-23.5 15t-37 5.5v30h238v-30q-55 -2 -55 -35q0 -10 9 -32zM246 614q0 -25 -16.5 -43t-41.5 -18q-24 0 -42 17t-18 41q0 26 17 44.5t43 18.5q24 0 41 -18t17 -42zM409 612q0 -24 -16.5 -42t-40.5 -18
q-26 0 -43.5 17.5t-17.5 42.5t17 42.5t42 17.5t42 -17.5t17 -42.5z" />
    <glyph glyph-name="dotlessi" unicode="&#x131;" horiz-adv-x="300" 
d="M205 484v-357q0 -47 14 -70t57 -26l12 -1v-30h-264v30h9q47 3 61.5 25t14.5 72v208q0 47 -14.5 70.5t-58.5 26.5h-16v30l153 22h32z" />
    <glyph glyph-name="Lslash" unicode="&#x141;" horiz-adv-x="600" 
d="M629 213l-79 -213h-519v29l9 1q53 4 68 33q10 19 10 71v76l-84 -65v63l84 64v280q0 31 -3.5 48.5t-20.5 32.5t-50 18h-13v30h285v-30h-13q-20 -2 -29 -3.5t-23 -9t-21 -20.5q-12 -23 -12 -126v-152l137 100v-62l-137 -102v-75q0 -115 11 -135q16 -28 76 -28
q175 0 296 188z" />
    <glyph glyph-name="lslash" unicode="&#x142;" horiz-adv-x="320" 
d="M165 717h40v-233l86 72v-61l-86 -72v-296q0 -47 13.5 -70t55.5 -26l12 -1v-30h-262v30h9q46 4 61 27.5t15 80.5v222l-83 -63v61l83 63v135q0 47 -13.5 70.5t-61.5 26.5l-14 1v30q91 11 145 33z" />
    <glyph glyph-name="OE" unicode="&#x152;" horiz-adv-x="1240" 
d="M632 681h469l79 -174l-34 -13q-112 155 -288 155q-90 0 -112 -19q-22 -17 -22 -82q0 -8 0.5 -20t0.5 -16v-113h48q39 0 59.5 2.5t42.5 13t32 35t12 64.5v10h37v-307h-37v7q-2 46 -12.5 73t-35 39t-49 15t-72.5 3h-25v-238q0 -50 22 -66q26 -19 102 -19q61 0 107 12
t84.5 40.5t66.5 59t68 83.5l5 6l34 -15l-87 -217h-495v86q-98 -103 -238 -103q-149 0 -249.5 102.5t-100.5 251.5q0 159 98 259t252 102h3q133 0 235 -95v78zM392 646q-66 -5 -111.5 -29.5t-70.5 -66t-35.5 -91.5t-10.5 -116q0 -59 12.5 -112t38.5 -99t72.5 -73.5
t107.5 -27.5t107.5 28t72.5 74t39 98.5t13 109.5q0 77 -23 143.5t-78 114t-134 47.5z" />
    <glyph glyph-name="oe" unicode="&#x153;" horiz-adv-x="900" 
d="M876 293h-352v-58q0 -95 33 -139q47 -64 132 -64q48 0 90 27t64 70l33 -16q-26 -57 -84 -89t-124 -32q-118 0 -193 93q-35 -44 -87 -68.5t-109 -24.5q-110 0 -176 69t-66 180q0 112 66 182.5t178 70.5q124 0 194 -90q33 42 82.5 66t102.5 24q89 0 152.5 -55.5
t63.5 -143.5v-2zM279 454q-83 0 -122 -86q-16 -38 -16 -122v-14q0 -200 138 -200q42 0 71 20t43.5 54t20.5 69t6 75q0 204 -141 204zM527 327h249v7q0 53 -33 86.5t-87 33.5q-55 0 -89.5 -35.5t-39.5 -91.5z" />
    <glyph glyph-name="Scaron" unicode="&#x160;" horiz-adv-x="660" 
d="M525 681l61 -181l-32 -12q-101 160 -250 160q-54 0 -100 -28t-46 -78q0 -23 11 -41.5t23.5 -29t38 -20.5t38 -13.5t40.5 -10.5l102 -24q41 -10 66 -17.5t58.5 -23t52.5 -34.5t32.5 -49.5t13.5 -70.5q0 -103 -82.5 -164t-188.5 -61q-132 0 -214 68l-19 -51h-37l-65 229
l37 12q42 -89 118.5 -148.5t168.5 -59.5q72 0 127.5 39.5t55.5 108.5q0 30 -9.5 50.5t-36 34.5t-39 18.5t-52.5 14.5l-3 1.5t-3 1t-4 0.5l-111 27q-102 27 -143 54q-34 21 -54.5 56t-20.5 73q0 86 73 141q62 45 161 45q111 0 184 -53l12 36h36zM330 731l-142 93l13 25
l129 -46l128 46l14 -25z" />
    <glyph glyph-name="scaron" unicode="&#x161;" horiz-adv-x="520" 
d="M419 484l32 -153h-32q-20 51 -70.5 86.5t-104.5 35.5q-40 0 -71.5 -18t-31.5 -54q0 -13 6 -23.5t13 -16.5t22 -12t21.5 -8t23.5 -6q6 -1 8 -2l113 -27q67 -16 103 -44.5t36 -88.5q0 -78 -63.5 -119.5t-145.5 -41.5q-93 0 -160 50l-11 -42h-32l-35 178h35
q21 -67 76.5 -105.5t126.5 -38.5q45 0 85 23t40 65q0 17 -6.5 29.5t-21.5 20.5t-25.5 11.5t-30.5 8.5l-102 27q-32 8 -46.5 12.5t-41.5 16t-39.5 23.5t-23.5 33.5t-11 48.5q0 65 58 103t126 38q84 0 141 -45l11 35h28zM260 554l-142 93l13 25l129 -46l128 46l14 -25z" />
    <glyph glyph-name="Ydieresis" unicode="&#x178;" horiz-adv-x="640" 
d="M354 281v-133q0 -25 1 -38.5t5 -31t12.5 -26.5t24.5 -15.5t40 -6.5h21v-30h-311v30h21q15 1 22.5 2t19.5 4t20 10t13 17q11 20 11 72v149l-159 256q-37 61 -54 77q-27 25 -71 34v30h284v-30q-2 0 -12 -1.5t-14.5 -2.5t-14 -3t-14.5 -5t-11 -7t-8.5 -10t-2.5 -13
q0 -15 20 -47l137 -217l133 208q21 34 21 53q0 8 -4 15t-8.5 11t-14 7.5t-15 5t-16 3.5t-13.5 3v30h249v-30q-29 -4 -49.5 -12.5t-38.5 -25.5t-27.5 -29t-29.5 -42q-6 -8 -9 -13zM296 791q0 -25 -16.5 -43t-41.5 -18q-24 0 -42 17t-18 41q0 26 17 44.5t43 18.5q24 0 41 -18
t17 -42zM459 789q0 -24 -16.5 -42t-40.5 -18q-26 0 -43.5 17.5t-17.5 42.5t17 42.5t42 17.5t42 -17.5t17 -42.5z" />
    <glyph glyph-name="Zcaron" unicode="&#x17d;" horiz-adv-x="640" 
d="M656 205l-73 -205h-554l-19 31l475 596q-55 12 -114 12q-103 0 -171 -34t-125 -117l-34 12l73 181h501l10 -37l-472 -593l129 -11q61 0 108 7.5t93 26t81.5 54.5t60.5 89zM320 731l-142 93l13 25l129 -46l128 46l14 -25z" />
    <glyph glyph-name="zcaron" unicode="&#x17e;" horiz-adv-x="480" 
d="M476 158l-54 -158h-399l-16 29l324 418q-33 11 -66 11q-160 0 -211 -131l-31 11l56 146h370l12 -24l-331 -416q35 -13 92 -13q82 0 131.5 32t94.5 105zM240 554l-142 93l13 25l129 -46l128 46l14 -25z" />
    <glyph glyph-name="florin" unicode="&#x192;" 
d="M382 461l-56 -322q-23 -130 -69 -196q-71 -98 -163 -98q-40 0 -81.5 26.5t-41.5 64.5q0 19 13.5 30.5t32.5 11.5q20 0 32 -15.5t15.5 -34.5t13.5 -34.5t28 -15.5q24 0 45.5 22.5t33.5 49.5q24 54 46 188l57 323h-104l6 35h104l2 11q7 44 11 63t17.5 51.5t33.5 54.5
q67 73 164 73q35 0 73 -13.5t38 -42.5q0 -18 -13.5 -30t-31.5 -12q-20 0 -33 9.5t-19 21t-18 21t-31 9.5q-14 0 -25.5 -4t-20 -15t-14 -18t-10.5 -26t-6.5 -24.5t-5 -27t-3.5 -22.5l-14 -79h109l-7 -35h-108z" />
    <glyph glyph-name="circumflex" unicode="&#x2c6;" horiz-adv-x="420" 
d="M210 685l142 -93l-14 -25l-128 46l-129 -46l-13 25z" />
    <glyph glyph-name="caron" unicode="&#x2c7;" horiz-adv-x="420" 
d="M210 554l-142 93l13 25l129 -46l128 46l14 -25z" />
    <glyph glyph-name="uni02C9" unicode="&#x2c9;" horiz-adv-x="440" 
d="M364 635v-48h-296v48h296z" />
    <glyph glyph-name="breve" unicode="&#x2d8;" horiz-adv-x="460" 
d="M68 669l24 18q59 -53 144 -53q35 0 73.5 14.5t64.5 38.5l22 -18q-22 -45 -68 -73t-97 -28q-53 0 -98 27t-65 74z" />
    <glyph glyph-name="dotaccent" unicode="&#x2d9;" horiz-adv-x="260" 
d="M186 624q0 -24 -16.5 -42t-40.5 -18q-26 0 -43.5 17.5t-17.5 42.5t17 42.5t42 17.5t42 -17.5t17 -42.5z" />
    <glyph glyph-name="ring" unicode="&#x2da;" horiz-adv-x="320" 
d="M160 696q-24 0 -40.5 -17t-16.5 -40t16.5 -40.5t39.5 -17.5q24 0 41 16.5t17 40.5q0 25 -16.5 41.5t-40.5 16.5zM160 731q38 0 65 -27t27 -65t-27 -65.5t-65 -27.5t-65 27.5t-27 66.5q0 38 27 64.5t65 26.5z" />
    <glyph glyph-name="ogonek" unicode="&#x2db;" horiz-adv-x="320" 
d="M229 -68l29 -20q-49 -65 -126 -65q-50 0 -72 20.5t-22 52.5t30 56t50 24h37q-40 -31 -40 -63q0 -17 12 -29t29 -12q37 0 73 36z" />
    <glyph glyph-name="tilde" unicode="&#x2dc;" horiz-adv-x="440" 
d="M97 583l-29 9q8 30 32.5 49.5t54.5 19.5q28 0 76.5 -15t66.5 -15q32 0 48 25l29 -9q-7 -33 -36 -54t-64 -21q-20 0 -68 15t-70 15q-24 0 -40 -19z" />
    <glyph glyph-name="hungarumlaut" unicode="&#x2dd;" horiz-adv-x="380" 
d="M84 538l-16 11l31 79q8 21 12 30.5t16.5 24.5t27.5 15q26 0 26 -26q0 -19 -28 -54zM214 538l-16 11l31 79q8 21 12 30.5t16.5 24.5t27.5 15q26 0 26 -26q0 -21 -29 -54z" />
    <glyph glyph-name="uni03A9" unicode="&#x3a9;" horiz-adv-x="609" 
d="M91 0l-35 201l36 5q10 -57 25.5 -78.5t51.5 -21.5h44q-67 116 -90 158t-48 104t-25 103q0 100 74 164.5t193 64.5q118 0 192.5 -64.5t74.5 -164.5q0 -40 -23.5 -99.5t-50.5 -108.5t-90 -157h44q36 0 52 21.5t26 78.5l36 -5l-35 -201h-198q122 341 122 465q0 88 -42 141
t-108 53t-108.5 -52.5t-42.5 -141.5q0 -124 123 -465h-198z" />
    <glyph glyph-name="uni03BC" unicode="&#x3bc;" horiz-adv-x="627" 
d="M627 139q-10 -57 -39.5 -100t-77.5 -43q-82 0 -82 128q0 9 1 30t1 28h-3q-25 -100 -74 -145t-103 -45q-123 0 -140 100h-2q3 -63 16 -103t29 -56t31.5 -27t26 -26t10.5 -42q0 -17 -12 -30t-30 -13q-27 0 -45 11t-31 44q-30 75 -30 285v349h96v-333q0 -52 14 -76
q21 -33 72 -33q66 0 107 68.5t41 164.5v209h96v-283q0 -72 8.5 -101.5t27.5 -29.5q36 0 58 82z" />
    <glyph glyph-name="pi" unicode="&#x3c0;" horiz-adv-x="609" 
d="M595 429l-16 -78h-150q-16 -60 -16 -116q0 -59 15 -132.5t15 -87.5q0 -29 -42 -29q-65 0 -65 101q0 85 50 264h-74l-59 -292q-8 -41 -21 -57t-44 -16q-19 0 -30 8.5t-11 22.5q0 16 10 42l112 292q-107 -4 -183 -77l-31 19q37 73 78.5 102.5t108.5 29.5q11 0 77 -2t121 -2
q72 0 155 8z" />
    <glyph glyph-name="endash" unicode="&#x2013;" horiz-adv-x="500" 
d="M515 292l-30 -60h-500l30 60h500z" />
    <glyph glyph-name="emdash" unicode="&#x2014;" horiz-adv-x="1000" 
d="M1015 292l-30 -60h-1000l30 60h1000z" />
    <glyph glyph-name="quoteleft" unicode="&#x2018;" horiz-adv-x="220" 
d="M144 698l11 -22q-58 -38 -62 -92q17 13 34 13q23 0 37 -16.5t14 -39.5q0 -26 -18 -44t-43 -18q-32 0 -51.5 25.5t-19.5 58.5q0 42 29 80.5t69 54.5z" />
    <glyph glyph-name="quoteright" unicode="&#x2019;" horiz-adv-x="220" 
d="M80 480l-11 22q59 37 62 92q-17 -14 -34 -14q-23 0 -37 16.5t-14 39.5q0 26 18 44t43 18q32 0 51.5 -25.5t19.5 -58.5q0 -42 -28.5 -80.5t-69.5 -53.5z" />
    <glyph glyph-name="quotesinglbase" unicode="&#x201a;" horiz-adv-x="220" 
d="M80 -108l-11 21q59 38 62 92q-18 -13 -34 -13q-23 0 -37 16.5t-14 39.5q0 26 18 44t43 18q32 0 51.5 -25.5t19.5 -58.5q0 -43 -28.5 -81t-69.5 -53z" />
    <glyph glyph-name="quotedblleft" unicode="&#x201c;" horiz-adv-x="400" 
d="M315 698l11 -22q-59 -38 -62 -92q16 13 33 13q23 0 37 -16.5t14 -39.5q0 -26 -18 -44t-43 -18q-32 0 -51.5 25.5t-19.5 58.5q0 42 29 80.5t70 54.5zM144 698l11 -22q-59 -38 -62 -92q16 13 34 13q23 0 37 -16.5t14 -39.5q0 -26 -18 -44t-43 -18q-33 0 -52 25.5t-19 58.5
q0 43 28.5 81.5t69.5 53.5z" />
    <glyph glyph-name="quotedblright" unicode="&#x201d;" horiz-adv-x="400" 
d="M80 480l-11 22q59 37 62 92q-17 -14 -34 -14q-23 0 -37 16.5t-14 39.5q0 26 18 44t43 18q32 0 51.5 -25.5t19.5 -58.5q0 -42 -28.5 -80.5t-69.5 -53.5zM250 480l-11 22q59 37 62 91q-18 -13 -34 -13q-23 0 -37 16.5t-14 39.5q0 26 18 44t43 18q33 0 52 -25.5t19 -58.5
q0 -42 -28.5 -80.5t-69.5 -53.5z" />
    <glyph glyph-name="quotedblbase" unicode="&#x201e;" horiz-adv-x="400" 
d="M80 -108l-11 21q59 38 62 92q-18 -13 -34 -13q-23 0 -37 16.5t-14 39.5q0 26 18 44t43 18q32 0 51.5 -25.5t19.5 -58.5q0 -43 -28.5 -81t-69.5 -53zM250 -108l-11 21q59 38 62 92q-16 -13 -34 -13q-23 0 -37 16.5t-14 39.5q0 26 18 44t43 18q33 0 52 -25.5t19 -58.5
q0 -43 -28.5 -81t-69.5 -53z" />
    <glyph glyph-name="dagger" unicode="&#x2020;" horiz-adv-x="540" 
d="M253 -156v167q0 194 -51 302q36 43 51 100l-77 -22q-36 -9 -50 -9q-47 0 -47 50q0 45 48 45q11 0 43 -8l83 -23l-30 137q-12 43 -12 60q0 55 56 55t56 -55q0 -17 -12 -60l-30 -137l83 23q32 8 43 8q48 0 48 -45q0 -50 -47 -50q-14 0 -50 9l-77 22q15 -57 51 -100
q-51 -108 -51 -302v-167h-28z" />
    <glyph glyph-name="daggerdbl" unicode="&#x2021;" horiz-adv-x="540" 
d="M253 408l-77 -21q-32 -10 -50 -10q-47 0 -47 46q0 49 48 49q16 0 42 -7l84 -23l-32 146q-10 40 -10 53q0 57 56 57t56 -57q0 -13 -10 -53l-32 -146l84 23q26 7 42 7q48 0 48 -49q0 -46 -47 -46q-18 0 -50 10l-77 21q12 -92 44 -137q-30 -40 -44 -138l77 21q32 10 50 10
q26 0 36.5 -12.5t10.5 -38.5q0 -21 -13 -32.5t-35 -11.5q-16 0 -42 7l-84 23l30 -139q12 -41 12 -60q0 -56 -56 -56t-56 56q0 19 12 60l30 139l-84 -23q-26 -7 -42 -7q-22 0 -35 11.5t-13 32.5q0 26 10.5 38.5t36.5 12.5q18 0 50 -10l77 -21q-14 98 -44 138q32 45 44 137z
" />
    <glyph glyph-name="bullet" unicode="&#x2022;" horiz-adv-x="460" 
d="M229 170q-68 0 -118.5 50t-50.5 121t51.5 120.5t123.5 49.5q69 0 119 -49.5t50 -120.5t-51 -121t-124 -50z" />
    <glyph glyph-name="ellipsis" unicode="&#x2026;" horiz-adv-x="1000" 
d="M101 56q0 27 19 47t46 20t46.5 -19t19.5 -46t-19 -46.5t-46 -19.5t-46.5 18.5t-19.5 45.5zM434 56q0 27 19 47t46 20t46.5 -19t19.5 -46t-19 -46.5t-46 -19.5t-46.5 18.5t-19.5 45.5zM767 56q0 27 19 47t46 20t46.5 -19t19.5 -46t-19 -46.5t-46 -19.5t-46.5 18.5
t-19.5 45.5z" />
    <glyph glyph-name="perthousand" unicode="&#x2030;" horiz-adv-x="1280" 
d="M188 698q56 0 95.5 -34t56 -81.5t16.5 -101.5q0 -80 -34 -134q-22 -35 -57 -56t-75 -21q-82 0 -125 63.5t-43 149.5q0 85 43 150t123 65zM187 663q-29 0 -49 -19t-28.5 -50t-12 -57t-3.5 -54q0 -178 94 -178q96 0 96 183q0 175 -97 175zM706 420q83 0 125 -65t42 -152
q0 -78 -33 -134q-22 -35 -57 -56t-75 -21q-56 0 -95.5 32.5t-56.5 79.5t-17 102q0 84 43.5 149t123.5 65zM705 385q-29 0 -49 -19t-29 -50t-12.5 -57.5t-3.5 -54.5t3.5 -54t12.5 -56.5t29 -48.5t50 -18q95 0 95 183q0 175 -96 175zM1099 420q82 0 124.5 -65t42.5 -152
q0 -79 -34 -134q-21 -34 -56 -55.5t-75 -21.5q-56 0 -95.5 32.5t-56.5 79.5t-17 102q0 84 43.5 149t123.5 65zM1097 385q-28 0 -48 -19t-29 -50t-12.5 -57.5t-3.5 -54.5q0 -177 94 -177q96 0 96 183q0 175 -97 175zM711 681l-464 -681h-58l464 681h58z" />
    <glyph glyph-name="guilsinglleft" unicode="&#x2039;" horiz-adv-x="240" 
d="M179 107l-30 -18l-98 176l109 172l29 -17l-62 -155z" />
    <glyph glyph-name="guilsinglright" unicode="&#x203a;" horiz-adv-x="240" 
d="M61 419l31 18l97 -176l-108 -172l-30 17l62 155z" />
    <glyph glyph-name="fraction" unicode="&#x2044;" horiz-adv-x="140" 
d="M335 681l-464 -681h-59l464 681h59z" />
    <glyph glyph-name="Euro" unicode="&#x20ac;" 
d="M431 271h-226q7 -62 25.5 -112t60.5 -88t102 -38q104 0 172 122l33 -25q-34 -69 -92 -108t-126 -39q-115 0 -191.5 79.5t-93.5 208.5h-79v45h75v23q0 34 4 61h-79v45h87q25 110 94 181.5t161 71.5q94 0 157 -72l18 46h25l31 -198h-34q-29 67 -56 105q-51 69 -132 69
q-77 0 -125 -98q-22 -44 -32 -105h221v-45h-227q-3 -33 -3 -66v-18h230v-45z" />
    <glyph glyph-name="afii61289" unicode="&#x2113;" horiz-adv-x="498" 
d="M327 122l17 -10q-71 -123 -131 -123q-24 0 -35 10q-22 20 -28.5 48t-6.5 71v31l-68 -70l-14 15q35 35 81 94q0 13 1.5 61.5t2 66.5t3.5 59t7.5 64.5t12 55.5t18.5 59q22 56 67 95.5t83 39.5q35 0 53 -25q17 -24 17 -62q0 -124 -190 -361v-157q0 -15 7.5 -28.5t24.5 -13.5
q13 0 27 12.5t23 25t28 42.5zM226 427l-8 -145q89 121 114 203q16 52 16 84q0 24 -8 41q-11 24 -35 24h-2q-67 -3 -77 -207z" />
    <glyph glyph-name="trademark" unicode="&#x2122;" horiz-adv-x="980" 
d="M930 681v-18h-21q-27 0 -27 -20v-299q0 -30 8 -37.5t40 -9.5v-20h-155v20h11q26 1 33 10t7 36v298h-2l-150 -364h-8l-151 364h-2v-318q0 -10 9 -17t34 -9h7v-20h-123v20q36 1 42 8t6 20v317q0 13 -4 16.5t-22 4.5h-14v18h109l129 -308l132 308h112zM294 277h-182v20
q40 0 52 6q11 5 11 29v325h-41q-45 0 -61 -14.5t-16 -57.5h-23v96h338v-96h-23q0 43 -16 57.5t-61 14.5h-41v-325q0 -24 11 -29q12 -6 52 -6v-20z" />
    <glyph glyph-name="Omega" unicode="&#x2126;" horiz-adv-x="609" 
d="M91 0l-35 201l36 5q10 -57 25.5 -78.5t51.5 -21.5h44q-67 116 -90 158t-48 104t-25 103q0 100 74 164.5t193 64.5q118 0 192.5 -64.5t74.5 -164.5q0 -40 -23.5 -99.5t-50.5 -108.5t-90 -157h44q36 0 52 21.5t26 78.5l36 -5l-35 -201h-198q122 341 122 465q0 88 -42 141
t-108 53t-108.5 -52.5t-42.5 -141.5q0 -124 123 -465h-198z" />
    <glyph glyph-name="estimated" unicode="&#x212e;" horiz-adv-x="861" 
d="M826 330h-642q-5 0 -5 -4v-195q0 -11 8 -22q103 -105 243 -105q154 0 256 118h57q-54 -64 -136.5 -101t-177.5 -37q-164 0 -280 104t-116 251q0 148 116 252.5t280 104.5q165 0 281 -104.5t116 -252.5v-9zM681 355v196q0 14 -10 23q-103 101 -241 101q-139 0 -241 -104
q-10 -10 -10 -25v-191q0 -6 5 -6h492q5 0 5 6z" />
    <glyph glyph-name="partialdiff" unicode="&#x2202;" horiz-adv-x="476" 
d="M109 633l-37 48q60 26 126 26q68 0 116 -29t90 -103q21 -36 29.5 -100t8.5 -102q0 -159 -42 -249q-22 -48 -41.5 -75t-56.5 -47q-42 -23 -87 -23q-55 0 -99 30q-82 57 -82 159q0 38 17.5 79.5t37.5 66.5q54 67 135 67q39 0 64.5 -11.5t92.5 -52.5q8 99 8 102v8
q-2 80 -39 151q-15 28 -27 44t-39 31t-64 15q-59 0 -111 -35zM321 105q30 62 45 178q-4 4 -15 15.5t-18 17t-19 13.5t-26 11.5t-30 3.5h-2q-72 -2 -107 -51q-48 -66 -48 -153q0 -27 15.5 -63.5t44.5 -55.5q20 -13 42 -13q16 0 37 8q47 20 81 89z" />
    <glyph glyph-name="Delta" unicode="&#x2206;" horiz-adv-x="687" 
d="M669 0h-651v30l284 651h93l274 -651v-30zM544 80l-219 515l-219 -515h438z" />
    <glyph glyph-name="product" unicode="&#x220f;" horiz-adv-x="719" 
d="M19 647v38h681v-38q-52 -2 -74 -16t-22 -47v-476q0 -39 20.5 -54.5t70.5 -15.5h5v-38h-300v38h5q51 0 71.5 18.5t20.5 63.5v461q0 31 -21 48.5t-58 17.5h-109q-46 0 -66.5 -15t-20.5 -51v-461q0 -45 21 -63t75 -19v-38h-299v38q97 0 97 70v476q0 24 -11.5 39.5
t-29.5 17.5z" />
    <glyph glyph-name="summation" unicode="&#x2211;" horiz-adv-x="600" 
d="M15 0l293 331l-291 375h504l5 -133h-17q-8 26 -12 35t-16.5 20.5t-32.5 14.5t-56 3h-207l224 -288l-247 -278h291q48 0 69.5 20t44.5 78h19q-25 -100 -36 -188q-4 1 -17 3.5t-20 3.5q-19 3 -31 3h-467z" />
    <glyph glyph-name="minus" unicode="&#x2212;" horiz-adv-x="600" 
d="M51 224v76h504v-76h-504z" />
    <glyph glyph-name="uni2215" unicode="&#x2215;" horiz-adv-x="140" 
d="M335 681l-464 -681h-59l464 681h59z" />
    <glyph glyph-name="uni2219" unicode="&#x2219;" horiz-adv-x="320" 
d="M92 262q0 26 18.5 45.5t44.5 19.5q27 0 46 -19t19 -46q0 -26 -18.5 -46t-45.5 -20q-26 0 -45 19.5t-19 46.5z" />
    <glyph glyph-name="radical" unicode="&#x221a;" horiz-adv-x="453" 
d="M324 -80l-227 468l-81 -39l-20 40l135 66l150 -309l101 616l76 -13z" />
    <glyph glyph-name="infinity" unicode="&#x221e;" horiz-adv-x="996" 
d="M524 358q67 105 164 105q73 0 122.5 -50.5t49.5 -130.5q0 -82 -50.5 -134.5t-117.5 -52.5q-104 0 -160 106q-12 -19 -19.5 -30.5t-26.5 -32t-37.5 -33t-47.5 -22.5t-61 -10t-66 12t-65.5 36t-51.5 65.5t-20 93.5q0 89 58 148t141 59h2q66 0 119 -44q34 -27 67 -85z
M482 304q-64 103 -155 103q-59 0 -96.5 -37.5t-37.5 -91.5t33 -89t85 -35q31 0 57 13t46.5 36.5t33.5 43t28 46.5q4 8 6 11zM567 276q14 -42 52.5 -71.5t77.5 -29.5q47 0 77.5 29.5t30.5 75.5q0 41 -31 72.5t-76 31.5q-41 0 -76.5 -30.5t-54.5 -77.5z" />
    <glyph glyph-name="integral" unicode="&#x222b;" horiz-adv-x="996" 
d="M465 110q-35 222 -35 391q0 268 119 268q34 0 55 -23t21 -49q0 -25 -14 -37.5t-32 -12.5q-17 0 -29 10.5t-12 26.5q0 7 4 18.5t4 17.5q0 10 -14 10q-39 0 -39 -78q0 -24 3.5 -56t7 -52t12.5 -68.5t12 -65.5q34 -188 34 -337q0 -52 -1.5 -88t-8 -79.5t-17.5 -69.5
t-32.5 -44.5t-51.5 -18.5q-32 0 -56.5 19t-24.5 52q0 23 12.5 36.5t30.5 13.5t30.5 -12t12.5 -34q0 -6 -2.5 -13t-2.5 -12q0 -11 13 -11q35 0 35 79q0 13 -34 219z" />
    <glyph glyph-name="approxequal" unicode="&#x2248;" horiz-adv-x="996" 
d="M220 292l-16 15q21 41 70 79t103 38q13 0 24 -1t26.5 -5t25 -6.5t35 -10.5t40.5 -12q111 -32 151 -32q65 0 123 60l19 -11q-22 -60 -70.5 -91t-92.5 -31q-17 0 -39 4t-35 7t-48.5 13.5t-49.5 14.5q-100 28 -137 28q-71 0 -129 -59zM220 121l-16 15q21 41 70 79t103 38
q13 0 24 -1t26.5 -5t25 -6.5t35 -10.5t40.5 -12q111 -32 151 -32q65 0 123 60l19 -11q-22 -60 -70.5 -91t-92.5 -31q-17 0 -39 4t-35 7t-48.5 13.5t-49.5 14.5q-100 28 -137 28q-71 0 -129 -59z" />
    <glyph glyph-name="notequal" unicode="&#x2260;" horiz-adv-x="549" 
d="M392 529l44 -25l-68 -123h172v-51l-201 -1l-82 -148h283v-50h-311l-82 -147l-45 25l68 122h-155v50h183l83 149h-266v51h294z" />
    <glyph glyph-name="lessequal" unicode="&#x2264;" horiz-adv-x="549" 
d="M29 0v55h497v-55h-497zM29 351v54l497 230v-55l-435 -202l435 -202v-55z" />
    <glyph glyph-name="greaterequal" unicode="&#x2265;" horiz-adv-x="549" 
d="M29 0v55h497v-55h-497zM526 405v-54l-497 -230v55l435 202l-435 202v55z" />
    <glyph glyph-name="lozenge" unicode="&#x25ca;" horiz-adv-x="996" 
d="M498 -10l-308 351l308 336l308 -336zM238 341l260 -298l260 298l-260 283z" />
    </font>
</defs>
</svg>
